<svg width="684" height="560" viewBox="0 0 684 560" fill="none" xmlns="http://www.w3.org/2000/svg">
<g clip-path="url(#clip0_3_631)">
<mask id="mask0_3_631" style="mask-type:luminance" maskUnits="userSpaceOnUse" x="0" y="0" width="684" height="560">
<path d="M683.992 0.659943H0.00811768V559.39H683.992V0.659943Z" fill="white"/>
</mask>
<g mask="url(#mask0_3_631)">
<g opacity="0.6">
<path d="M604.175 201.321H117.895C100.262 201.321 85.9678 215.616 85.9678 233.249C85.9678 250.882 100.262 265.176 117.895 265.176H604.175C621.808 265.176 636.102 250.882 636.102 233.249C636.102 215.616 621.808 201.321 604.175 201.321Z" fill="#F4F4FA"/>
<path d="M647.154 265.176H126.491C108.18 265.176 93.3357 280.021 93.3357 298.332C93.3357 316.643 108.18 331.487 126.491 331.487H647.154C665.465 331.487 680.309 316.643 680.309 298.332C680.309 280.021 665.465 265.176 647.154 265.176Z" fill="#F4F4FA"/>
<path d="M563.037 331.487H37.4627C20.1687 331.487 6.14922 345.507 6.14922 362.801C6.14922 380.095 20.1687 394.114 37.4627 394.114H563.037C580.331 394.114 594.351 380.095 594.351 362.801C594.351 345.507 580.331 331.487 563.037 331.487Z" fill="#F4F4FA"/>
<path d="M593.123 394.114H108.071C89.7602 394.114 74.916 408.958 74.916 427.269C74.916 445.581 89.7602 460.425 108.071 460.425H593.123C611.434 460.425 626.278 445.581 626.278 427.269C626.278 408.958 611.434 394.114 593.123 394.114Z" fill="#F4F4FA"/>
</g>
<path d="M206.31 255.352H469.097C472.028 255.352 474.839 256.517 476.912 258.589C478.984 260.662 480.149 263.473 480.149 266.404V439.549C480.149 439.875 480.019 440.187 479.789 440.417C479.559 440.648 479.246 440.777 478.921 440.777H196.486C196.16 440.777 195.848 440.648 195.618 440.417C195.387 440.187 195.258 439.875 195.258 439.549V266.404C195.258 263.473 196.422 260.662 198.495 258.589C200.567 256.517 203.379 255.352 206.31 255.352Z" stroke="#AFAFC7" stroke-width="2.45596"/>
<path d="M228.413 275H445.765C448.696 275 451.508 276.165 453.58 278.237C455.653 280.31 456.817 283.121 456.817 286.052V439.549C456.817 439.875 456.688 440.187 456.458 440.418C456.227 440.648 455.915 440.777 455.589 440.777H218.589C218.264 440.777 217.951 440.648 217.721 440.418C217.491 440.187 217.361 439.875 217.361 439.549V286.052C217.361 283.121 218.526 280.31 220.598 278.237C222.671 276.165 225.482 275 228.413 275Z" stroke="#AFAFC7" stroke-width="2.45596"/>
<path d="M162.831 440.777H513.804C513.9 440.777 513.994 440.796 514.083 440.833C514.171 440.869 514.251 440.923 514.319 440.99C514.386 441.058 514.44 441.138 514.477 441.227C514.513 441.315 514.532 441.41 514.532 441.505V443.687C514.532 448.126 512.769 452.384 509.63 455.523C506.491 458.661 502.234 460.425 497.795 460.425H181.022C176.004 460.425 171.192 458.432 167.644 454.883C164.096 451.335 162.102 446.523 162.102 441.505C162.102 441.312 162.179 441.127 162.316 440.99C162.452 440.854 162.637 440.777 162.831 440.777Z" stroke="#AFAFC7" stroke-width="2.45596"/>
<path d="M421.294 187.314H254.289C250.22 187.314 246.921 190.613 246.921 194.682V414.489C246.921 418.558 250.22 421.856 254.289 421.856H421.294C425.363 421.856 428.662 418.558 428.662 414.489V194.682C428.662 190.613 425.363 187.314 421.294 187.314Z" fill="#F4F4FA"/>
<path d="M421.294 188.542H254.289C250.898 188.542 248.149 191.291 248.149 194.682V414.489C248.149 417.88 250.898 420.628 254.289 420.628H421.294C424.685 420.628 427.434 417.88 427.434 414.489V194.682C427.434 191.291 424.685 188.542 421.294 188.542Z" stroke="#AFAFC7" stroke-width="2.45596"/>
<path d="M255.428 209.416H418.749V230.292H255.428V209.416Z" fill="#FED531"/>
<path opacity="0.39" d="M293.495 215.556H261.567V225.38H293.495V215.556Z" fill="#AFAFC7"/>
<path d="M353.666 215.556H341.386V225.38H353.666V215.556Z" fill="#26CB6F"/>
<path d="M383.137 215.556H370.857V225.38H383.137V215.556Z" fill="#26CB6F"/>
<path d="M397.873 215.556H385.593V225.38H397.873V215.556Z" fill="#26CB6F"/>
<path d="M368.402 215.556H356.122V225.38H368.402V215.556Z" fill="#FC676A"/>
<path d="M408.332 222.349L404.903 218.921C404.805 218.815 404.752 218.675 404.754 218.53C404.757 218.386 404.816 218.248 404.918 218.146C405.02 218.044 405.158 217.985 405.302 217.982C405.447 217.98 405.587 218.033 405.693 218.131L408.727 221.166L411.76 218.131C411.866 218.033 412.006 217.98 412.151 217.982C412.295 217.985 412.433 218.044 412.535 218.146C412.637 218.248 412.696 218.386 412.699 218.53C412.701 218.675 412.648 218.815 412.55 218.921L409.121 222.349C409.017 222.454 408.875 222.513 408.726 222.513C408.578 222.513 408.436 222.454 408.332 222.349Z" fill="white" stroke="white" stroke-width="1.22798"/>
<path opacity="0.5" d="M255.428 242.572H418.749V263.447H255.428V242.572Z" fill="#26CB6F"/>
<path opacity="0.39" d="M279.987 248.712H261.567V258.535H279.987V248.712Z" fill="#AFAFC7"/>
<path d="M397.873 248.712H385.593V258.535H397.873V248.712Z" fill="#26CB6F"/>
<path d="M408.332 255.505L404.903 252.076C404.805 251.97 404.752 251.83 404.754 251.686C404.757 251.541 404.816 251.404 404.918 251.302C405.02 251.199 405.158 251.141 405.302 251.138C405.447 251.135 405.587 251.189 405.693 251.287L408.727 254.321L411.76 251.287C411.866 251.189 412.006 251.135 412.151 251.138C412.295 251.141 412.433 251.199 412.535 251.302C412.637 251.404 412.696 251.541 412.699 251.686C412.701 251.83 412.648 251.97 412.55 252.076L409.121 255.505C409.017 255.609 408.875 255.668 408.726 255.668C408.578 255.668 408.436 255.609 408.332 255.505Z" fill="white" stroke="white" stroke-width="1.22798"/>
<path opacity="0.5" d="M255.428 275.727H418.749V296.603H255.428V275.727Z" fill="#FC676A"/>
<path opacity="0.39" d="M302.091 281.867H261.567V291.691H302.091V281.867Z" fill="#AFAFC7"/>
<path d="M397.873 281.867H385.593V291.691H397.873V281.867Z" fill="#FC676A"/>
<path d="M408.332 288.66L404.903 285.232C404.805 285.126 404.752 284.986 404.754 284.841C404.757 284.697 404.816 284.559 404.918 284.457C405.02 284.355 405.158 284.296 405.302 284.293C405.447 284.291 405.587 284.344 405.693 284.442L408.727 287.476L411.76 284.442C411.866 284.344 412.006 284.291 412.151 284.293C412.295 284.296 412.433 284.355 412.535 284.457C412.637 284.559 412.696 284.697 412.699 284.841C412.701 284.986 412.648 285.126 412.55 285.232L409.121 288.66C409.017 288.765 408.875 288.824 408.726 288.824C408.578 288.824 408.436 288.765 408.332 288.66Z" fill="white" stroke="white" stroke-width="1.22798"/>
<path opacity="0.5" d="M255.428 308.883H418.749V329.758H255.428V308.883Z" fill="#FC676A"/>
<path opacity="0.39" d="M292.267 315.022H261.567V324.846H292.267V315.022Z" fill="#AFAFC7"/>
<path d="M397.873 315.022H385.593V324.846H397.873V315.022Z" fill="#26CB6F"/>
<path d="M381.909 315.022H369.63V324.846H381.909V315.022Z" fill="#FC676A"/>
<path d="M408.332 321.816L404.903 318.387C404.805 318.281 404.752 318.141 404.754 317.997C404.757 317.852 404.816 317.714 404.918 317.612C405.02 317.51 405.158 317.452 405.302 317.449C405.447 317.446 405.587 317.499 405.693 317.598L408.727 320.632L411.76 317.598C411.866 317.499 412.006 317.446 412.151 317.449C412.295 317.452 412.433 317.51 412.535 317.612C412.637 317.714 412.696 317.852 412.699 317.997C412.701 318.141 412.648 318.281 412.55 318.387L409.121 321.816C409.017 321.92 408.875 321.979 408.726 321.979C408.578 321.979 408.436 321.92 408.332 321.816Z" fill="white" stroke="white" stroke-width="1.22798"/>
<path opacity="0.5" d="M255.428 342.038H418.749V362.914H255.428V342.038Z" fill="#26CB6F"/>
<path opacity="0.39" d="M279.987 348.178H261.567V358.002H279.987V348.178Z" fill="#AFAFC7"/>
<path d="M397.873 348.178H385.593V358.002H397.873V348.178Z" fill="#26CB6F"/>
<path d="M408.332 354.971L404.903 351.543C404.805 351.437 404.752 351.297 404.754 351.152C404.757 351.008 404.816 350.87 404.918 350.768C405.02 350.666 405.158 350.607 405.302 350.604C405.447 350.601 405.587 350.655 405.693 350.753L408.727 353.787L411.76 350.753C411.866 350.655 412.006 350.601 412.151 350.604C412.295 350.607 412.433 350.666 412.535 350.768C412.637 350.87 412.696 351.008 412.699 351.152C412.701 351.297 412.648 351.437 412.55 351.543L409.121 354.971C409.017 355.076 408.875 355.134 408.726 355.134C408.578 355.134 408.436 355.076 408.332 354.971Z" fill="white" stroke="white" stroke-width="1.22798"/>
<path opacity="0.5" d="M255.428 375.193H418.749V396.069H255.428V375.193Z" fill="#26CB6F"/>
<path opacity="0.39" d="M279.987 381.333H261.567V391.157H279.987V381.333Z" fill="#AFAFC7"/>
<path d="M397.873 381.333H385.593V391.157H397.873V381.333Z" fill="#26CB6F"/>
<path d="M408.332 388.126L404.903 384.698C404.805 384.592 404.752 384.452 404.754 384.308C404.757 384.163 404.816 384.025 404.918 383.923C405.02 383.821 405.158 383.762 405.302 383.76C405.447 383.757 405.587 383.81 405.693 383.908L408.727 386.943L411.76 383.908C411.866 383.81 412.006 383.757 412.151 383.76C412.295 383.762 412.433 383.821 412.535 383.923C412.637 384.025 412.696 384.163 412.699 384.308C412.701 384.452 412.648 384.592 412.55 384.698L409.121 388.126C409.017 388.231 408.875 388.29 408.726 388.29C408.578 388.29 408.436 388.231 408.332 388.126Z" fill="white" stroke="white" stroke-width="1.22798"/>
<path d="M537.311 274.812L564.15 271.04L594.017 266.842L599.103 303.031L542.397 311L537.311 274.812Z" fill="white"/>
<path d="M538.698 275.857L543.442 309.614L597.716 301.986L592.971 268.229L564.321 272.256L538.698 275.857ZM535.924 273.767L563.979 269.824L595.062 265.455L600.489 304.076L541.351 312.387L535.924 273.767Z" fill="#AFAFC7"/>
<path d="M591.662 267.585L567.996 289.529L591.662 267.585Z" fill="white"/>
<path d="M591.662 267.585L567.996 289.529" stroke="#AFAFC7" stroke-width="2.45596" stroke-linecap="round"/>
<path d="M539.7 274.887L567.901 289.497L539.7 274.887Z" fill="white"/>
<path d="M539.7 274.887L567.901 289.497" stroke="#AFAFC7" stroke-width="2.45596" stroke-linecap="round"/>
<path d="M181.687 106.338L204.76 99.7218L230.451 92.3553L239.347 123.382L190.583 137.365L181.687 106.338Z" fill="white"/>
<path d="M183.206 107.18L191.425 135.846L237.828 122.54L229.609 93.8742L205.099 100.902L183.206 107.18ZM180.168 105.496L204.422 98.5414L231.293 90.8364L240.866 124.224L189.742 138.884L180.168 105.496Z" fill="#AFAFC7"/>
<path d="M228.558 93.1366L210.406 115.423L228.558 93.1366Z" fill="white"/>
<path d="M228.558 93.1366L210.406 115.423" stroke="#AFAFC7" stroke-width="2.45596" stroke-linecap="round"/>
<path d="M183.636 106.018L210.318 115.407L183.636 106.018Z" fill="white"/>
<path d="M183.636 106.018L210.318 115.407" stroke="#AFAFC7" stroke-width="2.45596" stroke-linecap="round"/>
<path d="M46.1864 251.257L89.1555 271.807L102.072 316.851L32.8382 336.704L19.9241 291.667L46.1864 251.257Z" fill="white"/>
<path d="M46.6288 252.829L21.2588 291.867L33.6801 335.185L100.553 316.009L88.1274 272.677L46.6288 252.829ZM45.744 249.684L90.1837 270.938L103.591 317.693L31.9963 338.222L18.5894 291.467L45.744 249.684Z" fill="#AFAFC7"/>
<path d="M89.2586 273.027L49.448 314.928" stroke="#AFAFC7" stroke-width="2.45596" stroke-linecap="round"/>
<path d="M20.9229 291.532L60.6077 303.344" stroke="#AFAFC7" stroke-width="2.45596" stroke-linecap="round"/>
<path d="M464.35 79.147L485.981 108.45L478.535 143.459L424.664 132.001L432.108 97.0001L464.35 79.147Z" fill="white"/>
<path d="M464.003 80.7434L433.192 97.8033L426.12 131.056L477.59 142.003L484.665 108.735L464.003 80.7434ZM464.698 77.5512L487.297 108.166L479.481 144.915L423.207 132.947L431.023 96.1974L464.698 77.5512Z" fill="#AFAFC7"/>
<path d="M486.928 109.899L445.829 124.016" stroke="#AFAFC7" stroke-width="2.45565"/>
<path d="M431.721 95.7448L455.375 119.981" stroke="#AFAFC7" stroke-width="2.45565"/>
<path d="M546.019 319.932C552.444 320.721 558.293 316.151 559.082 309.726C559.871 303.3 555.301 297.451 548.876 296.662C542.45 295.873 536.601 300.443 535.812 306.868C535.023 313.294 539.593 319.143 546.019 319.932Z" fill="#26CB6F"/>
<path d="M546.482 312.012C546.26 311.957 546.052 311.858 545.869 311.722C545.686 311.585 545.531 311.414 545.414 311.218L543.618 308.239C543.379 307.844 543.308 307.369 543.418 306.921C543.529 306.472 543.814 306.086 544.21 305.847C544.605 305.608 545.08 305.536 545.528 305.647C545.977 305.758 546.363 306.043 546.602 306.438L547.497 307.927L550.188 306.316C550.584 306.078 551.058 306.007 551.507 306.119C551.955 306.231 552.341 306.516 552.579 306.912C552.817 307.308 552.888 307.783 552.776 308.231C552.664 308.68 552.379 309.065 551.983 309.304L547.802 311.814C547.776 311.83 547.75 311.845 547.723 311.86C547.343 312.063 546.9 312.117 546.482 312.012Z" fill="white"/>
<path d="M184.578 116.757C190.99 115.855 195.456 109.926 194.554 103.514C193.652 97.1024 187.723 92.6361 181.312 93.5382C174.9 94.4403 170.434 100.369 171.336 106.781C172.238 113.193 178.167 117.659 184.578 116.757Z" fill="#26CB6F"/>
<path d="M182.974 108.986C182.746 108.989 182.519 108.948 182.307 108.864C182.095 108.779 181.901 108.654 181.737 108.495L179.231 106.083C178.898 105.763 178.706 105.323 178.697 104.861C178.688 104.399 178.863 103.952 179.183 103.619C179.503 103.286 179.943 103.093 180.405 103.084C180.867 103.075 181.314 103.25 181.647 103.571L182.896 104.777L185.079 102.524C185.4 102.191 185.84 102 186.302 101.992C186.764 101.984 187.21 102.16 187.543 102.481C187.875 102.802 188.067 103.242 188.075 103.704C188.083 104.166 187.907 104.612 187.586 104.945L184.198 108.452C184.177 108.474 184.156 108.496 184.134 108.517C183.819 108.811 183.405 108.978 182.974 108.986Z" fill="white"/>
<path d="M476.894 124.734C468.806 124.452 462.021 130.779 461.739 138.866C461.456 146.954 467.784 153.739 475.871 154.021C483.958 154.303 490.743 147.976 491.025 139.889C491.308 131.802 484.981 125.017 476.894 124.734Z" fill="#AFAFC7"/>
<path d="M475.758 132.938L476.37 138.766" stroke="#F4F4FA" stroke-width="3.68393" stroke-linecap="round"/>
<path d="M32.2905 320.657C24.2762 319.53 16.8653 325.112 15.7377 333.126C14.6101 341.141 20.1928 348.552 28.2071 349.679C36.2213 350.807 43.6322 345.224 44.7598 337.21C45.8874 329.196 40.3047 321.785 32.2905 320.657Z" fill="#AFAFC7"/>
<path d="M34.942 330.416L26.6518 338.704" stroke="#FBFBFE" stroke-width="2.45625" stroke-linecap="round"/>
<path d="M26.653 330.414L34.9411 338.706" stroke="#FBFBFE" stroke-width="2.45625" stroke-linecap="round"/>
<path d="M552.55 309.222C552.55 309.222 585.672 389.824 564.367 407.245C543.063 424.665 496.416 395.029 464.558 398.486C432.701 401.944 449.432 436.81 449.432 436.81" stroke="#AFAFC7" stroke-width="1.22812" stroke-dasharray="3.68 3.68"/>
<path d="M235.76 440.461C235.76 440.461 212.131 338.408 160.706 381.813C109.281 425.219 128.336 371.469 114.191 342.715C100.046 313.962 46.0442 342.704 46.0442 342.704" stroke="#AFAFC7" stroke-width="1.22812" stroke-dasharray="3.68 3.68"/>
<path d="M429.188 245.461C429.188 245.461 457.948 225.808 437.196 181.915C416.444 138.022 470.39 144.25 470.39 144.25" stroke="#AFAFC7" stroke-width="1.22812" stroke-dasharray="3.68 3.68"/>
<path d="M247.393 248.906C247.393 248.906 144.863 245.711 198.954 196.706C253.045 147.701 218.346 131.468 218.346 131.468" stroke="#AFAFC7" stroke-width="1.22812" stroke-dasharray="3.68 3.68"/>
</g>
</g>
<defs>
<clipPath id="clip0_3_631">
<rect width="683.984" height="558.73" fill="white" transform="translate(0.00811768 0.659943)"/>
</clipPath>
</defs>
</svg>
