<svg width="684" height="559" viewBox="0 0 684 559" fill="none" xmlns="http://www.w3.org/2000/svg">
<g clip-path="url(#clip0_3_57)">
<mask id="mask0_3_57" style="mask-type:luminance" maskUnits="userSpaceOnUse" x="0" y="0" width="684" height="559">
<path d="M683.992 0.0200195H0.00811768V558.75H683.992V0.0200195Z" fill="white"/>
</mask>
<g mask="url(#mask0_3_57)">
<path d="M603.035 217.372H116.756C99.1227 217.372 84.8283 231.666 84.8283 249.299C84.8283 266.933 99.1227 281.227 116.756 281.227H603.035C620.668 281.227 634.962 266.933 634.962 249.299C634.962 231.666 620.668 217.372 603.035 217.372Z" fill="#FBFBFE"/>
<path d="M646.014 281.227H125.352C107.04 281.227 92.1961 296.071 92.1961 314.382C92.1961 332.693 107.04 347.538 125.352 347.538H646.014C664.325 347.538 679.17 332.693 679.17 314.382C679.17 296.071 664.325 281.227 646.014 281.227Z" fill="#FBFBFE"/>
<path d="M561.898 347.538H36.3231C19.0292 347.538 5.0097 361.557 5.0097 378.851C5.0097 396.145 19.0292 410.165 36.3231 410.165H561.898C579.192 410.165 593.211 396.145 593.211 378.851C593.211 361.557 579.192 347.538 561.898 347.538Z" fill="#FBFBFE"/>
<path d="M591.983 410.165H106.932C88.6207 410.165 73.7765 425.009 73.7765 443.32C73.7765 461.631 88.6207 476.475 106.932 476.475H591.983C610.294 476.475 625.139 461.631 625.139 443.32C625.139 425.009 610.294 410.165 591.983 410.165Z" fill="#FBFBFE"/>
<path d="M205.17 271.403H467.957C470.888 271.403 473.7 272.567 475.772 274.64C477.845 276.713 479.009 279.524 479.009 282.455V455.6C479.009 455.925 478.88 456.238 478.65 456.468C478.419 456.698 478.107 456.828 477.781 456.828H195.346C195.021 456.828 194.708 456.698 194.478 456.468C194.248 456.238 194.118 455.925 194.118 455.6V282.455C194.118 279.524 195.283 276.713 197.355 274.64C199.428 272.567 202.239 271.403 205.17 271.403Z" stroke="#AFAFC7" stroke-width="2.45596"/>
<path d="M227.274 291.051H444.626C447.557 291.051 450.368 292.215 452.441 294.288C454.513 296.36 455.678 299.171 455.678 302.103V455.6C455.678 455.926 455.548 456.238 455.318 456.468C455.088 456.698 454.775 456.828 454.45 456.828H217.45C217.124 456.828 216.812 456.698 216.582 456.468C216.351 456.238 216.222 455.926 216.222 455.6V302.103C216.222 299.171 217.386 296.36 219.459 294.288C221.531 292.215 224.343 291.051 227.274 291.051Z" stroke="#AFAFC7" stroke-width="2.45596"/>
<path d="M161.691 456.828H512.664C512.76 456.828 512.855 456.847 512.943 456.883C513.031 456.92 513.112 456.974 513.179 457.041C513.247 457.109 513.301 457.189 513.337 457.277C513.374 457.366 513.393 457.46 513.393 457.556V459.738C513.393 464.177 511.629 468.434 508.49 471.573C505.351 474.712 501.094 476.476 496.655 476.476H179.882C174.865 476.476 170.052 474.482 166.504 470.934C162.956 467.386 160.963 462.574 160.963 457.556C160.963 457.363 161.04 457.178 161.176 457.041C161.313 456.905 161.498 456.828 161.691 456.828Z" stroke="#AFAFC7" stroke-width="2.45596"/>
<path d="M110.788 347.202L54.0825 339.232L59.1685 303.044L89.0347 307.241L115.874 311.013L110.788 347.202Z" fill="white"/>
<path d="M60.2137 304.431L55.4695 338.187L109.743 345.815L114.487 312.058L88.8638 308.457L60.2137 304.431ZM58.1234 301.657L89.2056 306.025L117.261 309.968L111.834 348.589L52.6956 340.277L58.1234 301.657Z" fill="#AFAFC7"/>
<path d="M61.5232 303.786L85.1894 325.73L61.5232 303.786Z" fill="white"/>
<path d="M61.5232 303.786L85.1894 325.73" stroke="#AFAFC7" stroke-width="2.45596" stroke-linecap="round"/>
<path d="M113.485 311.089L85.2843 325.699L113.485 311.089Z" fill="white"/>
<path d="M113.485 311.089L85.2843 325.699" stroke="#AFAFC7" stroke-width="2.45596" stroke-linecap="round"/>
<path d="M571.754 207.321L516.709 223.105L506.636 187.976L535.627 179.663L561.681 172.192L571.754 207.321Z" fill="white"/>
<path d="M508.155 188.818L517.551 221.586L570.235 206.479L560.839 173.711L535.966 180.843L508.155 188.818ZM505.117 187.134L535.289 178.483L562.523 170.673L573.273 208.163L515.867 224.624L505.117 187.134Z" fill="#AFAFC7"/>
<path d="M509.089 187.697L539.635 198.118L509.089 187.697Z" fill="white"/>
<path d="M509.089 187.697L539.635 198.118" stroke="#AFAFC7" stroke-width="2.45596" stroke-linecap="round"/>
<path d="M559.529 173.233L539.709 198.051L559.529 173.233Z" fill="white"/>
<path d="M559.529 173.233L539.709 198.051" stroke="#AFAFC7" stroke-width="2.45596" stroke-linecap="round"/>
<path d="M447.252 153.918L398.488 139.935L407.384 108.908L433.075 116.275L456.148 122.891L447.252 153.918Z" fill="white"/>
<path d="M408.226 110.427L400.007 139.093L446.41 152.399L454.629 123.733L432.736 117.455L408.226 110.427ZM406.543 107.389L433.413 115.094L457.667 122.049L448.093 155.437L396.969 140.777L406.543 107.389Z" fill="#AFAFC7"/>
<path d="M409.277 109.689L427.43 131.975L409.277 109.689Z" fill="white"/>
<path d="M409.277 109.689L427.43 131.975" stroke="#AFAFC7" stroke-width="2.45596" stroke-linecap="round"/>
<path d="M454.199 122.57L427.517 131.959L454.199 122.57Z" fill="white"/>
<path d="M454.199 122.57L427.517 131.959" stroke="#AFAFC7" stroke-width="2.45596" stroke-linecap="round"/>
<path d="M604.997 353.256L535.763 333.404L548.68 288.36L591.649 267.809L617.911 308.219L604.997 353.256Z" fill="white"/>
<path d="M591.206 269.382L549.708 289.229L537.282 332.562L604.155 351.737L616.576 308.419L591.206 269.382ZM592.091 266.237L619.246 308.02L605.839 354.775L534.244 334.246L547.651 287.49L592.091 266.237Z" fill="#AFAFC7"/>
<path d="M548.577 289.579L588.387 331.48" stroke="#AFAFC7" stroke-width="2.45596" stroke-linecap="round"/>
<path d="M616.912 308.085L577.227 319.896" stroke="#AFAFC7" stroke-width="2.45596" stroke-linecap="round"/>
<path d="M609.596 366.334C617.609 365.208 623.192 357.799 622.066 349.785C620.94 341.772 613.531 336.189 605.517 337.315C597.504 338.441 591.921 345.85 593.047 353.864C594.173 361.877 601.582 367.461 609.596 366.334Z" fill="#AFAFC7"/>
<path d="M604.092 347.071L612.38 355.36" stroke="#FBFBFE" stroke-width="2.45596" stroke-linecap="round"/>
<path d="M612.38 347.072L604.092 355.361" stroke="#FBFBFE" stroke-width="2.45596" stroke-linecap="round"/>
<path d="M133.45 216.782L92.993 230.712L83.953 204.458L97.86 179.817L124.413 190.535L133.45 216.782Z" fill="white"/>
<path d="M98.3997 181.359L85.2939 204.58L93.7543 229.151L131.889 216.02L123.434 191.464L98.3997 181.359ZM97.3203 178.275L125.391 189.605L135.011 217.543L92.2317 232.273L82.6121 204.335L97.3203 178.275Z" fill="#AFAFC7"/>
<path d="M83.0657 205.653L116.498 212.737" stroke="#AFAFC7" stroke-width="2.45596" stroke-linecap="round"/>
<path d="M123.251 191.507L108.661 210.502" stroke="#AFAFC7" stroke-width="2.45596" stroke-linecap="round"/>
<path d="M289.86 139.234L235.456 130.617L241.055 95.262L271.756 75.6581L295.459 103.886L289.86 139.234Z" fill="white"/>
<path d="M271.509 77.2731L242.182 95.9998L236.861 129.597L288.84 137.829L294.158 104.247L271.509 77.2731ZM272.004 74.0432L296.759 103.525L290.881 140.639L234.051 131.638L239.929 94.5244L272.004 74.0432Z" fill="#AFAFC7"/>
<path d="M239.652 96.2751L272.963 124.19" stroke="#AFAFC7" stroke-width="2.45596"/>
<path d="M296.271 102.853L265.497 117.001" stroke="#AFAFC7" stroke-width="2.45596"/>
<path d="M418.837 197.725H251.832C247.763 197.725 244.464 201.023 244.464 205.092V424.899C244.464 428.968 247.763 432.267 251.832 432.267H418.837C422.906 432.267 426.205 428.968 426.205 424.899V205.092C426.205 201.023 422.906 197.725 418.837 197.725Z" fill="#F4F4FA"/>
<path d="M418.837 198.953H251.832C248.441 198.953 245.692 201.702 245.692 205.093V424.899C245.692 428.29 248.441 431.039 251.832 431.039H418.837C422.228 431.039 424.977 428.29 424.977 424.899V205.093C424.977 201.702 422.228 198.953 418.837 198.953Z" stroke="#AFAFC7" stroke-width="2.45596"/>
<g opacity="0.87">
<path opacity="0.9" d="M318.054 240.704H260.339V248.072H318.054V240.704Z" fill="#AFAFC7"/>
<path opacity="0.9" d="M405.241 240.704H383.137V248.072H405.241V240.704Z" fill="#AFAFC7"/>
<path d="M341.386 240.704H326.65V248.072H341.386V240.704Z" fill="#FC676A"/>
<path d="M358.578 240.704H349.982V248.072H358.578V240.704Z" fill="#F88227"/>
<path d="M374.541 240.704H365.946V248.072H374.541V240.704Z" fill="#26CB6F"/>
</g>
<g opacity="0.87">
<path opacity="0.9" d="M318.054 255.439H260.339V262.807H318.054V255.439Z" fill="#AFAFC7"/>
<path opacity="0.9" d="M405.241 255.439H383.137V262.807H405.241V255.439Z" fill="#AFAFC7"/>
<path d="M341.386 255.439H326.65V262.807H341.386V255.439Z" fill="#26CB6F"/>
<path d="M358.578 255.439H349.982V262.807H358.578V255.439Z" fill="#F88227"/>
<path d="M374.541 255.439H365.946V262.807H374.541V255.439Z" fill="#F88227"/>
</g>
<g opacity="0.87">
<path opacity="0.9" d="M318.054 270.175H260.339V277.543H318.054V270.175Z" fill="#AFAFC7"/>
<path opacity="0.9" d="M405.241 270.175H383.137V277.543H405.241V270.175Z" fill="#AFAFC7"/>
<path d="M341.386 270.175H326.65V277.543H341.386V270.175Z" fill="#26CB6F"/>
<path d="M358.578 270.175H349.982V277.543H358.578V270.175Z" fill="#26CB6F"/>
<path d="M374.541 270.175H365.946V277.543H374.541V270.175Z" fill="#26CB6F"/>
</g>
<g opacity="0.87">
<path opacity="0.9" d="M318.054 284.911H260.339V292.279H318.054V284.911Z" fill="#AFAFC7"/>
<path opacity="0.9" d="M405.241 284.911H383.137V292.279H405.241V284.911Z" fill="#AFAFC7"/>
<path d="M341.386 284.911H326.65V292.279H341.386V284.911Z" fill="#FC676A"/>
<path d="M358.578 284.911H349.982V292.279H358.578V284.911Z" fill="#FC676A"/>
<path d="M374.541 284.911H365.946V292.279H374.541V284.911Z" fill="#26CB6F"/>
</g>
<g opacity="0.87">
<path opacity="0.9" d="M318.054 299.647H260.339V307.015H318.054V299.647Z" fill="#AFAFC7"/>
<path opacity="0.9" d="M405.241 299.647H383.137V307.015H405.241V299.647Z" fill="#AFAFC7"/>
<path d="M341.386 299.647H326.65V307.015H341.386V299.647Z" fill="#FC676A"/>
<path d="M358.578 299.647H349.982V307.015H358.578V299.647Z" fill="#F88227"/>
<path d="M374.541 299.647H365.946V307.015H374.541V299.647Z" fill="#FC676A"/>
</g>
<g opacity="0.87">
<path opacity="0.9" d="M318.054 314.383H260.339V321.75H318.054V314.383Z" fill="#AFAFC7"/>
<path opacity="0.9" d="M405.241 314.383H383.137V321.75H405.241V314.383Z" fill="#AFAFC7"/>
<path d="M341.386 314.383H326.65V321.75H341.386V314.383Z" fill="#26CB6F"/>
<path d="M358.578 314.383H349.982V321.75H358.578V314.383Z" fill="#F88227"/>
<path d="M374.541 314.383H365.946V321.75H374.541V314.383Z" fill="#26CB6F"/>
</g>
<g opacity="0.87">
<path opacity="0.9" d="M318.054 329.118H260.339V336.486H318.054V329.118Z" fill="#AFAFC7"/>
<path opacity="0.9" d="M405.241 329.118H383.137V336.486H405.241V329.118Z" fill="#AFAFC7"/>
<path d="M341.386 329.118H326.65V336.486H341.386V329.118Z" fill="#FC676A"/>
<path d="M358.578 329.118H349.982V336.486H358.578V329.118Z" fill="#F88227"/>
<path d="M374.541 329.118H365.946V336.486H374.541V329.118Z" fill="#26CB6F"/>
</g>
<path d="M415.679 210.618H253.586V343.24H415.679V210.618Z" stroke="#AFAFC7" stroke-width="1.22798"/>
<path d="M381.909 216.144H260.339V223.512H381.909V216.144Z" fill="#AFAFC7"/>
<path d="M399.829 217.99L397.211 220.607C397.131 220.687 397.086 220.795 397.086 220.909C397.086 221.022 397.131 221.131 397.211 221.211C397.291 221.291 397.4 221.336 397.513 221.336C397.626 221.336 397.735 221.291 397.815 221.211L400.13 218.894L402.445 221.211C402.525 221.291 402.633 221.336 402.746 221.336C402.859 221.336 402.968 221.291 403.048 221.211C403.128 221.131 403.173 221.022 403.173 220.909C403.173 220.796 403.128 220.688 403.048 220.608L400.432 217.992C400.393 217.953 400.346 217.921 400.294 217.9C400.242 217.878 400.187 217.867 400.131 217.867C400.075 217.867 400.019 217.878 399.967 217.9C399.916 217.921 399.869 217.953 399.829 217.992V217.99Z" fill="#AFAFC7" stroke="#AFAFC7" stroke-width="1.22798"/>
<path d="M253.586 230.266H415.679" stroke="#AFAFC7" stroke-width="1.22798"/>
<mask id="mask1_3_57" style="mask-type:luminance" maskUnits="userSpaceOnUse" x="252" y="348" width="165" height="70">
<path d="M416.293 348.766H252.972V417.533H416.293V348.766Z" fill="white"/>
</mask>
<g mask="url(#mask1_3_57)">
<g opacity="0.6">
<path d="M415.679 349.38H253.586V367.8H415.679V349.38Z" stroke="#AFAFC7" stroke-width="1.22798"/>
<path d="M381.909 354.906H260.339V362.274H381.909V354.906Z" fill="#AFAFC7"/>
<path d="M399.736 360.47L396.307 357.041C396.209 356.935 396.156 356.795 396.159 356.651C396.161 356.506 396.22 356.369 396.322 356.266C396.424 356.164 396.562 356.106 396.706 356.103C396.851 356.1 396.991 356.153 397.097 356.252L400.131 359.286L403.164 356.252C403.27 356.153 403.41 356.1 403.555 356.103C403.699 356.106 403.837 356.164 403.939 356.266C404.041 356.369 404.1 356.506 404.103 356.651C404.105 356.795 404.052 356.935 403.954 357.041L400.525 360.47C400.421 360.574 400.279 360.633 400.131 360.633C399.983 360.633 399.841 360.574 399.736 360.47Z" fill="#AFAFC7" stroke="#AFAFC7" stroke-width="1.22798"/>
</g>
<g opacity="0.6">
<path d="M415.679 373.939H253.586V392.359H415.679V373.939Z" stroke="#AFAFC7" stroke-width="1.22798"/>
<path d="M381.909 379.465H260.339V386.833H381.909V379.465Z" fill="#AFAFC7"/>
<path d="M399.736 385.029L396.307 381.601C396.209 381.495 396.156 381.355 396.159 381.21C396.161 381.066 396.22 380.928 396.322 380.826C396.424 380.724 396.562 380.665 396.706 380.662C396.851 380.66 396.991 380.713 397.097 380.811L400.131 383.846L403.164 380.811C403.27 380.713 403.41 380.66 403.555 380.662C403.699 380.665 403.837 380.724 403.939 380.826C404.041 380.928 404.1 381.066 404.103 381.21C404.105 381.355 404.052 381.495 403.954 381.601L400.525 385.029C400.421 385.134 400.279 385.193 400.131 385.193C399.983 385.193 399.841 385.134 399.736 385.029Z" fill="#AFAFC7" stroke="#AFAFC7" stroke-width="1.22798"/>
</g>
<g opacity="0.6">
<path d="M415.679 398.499H253.586V416.919H415.679V398.499Z" stroke="#AFAFC7" stroke-width="1.22798"/>
<path d="M381.909 404.025H260.339V411.393H381.909V404.025Z" fill="#AFAFC7"/>
<path d="M399.736 409.589L396.307 406.16C396.209 406.054 396.156 405.914 396.159 405.77C396.161 405.626 396.22 405.488 396.322 405.386C396.424 405.283 396.562 405.225 396.706 405.222C396.851 405.219 396.991 405.273 397.097 405.371L400.131 408.405L403.164 405.371C403.27 405.273 403.41 405.219 403.555 405.222C403.699 405.225 403.837 405.283 403.939 405.386C404.041 405.488 404.1 405.626 404.103 405.77C404.105 405.914 404.052 406.054 403.954 406.16L400.525 409.589C400.421 409.694 400.279 409.752 400.131 409.752C399.983 409.752 399.841 409.694 399.736 409.589Z" fill="#AFAFC7" stroke="#AFAFC7" stroke-width="1.22798"/>
</g>
</g>
<path d="M104.923 356.132C111.349 356.921 117.198 352.352 117.987 345.926C118.776 339.5 114.206 333.652 107.78 332.863C101.354 332.074 95.5057 336.643 94.7167 343.069C93.9278 349.495 98.4973 355.343 104.923 356.132Z" fill="#26CB6F"/>
<path d="M105.388 348.213C105.166 348.157 104.958 348.059 104.775 347.922C104.591 347.786 104.437 347.615 104.32 347.419L102.524 344.44C102.406 344.244 102.327 344.027 102.293 343.801C102.258 343.575 102.269 343.344 102.324 343.122C102.435 342.673 102.719 342.287 103.115 342.048C103.51 341.809 103.984 341.737 104.433 341.848C104.882 341.959 105.268 342.243 105.507 342.639L106.401 344.127L109.093 342.517C109.489 342.288 109.959 342.224 110.402 342.338C110.844 342.452 111.224 342.736 111.46 343.128C111.695 343.52 111.767 343.989 111.66 344.433C111.553 344.878 111.275 345.262 110.887 345.504L106.707 348.014C106.681 348.03 106.654 348.045 106.628 348.06C106.248 348.263 105.806 348.317 105.388 348.213Z" fill="white"/>
<path d="M286.745 148.046C293.157 147.144 297.623 141.215 296.721 134.803C295.819 128.391 289.89 123.925 283.478 124.827C277.067 125.729 272.6 131.658 273.502 138.07C274.404 144.481 280.333 148.948 286.745 148.046Z" fill="#26CB6F"/>
<path d="M285.142 140.274C284.914 140.278 284.687 140.237 284.475 140.152C284.263 140.068 284.069 139.943 283.905 139.784L281.399 137.372C281.234 137.213 281.102 137.024 281.01 136.814C280.919 136.605 280.869 136.379 280.864 136.15C280.855 135.688 281.03 135.241 281.35 134.908C281.67 134.575 282.11 134.383 282.572 134.374C283.034 134.364 283.48 134.539 283.814 134.859L285.063 136.066L287.246 133.813C287.569 133.489 288.007 133.305 288.464 133.301C288.921 133.297 289.361 133.473 289.69 133.79C290.019 134.108 290.21 134.542 290.222 134.999C290.233 135.456 290.065 135.899 289.753 136.233L286.365 139.741C286.344 139.763 286.322 139.784 286.301 139.806C285.986 140.1 285.573 140.267 285.142 140.274Z" fill="white"/>
<path d="M455.756 134.829C463.77 133.701 469.353 126.29 468.225 118.276C467.097 110.262 459.686 104.679 451.672 105.807C443.658 106.934 438.075 114.345 439.203 122.359C440.33 130.374 447.741 135.956 455.756 134.829Z" fill="#AFAFC7"/>
<path d="M453.661 113.847L453.662 119.708" stroke="#F4F4FA" stroke-width="3.68437" stroke-linecap="round"/>
<path d="M77.7299 219.811C85.7441 218.684 91.3268 211.273 90.1992 203.258C89.0716 195.244 81.6607 189.662 73.6465 190.789C65.6323 191.917 60.0495 199.328 61.1771 207.342C62.3047 215.356 69.7156 220.939 77.7299 219.811Z" fill="#AFAFC7"/>
<path d="M80.7639 204.692L72.0482 204.974" stroke="#F4F4FA" stroke-width="3.68437" stroke-linecap="round"/>
<path d="M78.3055 343.856C78.3055 343.856 52.239 406.409 73.5456 423.838C94.8523 441.266 141.494 411.616 173.353 415.073C205.212 418.53 188.479 453.397 188.479 453.397" stroke="#AFAFC7" stroke-width="1.22812" stroke-dasharray="3.68 3.68"/>
<path d="M430.124 380.234C430.124 380.234 494.537 438.925 518.199 424.864C541.861 410.803 532.09 365.753 546.235 336.998" stroke="#AFAFC7" stroke-width="1.22812" stroke-dasharray="3.68 3.68"/>
<path d="M452.109 269.977C452.109 269.977 527.32 277.57 492.262 181.549C457.204 85.5282 533.448 180.443 533.448 180.443" stroke="#AFAFC7" stroke-width="1.22812" stroke-dasharray="3.68 3.68"/>
<path d="M192.686 341.001C192.686 341.001 129.609 287.888 164.637 191.857C199.666 95.8263 123.451 190.764 123.451 190.764" stroke="#AFAFC7" stroke-width="1.22812" stroke-dasharray="3.68 3.68"/>
<path d="M327.296 198.166C327.296 198.166 292.25 194.074 327.282 98.0469C362.313 2.02005 286.093 96.9554 286.093 96.9554" stroke="#AFAFC7" stroke-width="1.22812" stroke-dasharray="3.68 3.68"/>
<path d="M423.378 270.825C423.378 270.825 494.359 240.391 440.266 191.386C386.174 142.382 423.358 146.915 423.358 146.915" stroke="#AFAFC7" stroke-width="1.22812" stroke-dasharray="3.68 3.68"/>
<path d="M578.501 213.778C583.991 210.347 585.661 203.115 582.23 197.625C578.799 192.135 571.568 190.465 566.077 193.896C560.587 197.327 558.917 204.558 562.348 210.049C565.779 215.539 573.011 217.209 578.501 213.778Z" fill="#26CB6F"/>
<path d="M573.878 207.331C573.671 207.427 573.447 207.482 573.219 207.491C572.991 207.5 572.763 207.465 572.549 207.386L569.278 206.201C569.063 206.123 568.865 206.004 568.696 205.85C568.527 205.696 568.39 205.51 568.293 205.302C568.097 204.884 568.075 204.405 568.232 203.97C568.389 203.536 568.712 203.181 569.131 202.985C569.549 202.789 570.028 202.767 570.463 202.924L572.095 203.518L573.173 200.572C573.337 200.145 573.662 199.8 574.078 199.61C574.494 199.42 574.967 199.401 575.397 199.558C575.827 199.714 576.178 200.033 576.374 200.446C576.571 200.859 576.597 201.333 576.447 201.765L574.778 206.346C574.768 206.375 574.757 206.404 574.746 206.432C574.578 206.829 574.269 207.149 573.878 207.331Z" fill="white"/>
</g>
</g>
<defs>
<clipPath id="clip0_3_57">
<rect width="683.984" height="558.73" fill="white" transform="translate(0.00811768 0.0200195)"/>
</clipPath>
</defs>
</svg>
