<svg width="684" height="560" viewBox="0 0 684 560" fill="none" xmlns="http://www.w3.org/2000/svg">
<g clip-path="url(#clip0_3_742)">
<mask id="mask0_3_742" style="mask-type:luminance" maskUnits="userSpaceOnUse" x="0" y="0" width="684" height="560">
<path d="M683.992 0.359863H0.00811768V559.09H683.992V0.359863Z" fill="white"/>
</mask>
<g mask="url(#mask0_3_742)">
<path d="M602.945 168.593H116.666C99.033 168.593 84.7386 182.887 84.7386 200.52C84.7386 218.153 99.033 232.448 116.666 232.448H602.945C620.578 232.448 634.873 218.153 634.873 200.52C634.873 182.887 620.578 168.593 602.945 168.593Z" fill="#FBFBFE"/>
<path d="M645.925 232.448H125.262C106.951 232.448 92.1064 247.292 92.1064 265.603C92.1064 283.914 106.951 298.759 125.262 298.759H645.925C664.236 298.759 679.08 283.914 679.08 265.603C679.08 247.292 664.236 232.448 645.925 232.448Z" fill="#FBFBFE"/>
<path d="M561.808 298.759H36.2334C18.9395 298.759 4.91998 312.778 4.91998 330.072C4.91998 347.366 18.9395 361.385 36.2334 361.385H561.808C579.102 361.385 593.121 347.366 593.121 330.072C593.121 312.778 579.102 298.759 561.808 298.759Z" fill="#FBFBFE"/>
<path d="M591.893 361.385H106.842C88.5309 361.385 73.6868 376.23 73.6868 394.541C73.6868 412.852 88.5309 427.696 106.842 427.696H591.893C610.205 427.696 625.049 412.852 625.049 394.541C625.049 376.23 610.205 361.385 591.893 361.385Z" fill="#FBFBFE"/>
<path d="M209.992 222.624H472.78C475.711 222.624 478.522 223.788 480.594 225.861C482.667 227.934 483.831 230.745 483.831 233.676V406.821C483.831 407.146 483.702 407.459 483.472 407.689C483.241 407.919 482.929 408.049 482.603 408.049H200.168C199.843 408.049 199.53 407.919 199.3 407.689C199.07 407.459 198.94 407.146 198.94 406.821V233.676C198.94 230.745 200.105 227.934 202.177 225.861C204.25 223.788 207.061 222.624 209.992 222.624Z" stroke="#AFAFC7" stroke-width="2.45596"/>
<path d="M232.096 242.272H449.448C452.379 242.272 455.19 243.436 457.263 245.509C459.335 247.581 460.5 250.392 460.5 253.323V406.821C460.5 407.146 460.37 407.459 460.14 407.689C459.91 407.919 459.598 408.049 459.272 408.049H222.272C221.946 408.049 221.634 407.919 221.404 407.689C221.174 407.459 221.044 407.146 221.044 406.821V253.323C221.044 250.392 222.209 247.581 224.281 245.509C226.354 243.436 229.165 242.272 232.096 242.272Z" stroke="#AFAFC7" stroke-width="2.45596"/>
<path d="M166.513 408.049H517.487C517.582 408.049 517.677 408.067 517.765 408.104C517.854 408.141 517.934 408.194 518.002 408.262C518.069 408.329 518.123 408.41 518.159 408.498C518.196 408.586 518.215 408.681 518.215 408.777V410.959C518.215 415.398 516.451 419.655 513.313 422.794C510.174 425.933 505.916 427.696 501.477 427.696H184.705C179.687 427.696 174.875 425.703 171.326 422.155C167.778 418.607 165.785 413.795 165.785 408.777C165.785 408.584 165.862 408.398 165.998 408.262C166.135 408.125 166.32 408.049 166.513 408.049Z" stroke="#AFAFC7" stroke-width="2.45596"/>
<path d="M510.847 307.354H168.241V340.51H510.847V307.354Z" fill="white"/>
<path d="M510.233 307.968H168.855V339.896H510.233V307.968Z" stroke="#AFAFC7" stroke-width="1.22798"/>
<path d="M233.324 319.634H184.205V329.458H233.324V319.634Z" fill="#AFAFC7"/>
<path opacity="0.5" d="M292.267 319.634H243.148V329.458H292.267V319.634Z" fill="#AFAFC7"/>
<path d="M346.298 319.634H326.65V329.458H346.298V319.634Z" fill="#26CB6F"/>
<path d="M375.769 319.634H356.122V329.458H375.769V319.634Z" fill="#26CB6F"/>
<path d="M405.241 319.634H385.593V329.458H405.241V319.634Z" fill="#26CB6F"/>
<path d="M424.888 319.634H415.065V329.458H424.888V319.634Z" fill="#FC676A"/>
<path d="M465.554 319.732V329.458H463.58V322.213C463.578 322.09 463.583 321.967 463.594 321.844C463.248 322.164 462.864 322.441 462.452 322.67C462.07 322.886 461.655 323.04 461.224 323.126L460.957 321.412C461.535 321.318 462.089 321.11 462.587 320.801C463.099 320.544 463.549 320.179 463.906 319.732H465.554ZM475.236 329.605C474.593 329.677 473.942 329.585 473.344 329.338C472.746 329.091 472.221 328.696 471.817 328.191L472.996 326.982C473.161 327.372 473.462 327.689 473.843 327.874C474.273 328.058 474.738 328.146 475.206 328.132C475.549 328.149 475.892 328.088 476.208 327.955C476.309 327.918 476.397 327.851 476.46 327.764C476.523 327.676 476.559 327.572 476.562 327.464C476.562 327.3 476.451 327.157 476.23 327.036C475.866 326.874 475.482 326.76 475.088 326.697C474.239 326.584 473.425 326.281 472.708 325.811C472.485 325.633 472.306 325.405 472.187 325.145C472.068 324.885 472.012 324.601 472.023 324.315C472.026 323.896 472.162 323.488 472.411 323.151C472.702 322.76 473.094 322.457 473.546 322.274C474.116 322.04 474.728 321.927 475.344 321.943C476.031 321.915 476.716 322.044 477.348 322.318C477.877 322.586 478.322 322.997 478.63 323.505L477.377 324.566C477.194 324.208 476.916 323.907 476.574 323.696C476.206 323.498 475.791 323.401 475.373 323.416C475.039 323.401 474.706 323.472 474.408 323.623C474.307 323.665 474.22 323.734 474.157 323.822C474.093 323.911 474.055 324.015 474.047 324.124C474.052 324.234 474.088 324.34 474.151 324.431C474.213 324.522 474.3 324.594 474.4 324.639C474.797 324.828 475.219 324.958 475.653 325.022C476.464 325.137 477.241 325.426 477.93 325.87C478.149 326.04 478.325 326.261 478.442 326.514C478.558 326.766 478.613 327.043 478.6 327.321C478.606 327.649 478.528 327.973 478.375 328.263C478.222 328.553 477.997 328.799 477.723 328.979C476.979 329.441 476.11 329.659 475.236 329.605ZM487.054 325.744C487.054 326.011 487.035 326.277 486.995 326.54H481.778C481.818 326.99 482.034 327.407 482.379 327.699C482.723 327.991 483.169 328.136 483.62 328.102C483.984 328.115 484.345 328.032 484.666 327.862C484.934 327.713 485.138 327.472 485.241 327.184L486.891 327.788C486.668 328.364 486.248 328.843 485.705 329.139C485.061 329.469 484.342 329.629 483.618 329.603C483.103 329.635 482.587 329.561 482.102 329.388C481.616 329.214 481.171 328.944 480.793 328.593C480.445 328.215 480.177 327.77 480.004 327.286C479.832 326.801 479.759 326.287 479.789 325.774C479.757 325.262 479.827 324.75 479.994 324.265C480.161 323.78 480.422 323.333 480.761 322.95C481.123 322.601 481.554 322.331 482.026 322.157C482.498 321.983 483 321.909 483.502 321.94C483.985 321.909 484.469 321.98 484.923 322.149C485.376 322.318 485.789 322.582 486.133 322.923C486.793 323.709 487.123 324.72 487.054 325.744ZM483.492 323.431C483.278 323.42 483.064 323.452 482.863 323.526C482.662 323.599 482.478 323.712 482.321 323.858C482.002 324.208 481.807 324.654 481.768 325.126H485.207C485.165 324.655 484.968 324.212 484.647 323.866C484.493 323.718 484.311 323.604 484.112 323.529C483.913 323.454 483.7 323.421 483.488 323.431H483.492ZM492.123 321.943C492.922 321.895 493.716 322.102 494.392 322.532C494.927 322.918 495.317 323.474 495.497 324.109L493.611 324.792C493.434 323.891 492.958 323.441 492.182 323.441C491.928 323.426 491.674 323.473 491.442 323.577C491.21 323.681 491.006 323.839 490.848 324.038C490.505 324.552 490.342 325.166 490.384 325.784C490.339 326.398 490.506 327.009 490.855 327.515C491.013 327.708 491.214 327.861 491.442 327.962C491.67 328.063 491.918 328.109 492.167 328.097C492.354 328.113 492.542 328.092 492.721 328.034C492.899 327.976 493.065 327.884 493.207 327.762C493.35 327.64 493.467 327.491 493.551 327.323C493.636 327.156 493.686 326.973 493.699 326.786L495.527 327.375C495.381 328.036 494.988 328.616 494.429 328.996C493.766 329.426 492.986 329.639 492.196 329.605C491.682 329.637 491.166 329.564 490.681 329.39C490.195 329.217 489.75 328.947 489.372 328.596C489.023 328.217 488.754 327.772 488.581 327.287C488.408 326.803 488.335 326.288 488.365 325.774C488.334 325.261 488.405 324.746 488.576 324.261C488.747 323.776 489.014 323.33 489.36 322.95C489.727 322.602 490.162 322.333 490.637 322.16C491.112 321.987 491.618 321.913 492.123 321.943Z" fill="#AFAFC7"/>
<path d="M73.6544 289.521C86.7099 336.967 167.961 325.092 167.961 325.092" stroke="#AFAFC7" stroke-width="1.22812" stroke-dasharray="3.68 3.68"/>
<path d="M65.9473 416.449C133.572 495.913 237.956 377.895 237.956 377.895" stroke="#AFAFC7" stroke-width="1.22812" stroke-dasharray="3.68 3.68"/>
<path d="M170.314 197.596C139.49 303.766 237.957 285.801 237.957 285.801" stroke="#AFAFC7" stroke-width="1.22812" stroke-dasharray="3.68 3.68"/>
<path d="M581.092 241.821C555.151 324.813 444.195 267.384 444.195 267.384" stroke="#AFAFC7" stroke-width="1.22812" stroke-dasharray="3.68 3.68"/>
<path d="M631.728 376.862C534.298 447.284 440.511 359.483 440.511 359.483" stroke="#AFAFC7" stroke-width="1.22812" stroke-dasharray="3.68 3.68"/>
<path d="M49.9032 249.639H48.5279V238.293H49.9032V249.639ZM57.9686 240.872C58.8485 240.838 59.7085 241.139 60.3754 241.714C60.7006 242.024 60.9537 242.402 61.1171 242.821C61.2805 243.24 61.3501 243.689 61.321 244.138V249.639H59.9456V244.619C60.0086 243.922 59.8026 243.227 59.3697 242.677C59.1697 242.474 58.9294 242.316 58.6643 242.212C58.3993 242.109 58.1154 242.062 57.8311 242.075C57.3836 242.072 56.9418 242.175 56.5417 242.376C56.1206 242.596 55.776 242.939 55.5532 243.358C55.2777 243.885 55.1443 244.475 55.1663 245.069V249.639H53.7935V241.043H54.9969L55.0828 242.384C55.3488 241.888 55.7637 241.489 56.2691 241.241C56.7997 240.989 57.3812 240.863 57.9686 240.872ZM69.1776 240.872C69.7133 240.847 70.2479 240.941 70.7429 241.148C71.2378 241.354 71.6808 241.668 72.04 242.066C72.7869 242.989 73.1631 244.156 73.0948 245.341C73.1624 246.527 72.7854 247.694 72.0375 248.616C71.6784 249.015 71.2354 249.328 70.7404 249.535C70.2455 249.742 69.7109 249.836 69.1751 249.811C68.5519 249.822 67.9372 249.665 67.3958 249.356C66.8972 249.076 66.4932 248.654 66.2353 248.144L66.1494 249.639H64.946V237.089H66.3188V242.384C66.5992 241.918 67.0001 241.537 67.4793 241.279C68.0003 241 68.5842 240.86 69.1751 240.872H69.1776ZM69.0204 248.608C69.3961 248.624 69.7705 248.553 70.1138 248.399C70.457 248.246 70.7596 248.014 70.9974 247.722C71.51 247.038 71.7664 246.195 71.7219 245.341C71.7671 244.488 71.5116 243.645 70.9999 242.96C70.7618 242.669 70.4588 242.437 70.1151 242.283C69.7714 242.129 69.3965 242.058 69.0204 242.075C68.6492 242.06 68.2795 242.13 67.9392 242.279C67.5989 242.428 67.2968 242.652 67.0556 242.935C66.5391 243.588 66.2773 244.406 66.3188 245.238V245.445C66.2773 246.276 66.5391 247.095 67.0556 247.748C67.2968 248.031 67.5989 248.255 67.9392 248.404C68.2795 248.553 68.6492 248.622 69.0204 248.608ZM79.9199 240.872C80.4836 240.841 81.0474 240.931 81.5735 241.136C82.0997 241.34 82.5763 241.655 82.9715 242.058C83.7518 242.968 84.148 244.145 84.0766 245.341C84.148 246.538 83.7518 247.715 82.9715 248.625C82.5763 249.028 82.0997 249.342 81.5735 249.547C81.0474 249.752 80.4836 249.842 79.9199 249.811C79.3562 249.842 78.7925 249.752 78.2663 249.547C77.7401 249.342 77.2636 249.028 76.8684 248.625C76.0881 247.715 75.6918 246.538 75.7632 245.341C75.6918 244.145 76.0881 242.968 76.8684 242.058C77.2636 241.655 77.7401 241.34 78.2663 241.136C78.7925 240.931 79.3562 240.841 79.9199 240.872ZM79.9199 242.058C79.5347 242.038 79.1501 242.107 78.7955 242.259C78.441 242.411 78.1258 242.642 77.8741 242.935C77.3484 243.623 77.087 244.477 77.1373 245.341C77.087 246.206 77.3484 247.06 77.8741 247.748C78.1258 248.041 78.441 248.271 78.7955 248.423C79.1501 248.575 79.5347 248.644 79.9199 248.625C80.3052 248.644 80.6898 248.575 81.0443 248.423C81.3989 248.271 81.714 248.041 81.9657 247.748C82.4914 247.06 82.7528 246.206 82.7025 245.341C82.7528 244.477 82.4914 243.623 81.9657 242.935C81.714 242.642 81.3989 242.411 81.0443 242.259C80.6898 242.107 80.3052 242.038 79.9199 242.058ZM92.212 249.639L89.8395 246.324L87.3983 249.639H85.8019L89.1027 245.307L86.0058 241.043H87.7249L89.9943 244.224L92.2292 241.043H93.8452L90.7335 245.255L93.8968 249.639H92.212Z" fill="#333348"/>
<path d="M52.9462 270.22V281.567H50.0923V273.126C49.3528 273.852 48.4216 274.352 47.408 274.567L47.1354 272.129C47.8244 272.023 48.4868 271.787 49.0866 271.432C49.672 271.145 50.1859 270.731 50.5909 270.22H52.9462ZM60.2698 281.739C57.1295 281.739 55.5593 279.79 55.5593 275.893C55.5593 271.997 57.1295 270.048 60.2698 270.048C63.4102 270.048 64.9804 271.997 64.9804 275.893C64.9804 279.79 63.4102 281.739 60.2698 281.739ZM60.2698 279.435C60.554 279.45 60.836 279.379 61.0795 279.232C61.3231 279.085 61.5171 278.868 61.6366 278.61C61.9725 277.746 62.1162 276.819 62.0578 275.893C62.1162 274.968 61.9725 274.041 61.6366 273.177C61.5164 272.92 61.3221 272.704 61.0785 272.558C60.835 272.412 60.5534 272.342 60.2698 272.357C59.9857 272.342 59.7037 272.413 59.4601 272.56C59.2165 272.707 59.0226 272.924 58.9031 273.182C58.5679 274.045 58.4242 274.97 58.4819 275.893C58.4234 276.819 58.5672 277.746 58.9031 278.61C59.0226 278.868 59.2165 279.085 59.4601 279.232C59.7037 279.379 59.9857 279.45 60.2698 279.435ZM71.857 281.739C68.7167 281.739 67.1465 279.79 67.1465 275.893C67.1465 271.997 68.7167 270.048 71.857 270.048C74.9974 270.048 76.5676 271.997 76.5676 275.893C76.5676 279.79 74.9974 281.739 71.857 281.739ZM71.857 279.435C72.1412 279.45 72.4232 279.379 72.6667 279.232C72.9103 279.085 73.1043 278.868 73.2238 278.61C73.5597 277.746 73.7034 276.819 73.645 275.893C73.7034 274.968 73.5597 274.041 73.2238 273.177C73.1036 272.92 72.9093 272.704 72.6657 272.558C72.4222 272.412 72.1406 272.342 71.857 272.357C71.5729 272.342 71.2909 272.413 71.0473 272.56C70.8037 272.707 70.6098 272.924 70.4903 273.182C70.1544 274.046 70.0106 274.973 70.0691 275.898C70.0125 276.822 70.1575 277.747 70.494 278.61C70.6132 278.867 70.8066 279.084 71.0495 279.231C71.2923 279.378 71.5735 279.449 71.857 279.435ZM81.6219 270.048C82.0488 270.029 82.475 270.098 82.8743 270.25C83.2735 270.402 83.6372 270.635 83.9428 270.934C84.2396 271.246 84.4703 271.614 84.6209 272.017C84.7716 272.421 84.8392 272.85 84.8196 273.28C84.8392 273.71 84.7716 274.14 84.6209 274.543C84.4703 274.947 84.2396 275.315 83.9428 275.627C83.6372 275.926 83.2735 276.158 82.8743 276.311C82.475 276.463 82.0488 276.532 81.6219 276.512C81.195 276.532 80.7688 276.463 80.3696 276.311C79.9703 276.158 79.6066 275.926 79.301 275.627C79.0042 275.315 78.7735 274.947 78.6229 274.543C78.4722 274.14 78.4046 273.71 78.4243 273.28C78.4046 272.85 78.4722 272.421 78.6229 272.017C78.7735 271.614 79.0042 271.246 79.301 270.934C79.6066 270.635 79.9703 270.402 80.3696 270.25C80.7688 270.098 81.195 270.029 81.6219 270.048ZM88.808 270.203H91.043L83.152 281.567H80.917L88.808 270.203ZM81.6219 272.008C81.4796 272.001 81.3377 272.028 81.2077 272.086C81.0777 272.144 80.9634 272.232 80.8741 272.343C80.6816 272.616 80.5876 272.947 80.6076 273.28C80.5876 273.614 80.6816 273.944 80.8741 274.217C80.9634 274.328 81.0777 274.417 81.2077 274.475C81.3377 274.533 81.4796 274.56 81.6219 274.553C81.7668 274.561 81.9117 274.535 82.0447 274.477C82.1776 274.419 82.2949 274.33 82.3869 274.217C82.5794 273.944 82.6734 273.614 82.6534 273.28C82.6734 272.947 82.5794 272.616 82.3869 272.343C82.2949 272.231 82.1776 272.142 82.0447 272.084C81.9117 272.026 81.7668 272 81.6219 272.008ZM90.3037 275.275C90.7306 275.255 91.1568 275.324 91.5561 275.476C91.9553 275.629 92.319 275.861 92.6246 276.16C92.9214 276.472 93.1521 276.84 93.3027 277.244C93.4534 277.647 93.521 278.077 93.5014 278.507C93.521 278.937 93.4534 279.366 93.3027 279.77C93.1521 280.173 92.9214 280.541 92.6246 280.853C92.319 281.152 91.9553 281.385 91.5561 281.537C91.1568 281.689 90.7306 281.758 90.3037 281.739C89.8769 281.758 89.4506 281.689 89.0514 281.537C88.6521 281.385 88.2885 281.152 87.9828 280.853C87.686 280.541 87.4554 280.173 87.3047 279.77C87.154 279.366 87.0864 278.937 87.1061 278.507C87.087 278.077 87.1548 277.648 87.3054 277.246C87.4561 276.843 87.6865 276.475 87.9828 276.164C88.2881 275.864 88.6517 275.631 89.0509 275.478C89.4502 275.325 89.8766 275.256 90.3037 275.275ZM90.3037 277.239C90.1588 277.231 90.0139 277.257 89.881 277.315C89.748 277.373 89.6307 277.462 89.5387 277.575C89.3462 277.848 89.2523 278.178 89.2722 278.512C89.2523 278.845 89.3462 279.175 89.5387 279.448C89.6307 279.561 89.748 279.65 89.881 279.708C90.0139 279.766 90.1588 279.792 90.3037 279.784C90.4486 279.792 90.5935 279.766 90.7265 279.708C90.8594 279.65 90.9767 279.561 91.0687 279.448C91.2612 279.175 91.3552 278.845 91.3352 278.512C91.3552 278.178 91.2612 277.848 91.0687 277.575C90.9772 277.461 90.8602 277.372 90.7272 277.312C90.5942 277.253 90.4491 277.227 90.3037 277.234V277.239Z" fill="#26CB6F"/>
<path d="M101.316 263.761H39.9174V288.321H101.316V263.761Z" stroke="#26CB6F" stroke-width="1.22798"/>
<path d="M150.597 158.769H149.222V147.422H150.597V158.769ZM158.663 150.001C159.543 149.968 160.403 150.269 161.07 150.844C161.395 151.154 161.648 151.532 161.811 151.951C161.975 152.369 162.044 152.819 162.015 153.268V158.769H160.64V153.749C160.703 153.052 160.497 152.357 160.064 151.806C159.864 151.604 159.624 151.446 159.359 151.342C159.093 151.238 158.81 151.191 158.525 151.205C158.078 151.202 157.636 151.305 157.236 151.505C156.815 151.726 156.47 152.068 156.247 152.488C155.972 153.015 155.839 153.604 155.861 154.198V158.769H154.488V150.173H155.691L155.777 151.514C156.043 151.018 156.458 150.618 156.963 150.371C157.494 150.119 158.075 149.992 158.663 150.001ZM169.872 150.001C170.408 149.976 170.942 150.071 171.437 150.277C171.932 150.484 172.375 150.798 172.734 151.196C173.481 152.118 173.857 153.286 173.789 154.471C173.857 155.656 173.48 156.824 172.732 157.746C172.373 158.144 171.93 158.458 171.435 158.665C170.94 158.871 170.405 158.966 169.869 158.941C169.246 158.952 168.631 158.794 168.09 158.485C167.591 158.205 167.187 157.784 166.93 157.273L166.844 158.769H165.64V146.219H167.013V151.514C167.293 151.048 167.694 150.666 168.173 150.409C168.694 150.13 169.278 149.989 169.869 150.001H169.872ZM169.715 157.737C170.09 157.754 170.465 157.683 170.808 157.529C171.151 157.375 171.454 157.143 171.692 156.852C172.204 156.168 172.461 155.325 172.416 154.471C172.461 153.617 172.206 152.775 171.694 152.09C171.456 151.798 171.153 151.566 170.809 151.413C170.466 151.259 170.091 151.188 169.715 151.205C169.343 151.19 168.974 151.26 168.633 151.409C168.293 151.557 167.991 151.782 167.75 152.064C167.233 152.717 166.972 153.536 167.013 154.368V154.574C166.972 155.406 167.233 156.225 167.75 156.878C167.991 157.16 168.293 157.385 168.633 157.533C168.974 157.682 169.343 157.752 169.715 157.737ZM180.614 150.001C181.178 149.971 181.742 150.061 182.268 150.265C182.794 150.47 183.27 150.784 183.666 151.187C184.446 152.097 184.842 153.275 184.771 154.471C184.842 155.667 184.446 156.845 183.666 157.755C183.27 158.158 182.794 158.472 182.268 158.677C181.742 158.881 181.178 158.971 180.614 158.941C180.05 158.971 179.487 158.881 178.961 158.677C178.434 158.472 177.958 158.158 177.563 157.755C176.782 156.845 176.386 155.667 176.457 154.471C176.386 153.275 176.782 152.097 177.563 151.187C177.958 150.784 178.434 150.47 178.961 150.265C179.487 150.061 180.05 149.971 180.614 150.001ZM180.614 151.187C180.229 151.168 179.844 151.237 179.49 151.389C179.135 151.541 178.82 151.772 178.568 152.064C178.043 152.752 177.781 153.606 177.832 154.471C177.781 155.336 178.043 156.19 178.568 156.878C178.82 157.17 179.135 157.401 179.49 157.553C179.844 157.705 180.229 157.774 180.614 157.755C180.999 157.774 181.384 157.705 181.739 157.553C182.093 157.401 182.408 157.17 182.66 156.878C183.186 156.19 183.447 155.336 183.397 154.471C183.447 153.606 183.186 152.752 182.66 152.064C182.408 151.772 182.093 151.541 181.739 151.389C181.384 151.237 180.999 151.168 180.614 151.187ZM192.906 158.769L190.534 155.453L188.093 158.769H186.496L189.797 154.437L186.7 150.173H188.419L190.688 153.354L192.923 150.173H194.539L191.428 154.385L194.591 158.769H192.906Z" fill="#333348"/>
<path d="M153.64 179.35V190.696H150.787V182.255C150.047 182.981 149.116 183.481 148.102 183.697L147.83 181.258C148.519 181.153 149.181 180.917 149.781 180.562C150.366 180.275 150.88 179.861 151.285 179.35H153.64ZM160.964 190.868C157.824 190.868 156.254 188.92 156.254 185.023C156.254 181.126 157.824 179.178 160.964 179.178C164.104 179.178 165.675 181.126 165.675 185.023C165.675 188.92 164.104 190.868 160.964 190.868ZM160.964 188.565C161.248 188.579 161.53 188.508 161.774 188.361C162.017 188.214 162.211 187.998 162.331 187.739C162.667 186.875 162.81 185.948 162.752 185.023C162.81 184.098 162.667 183.171 162.331 182.307C162.211 182.05 162.016 181.834 161.773 181.688C161.529 181.542 161.248 181.472 160.964 181.487C160.68 181.472 160.398 181.543 160.154 181.69C159.911 181.837 159.717 182.054 159.597 182.312C159.262 183.174 159.118 184.099 159.176 185.023C159.118 185.948 159.261 186.875 159.597 187.739C159.717 187.998 159.911 188.214 160.154 188.361C160.398 188.508 160.68 188.579 160.964 188.565ZM172.551 190.868C169.411 190.868 167.841 188.92 167.841 185.023C167.841 181.126 169.411 179.178 172.551 179.178C175.692 179.178 177.262 181.126 177.262 185.023C177.262 188.92 175.692 190.868 172.551 190.868ZM172.551 188.565C172.835 188.579 173.117 188.508 173.361 188.361C173.605 188.214 173.799 187.998 173.918 187.739C174.254 186.875 174.398 185.948 174.339 185.023C174.398 184.098 174.254 183.171 173.918 182.307C173.798 182.05 173.603 181.834 173.36 181.688C173.116 181.542 172.835 181.472 172.551 181.487C172.267 181.472 171.985 181.543 171.742 181.69C171.498 181.837 171.304 182.054 171.185 182.312C170.849 183.176 170.705 184.103 170.763 185.028C170.707 185.952 170.852 186.877 171.188 187.739C171.307 187.997 171.501 188.213 171.744 188.36C171.987 188.507 172.268 188.578 172.551 188.565ZM182.316 179.178C182.743 179.159 183.169 179.227 183.568 179.38C183.968 179.532 184.331 179.765 184.637 180.063C184.934 180.375 185.164 180.744 185.315 181.147C185.466 181.55 185.533 181.98 185.514 182.41C185.533 182.84 185.466 183.27 185.315 183.673C185.164 184.076 184.934 184.445 184.637 184.757C184.331 185.055 183.968 185.288 183.568 185.44C183.169 185.593 182.743 185.661 182.316 185.642C181.889 185.661 181.463 185.593 181.064 185.44C180.665 185.288 180.301 185.055 179.995 184.757C179.698 184.445 179.468 184.076 179.317 183.673C179.166 183.27 179.099 182.84 179.118 182.41C179.099 181.98 179.166 181.55 179.317 181.147C179.468 180.744 179.698 180.375 179.995 180.063C180.301 179.765 180.665 179.532 181.064 179.38C181.463 179.227 181.889 179.159 182.316 179.178ZM189.502 179.333H191.737L183.846 190.696H181.611L189.502 179.333ZM182.316 181.138C182.174 181.131 182.032 181.157 181.902 181.216C181.772 181.274 181.658 181.362 181.568 181.473C181.376 181.746 181.282 182.077 181.302 182.41C181.282 182.743 181.376 183.074 181.568 183.347C181.658 183.458 181.772 183.546 181.902 183.604C182.032 183.663 182.174 183.689 182.316 183.682C182.461 183.691 182.606 183.665 182.739 183.606C182.872 183.548 182.989 183.459 183.081 183.347C183.274 183.074 183.368 182.743 183.348 182.41C183.368 182.077 183.274 181.746 183.081 181.473C182.989 181.361 182.872 181.272 182.739 181.214C182.606 181.155 182.461 181.129 182.316 181.138ZM190.998 184.404C191.425 184.385 191.851 184.454 192.25 184.606C192.649 184.758 193.013 184.991 193.319 185.29C193.616 185.601 193.846 185.97 193.997 186.373C194.148 186.777 194.215 187.206 194.196 187.636C194.215 188.066 194.148 188.496 193.997 188.899C193.846 189.302 193.616 189.671 193.319 189.983C193.013 190.282 192.649 190.514 192.25 190.667C191.851 190.819 191.425 190.888 190.998 190.868C190.571 190.888 190.145 190.819 189.746 190.667C189.346 190.514 188.983 190.282 188.677 189.983C188.38 189.671 188.15 189.302 187.999 188.899C187.848 188.496 187.781 188.066 187.8 187.636C187.781 187.207 187.849 186.778 188 186.375C188.15 185.973 188.381 185.605 188.677 185.293C188.982 184.994 189.346 184.761 189.745 184.608C190.144 184.455 190.571 184.386 190.998 184.404ZM190.998 186.369C190.853 186.361 190.708 186.386 190.575 186.445C190.442 186.503 190.325 186.592 190.233 186.704C190.04 186.977 189.946 187.308 189.966 187.641C189.946 187.975 190.04 188.305 190.233 188.578C190.325 188.69 190.442 188.779 190.575 188.838C190.708 188.896 190.853 188.922 190.998 188.913C191.143 188.922 191.288 188.896 191.421 188.838C191.554 188.779 191.671 188.69 191.763 188.578C191.955 188.305 192.049 187.975 192.029 187.641C192.049 187.308 191.955 186.977 191.763 186.704C191.671 186.591 191.554 186.501 191.421 186.442C191.288 186.383 191.143 186.356 190.998 186.364V186.369Z" fill="#26CB6F"/>
<path d="M202.01 172.891H140.612V197.45H202.01V172.891Z" stroke="#26CB6F" stroke-width="1.22798"/>
<path d="M559.514 202.976H558.139V191.63H559.514V202.976ZM567.58 194.208C568.459 194.175 569.319 194.476 569.986 195.051C570.312 195.361 570.565 195.739 570.728 196.158C570.891 196.577 570.961 197.026 570.932 197.475V202.976H569.557V197.956C569.62 197.259 569.413 196.564 568.981 196.014C568.781 195.811 568.54 195.653 568.275 195.549C568.01 195.445 567.726 195.399 567.442 195.412C566.995 195.409 566.553 195.512 566.153 195.713C565.732 195.933 565.387 196.275 565.164 196.695C564.889 197.222 564.755 197.811 564.777 198.406V202.976H563.404V194.38H564.608L564.694 195.721C564.96 195.225 565.375 194.825 565.88 194.578C566.411 194.326 566.992 194.199 567.58 194.208ZM578.788 194.208C579.324 194.184 579.859 194.278 580.354 194.485C580.849 194.691 581.292 195.005 581.651 195.403C582.398 196.326 582.774 197.493 582.706 198.678C582.773 199.863 582.396 201.031 581.648 201.953C581.289 202.352 580.846 202.665 580.351 202.872C579.856 203.079 579.322 203.173 578.786 203.148C578.163 203.159 577.548 203.001 577.007 202.692C576.508 202.413 576.104 201.991 575.846 201.48L575.76 202.976H574.557V190.426H575.93V195.721C576.21 195.255 576.611 194.873 577.09 194.616C577.611 194.337 578.195 194.197 578.786 194.208H578.788ZM578.631 201.945C579.007 201.961 579.381 201.89 579.725 201.736C580.068 201.582 580.371 201.351 580.608 201.059C581.121 200.375 581.377 199.532 581.333 198.678C581.378 197.825 581.123 196.982 580.611 196.297C580.373 196.005 580.07 195.773 579.726 195.62C579.382 195.466 579.007 195.395 578.631 195.412C578.26 195.397 577.89 195.467 577.55 195.616C577.21 195.765 576.908 195.989 576.667 196.271C576.15 196.925 575.888 197.743 575.93 198.575V198.781C575.888 199.613 576.15 200.432 576.667 201.085C576.908 201.368 577.21 201.592 577.55 201.741C577.89 201.89 578.26 201.959 578.631 201.945ZM589.531 194.208C590.095 194.178 590.658 194.268 591.184 194.473C591.711 194.677 592.187 194.991 592.582 195.395C593.363 196.304 593.759 197.482 593.688 198.678C593.759 199.875 593.363 201.052 592.582 201.962C592.187 202.365 591.711 202.679 591.184 202.884C590.658 203.088 590.095 203.178 589.531 203.148C588.967 203.178 588.403 203.088 587.877 202.884C587.351 202.679 586.875 202.365 586.479 201.962C585.699 201.052 585.303 199.875 585.374 198.678C585.303 197.482 585.699 196.304 586.479 195.395C586.875 194.991 587.351 194.677 587.877 194.473C588.403 194.268 588.967 194.178 589.531 194.208ZM589.531 195.395C589.146 195.375 588.761 195.444 588.406 195.596C588.052 195.748 587.737 195.979 587.485 196.271C586.959 196.96 586.698 197.814 586.748 198.678C586.698 199.543 586.959 200.397 587.485 201.085C587.737 201.377 588.052 201.608 588.406 201.76C588.761 201.912 589.146 201.981 589.531 201.962C589.916 201.981 590.301 201.912 590.655 201.76C591.01 201.608 591.325 201.377 591.577 201.085C592.102 200.397 592.364 199.543 592.313 198.678C592.364 197.814 592.102 196.96 591.577 196.271C591.325 195.979 591.01 195.748 590.655 195.596C590.301 195.444 589.916 195.375 589.531 195.395ZM601.823 202.976L599.45 199.661L597.009 202.976H595.413L598.714 198.644L595.617 194.38H597.336L599.605 197.561L601.84 194.38H603.456L600.344 198.592L603.508 202.976H601.823Z" fill="#333348"/>
<path d="M562.557 223.557V234.904H559.703V226.462C558.964 227.188 558.033 227.688 557.019 227.904L556.746 225.465C557.435 225.36 558.098 225.124 558.698 224.769C559.283 224.482 559.797 224.068 560.202 223.557H562.557ZM569.881 235.076C566.74 235.076 565.17 233.127 565.17 229.23C565.17 225.334 566.74 223.385 569.881 223.385C573.021 223.385 574.591 225.334 574.591 229.23C574.591 233.127 573.021 235.076 569.881 235.076ZM569.881 232.772C570.165 232.786 570.447 232.716 570.69 232.568C570.934 232.421 571.128 232.205 571.247 231.947C571.583 231.083 571.727 230.156 571.669 229.23C571.727 228.305 571.583 227.378 571.247 226.514C571.127 226.257 570.933 226.041 570.689 225.895C570.446 225.749 570.164 225.679 569.881 225.694C569.597 225.679 569.315 225.75 569.071 225.897C568.827 226.044 568.633 226.261 568.514 226.519C568.179 227.382 568.035 228.307 568.093 229.23C568.034 230.156 568.178 231.083 568.514 231.947C568.633 232.205 568.827 232.421 569.071 232.568C569.315 232.716 569.597 232.786 569.881 232.772ZM581.468 235.076C578.328 235.076 576.757 233.127 576.757 229.23C576.757 225.334 578.328 223.385 581.468 223.385C584.608 223.385 586.178 225.334 586.178 229.23C586.178 233.127 584.608 235.076 581.468 235.076ZM581.468 232.772C581.752 232.786 582.034 232.716 582.278 232.568C582.521 232.421 582.715 232.205 582.835 231.947C583.171 231.083 583.314 230.156 583.256 229.23C583.314 228.305 583.171 227.378 582.835 226.514C582.714 226.257 582.52 226.041 582.277 225.895C582.033 225.749 581.752 225.679 581.468 225.694C581.184 225.679 580.902 225.75 580.658 225.897C580.415 226.044 580.221 226.261 580.101 226.519C579.765 227.383 579.622 228.31 579.68 229.235C579.623 230.159 579.768 231.084 580.105 231.947C580.224 232.204 580.418 232.42 580.66 232.567C580.903 232.714 581.184 232.786 581.468 232.772ZM591.233 223.385C591.66 223.366 592.086 223.435 592.485 223.587C592.884 223.739 593.248 223.972 593.554 224.271C593.851 224.582 594.081 224.951 594.232 225.354C594.383 225.758 594.45 226.187 594.43 226.617C594.45 227.047 594.383 227.477 594.232 227.88C594.081 228.283 593.851 228.652 593.554 228.964C593.248 229.262 592.884 229.495 592.485 229.647C592.086 229.8 591.66 229.868 591.233 229.849C590.806 229.868 590.38 229.8 589.98 229.647C589.581 229.495 589.218 229.262 588.912 228.964C588.615 228.652 588.384 228.283 588.234 227.88C588.083 227.477 588.016 227.047 588.035 226.617C588.016 226.187 588.083 225.758 588.234 225.354C588.384 224.951 588.615 224.582 588.912 224.271C589.218 223.972 589.581 223.739 589.98 223.587C590.38 223.435 590.806 223.366 591.233 223.385ZM598.419 223.54H600.654L592.763 234.904H590.528L598.419 223.54ZM591.233 225.345C591.091 225.338 590.949 225.364 590.819 225.423C590.689 225.481 590.574 225.569 590.485 225.68C590.293 225.953 590.199 226.284 590.219 226.617C590.199 226.951 590.293 227.281 590.485 227.554C590.574 227.665 590.689 227.753 590.819 227.812C590.949 227.87 591.091 227.897 591.233 227.889C591.378 227.898 591.523 227.872 591.656 227.814C591.789 227.755 591.906 227.666 591.998 227.554C592.19 227.281 592.284 226.951 592.264 226.617C592.284 226.284 592.19 225.953 591.998 225.68C591.906 225.568 591.789 225.479 591.656 225.421C591.523 225.363 591.378 225.337 591.233 225.345ZM599.915 228.611C600.341 228.592 600.768 228.661 601.167 228.813C601.566 228.966 601.93 229.198 602.236 229.497C602.532 229.809 602.763 230.177 602.914 230.581C603.064 230.984 603.132 231.413 603.112 231.843C603.132 232.274 603.064 232.703 602.914 233.106C602.763 233.51 602.532 233.878 602.236 234.19C601.93 234.489 601.566 234.721 601.167 234.874C600.768 235.026 600.341 235.095 599.915 235.076C599.488 235.095 599.062 235.026 598.662 234.874C598.263 234.721 597.899 234.489 597.594 234.19C597.297 233.878 597.066 233.51 596.916 233.106C596.765 232.703 596.697 232.274 596.717 231.843C596.698 231.414 596.766 230.985 596.916 230.583C597.067 230.18 597.297 229.812 597.594 229.501C597.899 229.201 598.263 228.968 598.662 228.815C599.061 228.662 599.488 228.593 599.915 228.611ZM599.915 230.576C599.77 230.568 599.625 230.594 599.492 230.652C599.359 230.71 599.242 230.799 599.15 230.911C598.957 231.185 598.863 231.515 598.883 231.848C598.863 232.182 598.957 232.512 599.15 232.785C599.242 232.898 599.359 232.987 599.492 233.045C599.625 233.103 599.77 233.129 599.915 233.121C600.06 233.129 600.204 233.103 600.337 233.045C600.47 232.987 600.588 232.898 600.68 232.785C600.872 232.512 600.966 232.182 600.946 231.848C600.966 231.515 600.872 231.185 600.68 230.911C600.588 230.798 600.471 230.708 600.338 230.649C600.205 230.59 600.06 230.563 599.915 230.571V230.576Z" fill="#26CB6F"/>
<path d="M610.927 217.098H549.528V241.658H610.927V217.098Z" stroke="#26CB6F" stroke-width="1.22798"/>
<path d="M590.255 333.825C590.3 334.422 590.222 335.023 590.025 335.589C589.828 336.156 589.518 336.675 589.112 337.117C588.659 337.51 588.133 337.81 587.564 337.999C586.995 338.189 586.395 338.265 585.797 338.222C585.2 338.263 584.601 338.186 584.034 337.995C583.467 337.803 582.944 337.502 582.493 337.108C582.089 336.668 581.779 336.149 581.583 335.584C581.386 335.02 581.307 334.421 581.35 333.825V326.702H582.725V333.476C582.647 334.412 582.913 335.344 583.473 336.098C583.78 336.396 584.146 336.625 584.549 336.769C584.952 336.913 585.38 336.968 585.806 336.931C586.232 336.968 586.661 336.913 587.064 336.769C587.466 336.625 587.833 336.396 588.14 336.098C588.7 335.344 588.966 334.412 588.887 333.476V326.707H590.263L590.255 333.825ZM598.198 329.281C599.078 329.248 599.938 329.549 600.605 330.124C600.93 330.434 601.183 330.812 601.347 331.231C601.51 331.65 601.579 332.099 601.55 332.548V338.054H600.175V333.034C600.238 332.337 600.032 331.642 599.599 331.091C599.399 330.889 599.159 330.731 598.894 330.627C598.629 330.523 598.345 330.476 598.06 330.49C597.613 330.487 597.171 330.59 596.771 330.79C596.352 331.012 596.01 331.354 595.789 331.773C595.513 332.3 595.38 332.889 595.402 333.483V338.054H594.027V329.458H595.23L595.316 330.799C595.582 330.303 595.997 329.903 596.502 329.656C597.032 329.404 597.612 329.278 598.198 329.286V329.281ZM612.811 325.499V338.054H611.608L611.522 336.558C611.264 337.068 610.86 337.49 610.361 337.77C609.82 338.079 609.205 338.236 608.582 338.226C608.046 338.251 607.511 338.156 607.016 337.95C606.522 337.743 606.079 337.429 605.719 337.031C604.972 336.109 604.596 334.941 604.665 333.756C604.597 332.571 604.974 331.403 605.722 330.481C606.081 330.083 606.523 329.769 607.018 329.563C607.512 329.356 608.046 329.262 608.582 329.286C609.172 329.276 609.755 329.418 610.275 329.699C610.754 329.956 611.155 330.338 611.436 330.804V325.504L612.811 325.499ZM608.736 337.022C609.108 337.037 609.477 336.967 609.818 336.818C610.158 336.669 610.46 336.445 610.701 336.163C611.218 335.509 611.48 334.691 611.438 333.859V333.653C611.48 332.821 611.218 332.002 610.701 331.349C610.46 331.067 610.158 330.842 609.818 330.694C609.477 330.545 609.108 330.475 608.736 330.49C608.361 330.473 607.986 330.544 607.643 330.698C607.3 330.852 606.997 331.084 606.759 331.375C606.248 332.06 605.992 332.902 606.037 333.756C605.992 334.61 606.248 335.452 606.759 336.137C606.997 336.428 607.3 336.66 607.643 336.814C607.986 336.968 608.361 337.039 608.736 337.022ZM623.9 333.309C623.899 333.631 623.876 333.953 623.831 334.272H617.35C617.381 335.031 617.69 335.753 618.218 336.3C618.476 336.543 618.78 336.732 619.112 336.856C619.444 336.98 619.798 337.037 620.152 337.022C620.695 337.041 621.234 336.929 621.725 336.696C622.121 336.503 622.426 336.164 622.576 335.75L623.728 336.352C623.406 336.936 622.928 337.418 622.347 337.744C621.668 338.089 620.913 338.255 620.152 338.226C619.588 338.256 619.024 338.166 618.498 337.962C617.972 337.757 617.495 337.443 617.1 337.04C616.32 336.13 615.924 334.952 615.995 333.756C615.925 332.568 616.302 331.396 617.052 330.472C617.435 330.067 617.902 329.751 618.42 329.546C618.939 329.341 619.496 329.252 620.052 329.286C620.782 329.267 621.502 329.452 622.132 329.819C622.704 330.162 623.162 330.664 623.453 331.263C623.757 331.901 623.91 332.602 623.9 333.309ZM620.049 330.485C619.714 330.47 619.38 330.521 619.066 330.636C618.752 330.751 618.463 330.928 618.218 331.155C617.723 331.668 617.422 332.336 617.367 333.046H622.576C622.529 332.348 622.251 331.686 621.785 331.164C621.559 330.936 621.287 330.759 620.988 330.643C620.689 330.527 620.369 330.475 620.049 330.49V330.485ZM628.335 335.745C628.305 336.059 628.374 336.375 628.533 336.648C628.629 336.742 628.745 336.813 628.873 336.855C629.001 336.898 629.136 336.911 629.27 336.893C629.48 336.896 629.69 336.879 629.897 336.842C630.111 336.797 630.321 336.733 630.524 336.653L630.295 337.985C629.892 338.152 629.459 338.236 629.023 338.231C628.738 338.254 628.451 338.215 628.183 338.117C627.914 338.019 627.67 337.864 627.467 337.663C627.091 337.166 626.91 336.548 626.96 335.927V325.504H628.335V335.745ZM633.493 327.803C633.355 327.809 633.218 327.787 633.089 327.738C632.961 327.689 632.843 327.615 632.745 327.519C632.649 327.42 632.574 327.303 632.526 327.174C632.477 327.046 632.455 326.909 632.461 326.771C632.455 326.634 632.477 326.497 632.526 326.368C632.574 326.239 632.649 326.122 632.745 326.023C632.843 325.928 632.961 325.853 633.089 325.804C633.218 325.756 633.355 325.734 633.493 325.74C633.63 325.734 633.767 325.756 633.896 325.804C634.024 325.853 634.142 325.928 634.24 326.023C634.336 326.122 634.411 326.239 634.459 326.368C634.508 326.497 634.53 326.634 634.524 326.771C634.53 326.909 634.508 327.046 634.459 327.174C634.411 327.303 634.336 327.42 634.24 327.519C634.142 327.616 634.025 327.691 633.896 327.741C633.768 327.79 633.63 327.813 633.493 327.808V327.803ZM634.18 338.054H632.805V329.458H634.18V338.054ZM645.028 329.458L641.452 338.054H640.077L636.501 329.458H638.066L640.782 336.661L643.584 329.458H645.028ZM654.729 333.309C654.729 333.631 654.706 333.953 654.66 334.272H648.174C648.206 335.031 648.514 335.753 649.042 336.3C649.301 336.543 649.605 336.732 649.937 336.856C650.269 336.98 650.622 337.037 650.976 337.022C651.521 337.042 652.063 336.93 652.556 336.696C652.951 336.503 653.257 336.164 653.407 335.75L654.558 336.352C654.239 336.935 653.762 337.417 653.183 337.744C652.501 338.091 651.741 338.257 650.976 338.226C650.413 338.256 649.849 338.166 649.323 337.962C648.797 337.757 648.32 337.443 647.925 337.04C647.145 336.13 646.748 334.952 646.82 333.756C646.749 332.568 647.127 331.396 647.877 330.472C648.259 330.068 648.726 329.751 649.243 329.547C649.761 329.342 650.318 329.253 650.873 329.286C651.603 329.267 652.323 329.452 652.954 329.819C653.525 330.162 653.984 330.663 654.275 331.263C654.581 331.901 654.734 332.601 654.724 333.309H654.729ZM650.873 330.49C650.539 330.475 650.205 330.526 649.891 330.641C649.576 330.756 649.288 330.933 649.042 331.16C648.548 331.673 648.247 332.341 648.191 333.051H653.401C653.354 332.353 653.075 331.691 652.61 331.169C652.384 330.94 652.113 330.762 651.813 330.645C651.514 330.528 651.194 330.475 650.873 330.49ZM661.91 329.286C662.235 329.269 662.559 329.328 662.856 329.458L662.581 330.799C662.244 330.636 661.872 330.56 661.498 330.575C661.117 330.58 660.745 330.69 660.423 330.894C660.053 331.128 659.755 331.462 659.564 331.856C659.328 332.34 659.213 332.874 659.228 333.412V338.054H657.853V329.458H658.971L659.16 330.868C659.397 330.351 659.789 329.921 660.282 329.637C660.775 329.354 661.344 329.231 661.91 329.286ZM672.483 333.309C672.483 333.631 672.46 333.953 672.415 334.272H665.933C665.964 335.031 666.273 335.753 666.8 336.3C667.058 336.543 667.363 336.732 667.695 336.856C668.027 336.98 668.38 337.037 668.734 337.022C669.277 337.041 669.817 336.929 670.307 336.696C670.703 336.503 671.008 336.164 671.158 335.75L672.31 336.352C671.99 336.935 671.514 337.417 670.935 337.744C670.255 338.09 669.498 338.256 668.735 338.226C668.172 338.256 667.608 338.166 667.082 337.962C666.556 337.757 666.079 337.443 665.684 337.04C664.904 336.13 664.507 334.952 664.579 333.756C664.508 332.568 664.886 331.396 665.636 330.472C666.019 330.067 666.486 329.751 667.004 329.546C667.523 329.341 668.08 329.252 668.636 329.286C669.365 329.267 670.086 329.452 670.716 329.819C671.287 330.162 671.746 330.664 672.036 331.263C672.341 331.901 672.494 332.602 672.483 333.309ZM668.632 330.485C668.297 330.47 667.963 330.522 667.648 330.638C667.334 330.754 667.046 330.932 666.8 331.16C666.306 331.673 666.005 332.341 665.949 333.051H671.16C671.113 332.353 670.835 331.691 670.369 331.169C670.143 330.94 669.872 330.762 669.572 330.645C669.273 330.528 668.953 330.475 668.632 330.49V330.485ZM683.245 325.499V338.054H682.042L681.956 336.558C681.698 337.068 681.294 337.49 680.795 337.77C680.254 338.079 679.639 338.236 679.016 338.226C678.48 338.251 677.946 338.156 677.451 337.95C676.956 337.743 676.513 337.429 676.154 337.031C675.406 336.109 675.029 334.941 675.096 333.756C675.029 332.571 675.406 331.403 676.154 330.481C676.513 330.083 676.956 329.769 677.451 329.562C677.946 329.356 678.48 329.261 679.016 329.286C679.607 329.276 680.19 329.418 680.71 329.699C681.189 329.956 681.59 330.338 681.87 330.804V325.504L683.245 325.499ZM679.171 337.022C679.542 337.037 679.912 336.967 680.252 336.818C680.592 336.669 680.894 336.445 681.136 336.163C681.652 335.509 681.914 334.691 681.872 333.859V333.653C681.914 332.821 681.652 332.002 681.136 331.349C680.894 331.067 680.592 330.842 680.252 330.694C679.912 330.545 679.542 330.475 679.171 330.49C678.795 330.473 678.421 330.544 678.077 330.698C677.734 330.852 677.432 331.084 677.194 331.375C676.682 332.06 676.427 332.902 676.472 333.756C676.427 334.61 676.682 335.452 677.194 336.137C677.432 336.428 677.734 336.66 678.077 336.814C678.421 336.968 678.795 337.039 679.171 337.022Z" fill="#333348"/>
<path d="M615.36 358.635V369.981H612.506V361.54C611.767 362.266 610.836 362.766 609.822 362.982L609.549 360.543C610.238 360.438 610.901 360.202 611.501 359.847C612.086 359.56 612.6 359.146 613.005 358.635H615.36ZM622.684 370.153C619.543 370.153 617.973 368.205 617.973 364.308C617.973 360.411 619.543 358.463 622.684 358.463C625.824 358.463 627.394 360.411 627.394 364.308C627.394 368.205 625.824 370.153 622.684 370.153ZM622.684 367.85C622.968 367.864 623.25 367.793 623.494 367.646C623.737 367.499 623.931 367.283 624.051 367.024C624.386 366.16 624.53 365.233 624.472 364.308C624.53 363.383 624.386 362.456 624.051 361.592C623.93 361.334 623.736 361.119 623.493 360.973C623.249 360.827 622.967 360.757 622.684 360.771C622.4 360.757 622.118 360.828 621.874 360.975C621.631 361.122 621.437 361.338 621.317 361.597C620.982 362.459 620.838 363.384 620.896 364.308C620.837 365.233 620.981 366.16 621.317 367.024C621.437 367.283 621.631 367.499 621.874 367.646C622.118 367.793 622.4 367.864 622.684 367.85ZM634.271 370.153C631.131 370.153 629.561 368.205 629.561 364.308C629.561 360.411 631.131 358.463 634.271 358.463C637.411 358.463 638.982 360.411 638.982 364.308C638.982 368.205 637.411 370.153 634.271 370.153ZM634.271 367.85C634.555 367.864 634.837 367.793 635.081 367.646C635.324 367.499 635.518 367.283 635.638 367.024C635.974 366.16 636.117 365.233 636.059 364.308C636.117 363.383 635.974 362.456 635.638 361.592C635.518 361.334 635.323 361.119 635.08 360.973C634.836 360.827 634.555 360.757 634.271 360.771C633.987 360.757 633.705 360.828 633.461 360.975C633.218 361.122 633.024 361.338 632.904 361.597C632.568 362.461 632.425 363.388 632.483 364.313C632.427 365.237 632.572 366.162 632.908 367.024C633.027 367.282 633.221 367.498 633.463 367.645C633.706 367.792 633.987 367.863 634.271 367.85ZM644.036 358.463C644.463 358.444 644.889 358.512 645.288 358.665C645.687 358.817 646.051 359.05 646.357 359.348C646.654 359.66 646.884 360.029 647.035 360.432C647.186 360.835 647.253 361.265 647.234 361.695C647.253 362.125 647.186 362.555 647.035 362.958C646.884 363.361 646.654 363.73 646.357 364.042C646.051 364.34 645.687 364.573 645.288 364.725C644.889 364.877 644.463 364.946 644.036 364.927C643.609 364.946 643.183 364.877 642.784 364.725C642.384 364.573 642.021 364.34 641.715 364.042C641.418 363.73 641.188 363.361 641.037 362.958C640.886 362.555 640.819 362.125 640.838 361.695C640.819 361.265 640.886 360.835 641.037 360.432C641.188 360.029 641.418 359.66 641.715 359.348C642.021 359.05 642.384 358.817 642.784 358.665C643.183 358.512 643.609 358.444 644.036 358.463ZM651.222 358.618H653.457L645.566 369.981H643.331L651.222 358.618ZM644.036 360.423C643.894 360.416 643.752 360.442 643.622 360.5C643.492 360.559 643.377 360.647 643.288 360.758C643.096 361.031 643.002 361.361 643.022 361.695C643.002 362.028 643.096 362.359 643.288 362.632C643.377 362.743 643.492 362.831 643.622 362.889C643.752 362.948 643.894 362.974 644.036 362.967C644.181 362.976 644.326 362.95 644.459 362.891C644.592 362.833 644.709 362.744 644.801 362.632C644.993 362.359 645.087 362.028 645.067 361.695C645.087 361.361 644.993 361.031 644.801 360.758C644.709 360.646 644.592 360.557 644.459 360.498C644.326 360.44 644.181 360.414 644.036 360.423ZM652.718 363.689C653.145 363.67 653.571 363.739 653.97 363.891C654.369 364.043 654.733 364.276 655.039 364.575C655.335 364.886 655.566 365.255 655.717 365.658C655.867 366.062 655.935 366.491 655.915 366.921C655.935 367.351 655.867 367.781 655.717 368.184C655.566 368.587 655.335 368.956 655.039 369.268C654.733 369.566 654.369 369.799 653.97 369.951C653.571 370.104 653.145 370.172 652.718 370.153C652.291 370.172 651.865 370.104 651.465 369.951C651.066 369.799 650.702 369.566 650.397 369.268C650.1 368.956 649.869 368.587 649.719 368.184C649.568 367.781 649.5 367.351 649.52 366.921C649.501 366.492 649.569 366.063 649.719 365.66C649.87 365.258 650.1 364.89 650.397 364.578C650.702 364.279 651.066 364.046 651.465 363.893C651.864 363.74 652.291 363.67 652.718 363.689ZM652.718 365.654C652.573 365.645 652.428 365.671 652.295 365.73C652.162 365.788 652.045 365.877 651.953 365.989C651.76 366.262 651.666 366.593 651.686 366.926C651.666 367.26 651.76 367.59 651.953 367.863C652.045 367.975 652.162 368.064 652.295 368.123C652.428 368.181 652.573 368.207 652.718 368.198C652.863 368.207 653.008 368.181 653.14 368.123C653.273 368.064 653.391 367.975 653.483 367.863C653.675 367.59 653.769 367.26 653.749 366.926C653.769 366.593 653.675 366.262 653.483 365.989C653.391 365.876 653.274 365.786 653.141 365.727C653.008 365.668 652.863 365.641 652.718 365.649V365.654Z" fill="#AFAFC7"/>
<path d="M663.73 352.176H602.331V376.735H663.73V352.176Z" stroke="#AFAFC7" stroke-width="1.22798"/>
<path d="M21.7016 371.892C21.7462 372.49 21.6677 373.09 21.4711 373.657C21.2744 374.223 20.9638 374.743 20.5583 375.184C20.1053 375.577 19.5794 375.877 19.0105 376.067C18.4416 376.256 17.8409 376.332 17.2428 376.289C16.646 376.33 16.047 376.253 15.4801 376.062C14.9132 375.871 14.3897 375.57 13.9395 375.176C13.5355 374.735 13.2257 374.216 13.0291 373.652C12.8325 373.087 12.7533 372.488 12.7963 371.892V364.77H14.1716V371.543C14.0929 372.479 14.3588 373.411 14.9195 374.165C15.2257 374.463 15.5926 374.692 15.9952 374.836C16.3978 374.98 16.8267 375.035 17.2526 374.999C17.6786 375.035 18.1074 374.98 18.51 374.836C18.9126 374.692 19.2795 374.463 19.5858 374.165C20.1464 373.411 20.4124 372.479 20.3336 371.543V364.775H21.709L21.7016 371.892ZM29.6441 367.348C30.5241 367.315 31.3841 367.616 32.051 368.191C32.3761 368.501 32.6293 368.879 32.7927 369.298C32.956 369.717 33.0256 370.166 32.9965 370.615V376.121H31.6212V371.101C31.6842 370.404 31.4781 369.709 31.0453 369.158C30.8453 368.956 30.605 368.798 30.3399 368.694C30.0748 368.59 29.7909 368.544 29.5066 368.557C29.0591 368.554 28.6174 368.657 28.2172 368.858C27.7984 369.079 27.4561 369.421 27.2349 369.84C26.9594 370.367 26.826 370.956 26.848 371.551V376.121H25.4727V367.525H26.6761L26.7621 368.866C27.028 368.37 27.4429 367.97 27.9483 367.723C28.4778 367.472 29.058 367.345 29.6441 367.353V367.348ZM44.2571 363.566V376.121H43.0537L42.9677 374.625C42.7099 375.136 42.3059 375.558 41.8073 375.837C41.2658 376.146 40.6512 376.304 40.0279 376.293C39.4922 376.318 38.9576 376.223 38.4626 376.017C37.9677 375.81 37.5247 375.497 37.1655 375.098C36.4186 374.176 36.0424 373.008 36.1107 371.823C36.0431 370.638 36.4201 369.47 37.168 368.548C37.5269 368.15 37.9695 367.837 38.464 367.63C38.9585 367.423 39.4926 367.329 40.0279 367.353C40.6184 367.344 41.2015 367.486 41.7213 367.766C42.2005 368.023 42.6013 368.405 42.8817 368.871V363.571L44.2571 363.566ZM40.1827 375.09C40.5538 375.104 40.9235 375.035 41.2638 374.886C41.6041 374.737 41.9063 374.513 42.1474 374.23C42.6639 373.577 42.9257 372.758 42.8842 371.926V371.72C42.9257 370.888 42.6639 370.07 42.1474 369.416C41.9063 369.134 41.6041 368.91 41.2638 368.761C40.9235 368.612 40.5538 368.542 40.1827 368.557C39.8069 368.54 39.4325 368.612 39.0893 368.765C38.746 368.919 38.4434 369.151 38.2056 369.442C37.6939 370.127 37.4384 370.97 37.4836 371.823C37.4384 372.677 37.6939 373.519 38.2056 374.204C38.4434 374.496 38.746 374.727 39.0893 374.881C39.4325 375.035 39.8069 375.106 40.1827 375.09ZM55.3457 371.376C55.3456 371.698 55.3227 372.02 55.277 372.339H48.7957C48.827 373.099 49.1359 373.82 49.6639 374.368C49.9221 374.61 50.2262 374.799 50.5582 374.923C50.8903 375.047 51.2438 375.104 51.5979 375.09C52.1409 375.109 52.6804 374.997 53.171 374.763C53.5667 374.57 53.872 374.231 54.022 373.817L55.1738 374.419C54.8527 375.003 54.3746 375.485 53.7936 375.812C53.1146 376.157 52.3589 376.322 51.5979 376.293C51.0342 376.323 50.4705 376.233 49.9443 376.029C49.4182 375.824 48.9416 375.51 48.5464 375.107C47.7661 374.197 47.3698 373.02 47.4412 371.823C47.3709 370.635 47.7481 369.464 48.4985 368.54C48.8812 368.134 49.3483 367.818 49.8666 367.613C50.385 367.408 50.9421 367.319 51.4985 367.353C52.2279 367.334 52.9482 367.519 53.5787 367.886C54.1498 368.229 54.6086 368.731 54.8987 369.33C55.2036 369.969 55.3566 370.669 55.3457 371.376ZM51.4948 368.552C51.1604 368.537 50.8264 368.588 50.5121 368.704C50.1978 368.819 49.9095 368.995 49.6639 369.222C49.1694 369.735 48.8686 370.403 48.8129 371.113H54.022C53.9753 370.415 53.697 369.753 53.2311 369.231C53.0048 369.004 52.7334 368.826 52.4343 368.71C52.1353 368.594 51.8152 368.542 51.4948 368.557V368.552ZM59.7812 373.813C59.7511 374.127 59.8202 374.442 59.9789 374.715C60.0752 374.809 60.1915 374.88 60.3191 374.922C60.4467 374.965 60.5823 374.978 60.7157 374.961C60.926 374.963 61.1361 374.946 61.3432 374.909C61.5573 374.864 61.7672 374.801 61.9707 374.72L61.741 376.052C61.3379 376.219 60.9052 376.303 60.4688 376.298C60.184 376.321 59.8974 376.282 59.6289 376.184C59.3603 376.087 59.1161 375.932 58.913 375.731C58.537 375.234 58.3565 374.616 58.4058 373.994V363.571H59.7812V373.813ZM64.9387 365.87C64.8013 365.876 64.6641 365.854 64.5355 365.805C64.4069 365.756 64.2896 365.682 64.1908 365.586C64.0952 365.488 64.0207 365.37 63.9719 365.242C63.9231 365.113 63.9011 364.976 63.9072 364.838C63.9011 364.701 63.9231 364.564 63.9719 364.435C64.0207 364.307 64.0952 364.189 64.1908 364.091C64.2896 363.995 64.4069 363.92 64.5355 363.872C64.6641 363.823 64.8013 363.801 64.9387 363.807C65.0761 363.801 65.2133 363.823 65.3419 363.872C65.4705 363.92 65.5877 363.995 65.6865 364.091C65.7822 364.189 65.8567 364.307 65.9055 364.435C65.9543 364.564 65.9763 364.701 65.9702 364.838C65.9763 364.976 65.9543 365.113 65.9055 365.242C65.8567 365.37 65.7822 365.488 65.6865 365.586C65.5881 365.683 65.4711 365.758 65.3424 365.808C65.2138 365.858 65.0764 365.88 64.9387 365.875V365.87ZM65.6264 376.121H64.251V367.525H65.6264V376.121ZM76.4743 367.525L72.8984 376.121H71.5231L67.9472 367.525H69.5117L72.228 374.729L75.0302 367.525H76.4743ZM86.1753 371.376C86.1753 371.698 86.1523 372.02 86.1066 372.339H79.6204C79.6517 373.099 79.9606 373.82 80.4886 374.368C80.7468 374.61 81.0509 374.799 81.3829 374.923C81.715 375.047 82.0685 375.104 82.4226 375.09C82.9677 375.11 83.5094 374.997 84.0018 374.763C84.3976 374.57 84.7028 374.231 84.8528 373.817L86.0047 374.419C85.6848 375.002 85.2085 375.485 84.6293 375.812C83.9471 376.158 83.1873 376.324 82.4226 376.293C81.8589 376.323 81.2952 376.233 80.769 376.029C80.2429 375.824 79.7663 375.51 79.3711 375.107C78.5908 374.197 78.1945 373.02 78.2659 371.823C78.1956 370.635 78.5728 369.464 79.3232 368.54C79.7055 368.135 80.1719 367.819 80.6896 367.614C81.2073 367.409 81.7637 367.32 82.3195 367.353C83.0489 367.334 83.7692 367.519 84.3997 367.886C84.9713 368.229 85.4305 368.731 85.721 369.33C86.0267 369.969 86.1806 370.669 86.1704 371.376H86.1753ZM82.3195 368.557C81.9851 368.542 81.6511 368.593 81.3368 368.708C81.0225 368.824 80.7342 369 80.4886 369.227C79.9942 369.74 79.6933 370.408 79.6376 371.118H84.8467C84.8 370.42 84.5217 369.758 84.0559 369.236C83.83 369.008 83.5587 368.829 83.2597 368.712C82.9606 368.595 82.6403 368.542 82.3195 368.557ZM93.3566 367.353C93.6808 367.336 94.0047 367.395 94.3021 367.525L94.027 368.866C93.69 368.704 93.3179 368.627 92.944 368.643C92.5632 368.647 92.1911 368.757 91.8695 368.961C91.4992 369.196 91.2015 369.529 91.0099 369.924C90.7743 370.408 90.6593 370.941 90.6747 371.479V376.121H89.2993V367.525H90.4168L90.6059 368.935C90.8431 368.418 91.2355 367.988 91.7285 367.705C92.2215 367.421 92.7906 367.298 93.3566 367.353ZM103.929 371.376C103.929 371.698 103.906 372.02 103.861 372.339H97.3794C97.4104 373.098 97.7188 373.82 98.2464 374.368C98.5046 374.61 98.8087 374.799 99.1407 374.923C99.4728 375.047 99.8263 375.104 100.18 375.09C100.723 375.109 101.263 374.997 101.753 374.763C102.149 374.57 102.454 374.231 102.604 373.817L103.756 374.419C103.436 375.002 102.96 375.485 102.381 375.812C101.701 376.157 100.944 376.323 100.182 376.293C99.6179 376.323 99.0542 376.233 98.5281 376.029C98.0019 375.824 97.5253 375.51 97.1301 375.107C96.3498 374.197 95.9536 373.02 96.025 371.823C95.9546 370.635 96.3318 369.464 97.0823 368.54C97.4649 368.134 97.932 367.818 98.4504 367.613C98.9687 367.408 99.5258 367.319 100.082 367.353C100.812 367.334 101.532 367.519 102.162 367.886C102.734 368.229 103.192 368.731 103.482 369.33C103.787 369.969 103.94 370.669 103.929 371.376ZM100.079 368.552C99.7436 368.537 99.4091 368.59 99.0946 368.706C98.7801 368.822 98.4917 368.999 98.2464 369.227C97.7519 369.74 97.4511 370.408 97.3954 371.118H102.606C102.559 370.42 102.281 369.758 101.815 369.236C101.589 369.008 101.318 368.829 101.019 368.712C100.72 368.595 100.399 368.542 100.079 368.557V368.552ZM114.691 363.566V376.121H113.488L113.402 374.625C113.144 375.136 112.74 375.558 112.242 375.837C111.7 376.146 111.086 376.304 110.462 376.293C109.927 376.318 109.392 376.223 108.897 376.017C108.402 375.81 107.959 375.497 107.6 375.098C106.852 374.176 106.475 373.008 106.543 371.823C106.475 370.638 106.852 369.47 107.6 368.548C107.959 368.15 108.402 367.836 108.897 367.63C109.392 367.423 109.927 367.329 110.462 367.353C111.053 367.344 111.636 367.486 112.156 367.766C112.635 368.023 113.036 368.405 113.316 368.871V363.571L114.691 363.566ZM110.617 375.09C110.988 375.104 111.358 375.035 111.698 374.886C112.039 374.737 112.341 374.513 112.582 374.23C113.098 373.577 113.36 372.758 113.319 371.926V371.72C113.36 370.888 113.098 370.07 112.582 369.416C112.341 369.134 112.039 368.91 111.698 368.761C111.358 368.612 110.988 368.542 110.617 368.557C110.241 368.54 109.867 368.612 109.524 368.765C109.18 368.919 108.878 369.151 108.64 369.442C108.128 370.127 107.873 370.97 107.918 371.823C107.873 372.677 108.128 373.519 108.64 374.204C108.878 374.496 109.18 374.727 109.524 374.881C109.867 375.035 110.241 375.106 110.617 375.09Z" fill="#333348"/>
<path d="M46.8063 396.702V408.049H43.9525V399.607C43.2129 400.333 42.2818 400.833 41.2682 401.049L40.9955 398.61C41.6845 398.505 42.347 398.269 42.9468 397.914C43.5322 397.627 44.0461 397.213 44.4511 396.702H46.8063ZM54.13 408.22C50.9896 408.22 49.4195 406.272 49.4195 402.375C49.4195 398.479 50.9896 396.53 54.13 396.53C57.2703 396.53 58.8405 398.479 58.8405 402.375C58.8405 406.272 57.2703 408.22 54.13 408.22ZM54.13 405.917C54.4141 405.931 54.6961 405.861 54.9397 405.713C55.1833 405.566 55.3773 405.35 55.4967 405.092C55.8327 404.227 55.9764 403.301 55.9179 402.375C55.9764 401.45 55.8327 400.523 55.4967 399.659C55.3765 399.402 55.1822 399.186 54.9387 399.04C54.6952 398.894 54.4136 398.824 54.13 398.839C53.8458 398.824 53.5639 398.895 53.3203 399.042C53.0767 399.189 52.8827 399.406 52.7633 399.664C52.428 400.527 52.2843 401.452 52.3421 402.375C52.2836 403.301 52.4273 404.227 52.7633 405.092C52.8827 405.35 53.0767 405.566 53.3203 405.713C53.5639 405.861 53.8458 405.931 54.13 405.917ZM65.7172 408.22C62.5768 408.22 61.0067 406.272 61.0067 402.375C61.0067 398.479 62.5768 396.53 65.7172 396.53C68.8575 396.53 70.4277 398.479 70.4277 402.375C70.4277 406.272 68.8575 408.22 65.7172 408.22ZM65.7172 405.917C66.0013 405.931 66.2833 405.861 66.5269 405.713C66.7705 405.566 66.9645 405.35 67.0839 405.092C67.4199 404.227 67.5636 403.301 67.5051 402.375C67.5636 401.45 67.4199 400.523 67.0839 399.659C66.9637 399.402 66.7694 399.186 66.5259 399.04C66.2824 398.894 66.0008 398.824 65.7172 398.839C65.433 398.824 65.1511 398.895 64.9075 399.042C64.6639 399.189 64.4699 399.406 64.3505 399.664C64.0145 400.528 63.8708 401.455 63.9293 402.38C63.8727 403.304 64.0177 404.229 64.3541 405.092C64.4734 405.349 64.6668 405.565 64.9096 405.712C65.1525 405.859 65.4337 405.931 65.7172 405.917ZM75.4821 396.53C75.9089 396.511 76.3352 396.58 76.7344 396.732C77.1336 396.884 77.4973 397.117 77.803 397.416C78.0998 397.727 78.3304 398.096 78.4811 398.499C78.6318 398.903 78.6993 399.332 78.6797 399.762C78.6993 400.192 78.6318 400.622 78.4811 401.025C78.3304 401.428 78.0998 401.797 77.803 402.109C77.4973 402.407 77.1336 402.64 76.7344 402.792C76.3352 402.945 75.9089 403.013 75.4821 402.994C75.0552 403.013 74.629 402.945 74.2297 402.792C73.8305 402.64 73.4668 402.407 73.1612 402.109C72.8644 401.797 72.6337 401.428 72.483 401.025C72.3324 400.622 72.2648 400.192 72.2844 399.762C72.2648 399.332 72.3324 398.903 72.483 398.499C72.6337 398.096 72.8644 397.727 73.1612 397.416C73.4668 397.117 73.8305 396.884 74.2297 396.732C74.629 396.58 75.0552 396.511 75.4821 396.53ZM82.6682 396.685H84.9031L77.0121 408.049H74.7772L82.6682 396.685ZM75.4821 398.49C75.3398 398.483 75.1978 398.509 75.0679 398.568C74.9379 398.626 74.8235 398.714 74.7342 398.825C74.5418 399.098 74.4478 399.429 74.4678 399.762C74.4478 400.096 74.5418 400.426 74.7342 400.699C74.8235 400.81 74.9379 400.898 75.0679 400.957C75.1978 401.015 75.3398 401.042 75.4821 401.034C75.627 401.043 75.7719 401.017 75.9048 400.959C76.0378 400.9 76.1551 400.811 76.2471 400.699C76.4396 400.426 76.5335 400.096 76.5136 399.762C76.5335 399.429 76.4396 399.098 76.2471 398.825C76.1551 398.713 76.0378 398.624 75.9048 398.566C75.7719 398.507 75.627 398.482 75.4821 398.49ZM84.1639 401.756C84.5907 401.737 85.017 401.806 85.4162 401.958C85.8155 402.11 86.1791 402.343 86.4848 402.642C86.7816 402.954 87.0122 403.322 87.1629 403.726C87.3136 404.129 87.3812 404.558 87.3615 404.988C87.3812 405.418 87.3136 405.848 87.1629 406.251C87.0122 406.655 86.7816 407.023 86.4848 407.335C86.1791 407.634 85.8155 407.866 85.4162 408.019C85.017 408.171 84.5907 408.24 84.1639 408.22C83.737 408.24 83.3108 408.171 82.9115 408.019C82.5123 407.866 82.1486 407.634 81.843 407.335C81.5462 407.023 81.3155 406.655 81.1648 406.251C81.0142 405.848 80.9466 405.418 80.9662 404.988C80.9471 404.559 81.0149 404.13 81.1656 403.728C81.3162 403.325 81.5467 402.957 81.843 402.645C82.1483 402.346 82.5119 402.113 82.9111 401.96C83.3104 401.807 83.7368 401.738 84.1639 401.756ZM84.1639 403.721C84.019 403.713 83.8741 403.739 83.7411 403.797C83.6082 403.855 83.4909 403.944 83.3989 404.056C83.2064 404.329 83.1124 404.66 83.1324 404.993C83.1124 405.327 83.2064 405.657 83.3989 405.93C83.4909 406.043 83.6082 406.132 83.7411 406.19C83.8741 406.248 84.019 406.274 84.1639 406.266C84.3088 406.274 84.4537 406.248 84.5867 406.19C84.7196 406.132 84.8369 406.043 84.9289 405.93C85.1214 405.657 85.2153 405.327 85.1954 404.993C85.2153 404.66 85.1214 404.329 84.9289 404.056C84.8374 403.943 84.7203 403.853 84.5873 403.794C84.4544 403.735 84.3092 403.708 84.1639 403.716V403.721Z" fill="#AFAFC7"/>
<path d="M95.1764 390.243H33.7775V414.802H95.1764V390.243Z" stroke="#AFAFC7" stroke-width="1.22798"/>
<path d="M444.536 280.84H235.78V293.12H444.536V280.84Z" fill="#AFAFC7"/>
<path d="M444.536 374.166H235.78V386.446H444.536V374.166Z" fill="#AFAFC7"/>
<path opacity="0.3" d="M444.536 261.192H235.78V273.472H444.536V261.192Z" fill="#AFAFC7"/>
<path opacity="0.3" d="M444.536 354.519H235.78V366.798H444.536V354.519Z" fill="#AFAFC7"/>
</g>
</g>
<defs>
<clipPath id="clip0_3_742">
<rect width="683.984" height="558.73" fill="white" transform="translate(0.00811768 0.359863)"/>
</clipPath>
</defs>
</svg>
