<svg width="684" height="560" viewBox="0 0 684 560" fill="none" xmlns="http://www.w3.org/2000/svg">
<g clip-path="url(#clip0_3_540)">
<mask id="mask0_3_540" style="mask-type:luminance" maskUnits="userSpaceOnUse" x="0" y="0" width="684" height="560">
<path d="M683.992 0.949951H0.00811768V559.68H683.992V0.949951Z" fill="white"/>
</mask>
<g mask="url(#mask0_3_540)">
<path d="M602.945 169.183H116.666C99.033 169.183 84.7386 183.477 84.7386 201.11C84.7386 218.743 99.033 233.038 116.666 233.038H602.945C620.578 233.038 634.873 218.743 634.873 201.11C634.873 183.477 620.578 169.183 602.945 169.183Z" fill="#FBFBFE"/>
<path d="M645.925 233.038H125.262C106.951 233.038 92.1064 247.882 92.1064 266.193C92.1064 284.504 106.951 299.349 125.262 299.349H645.925C664.236 299.349 679.08 284.504 679.08 266.193C679.08 247.882 664.236 233.038 645.925 233.038Z" fill="#FBFBFE"/>
<path d="M561.808 299.349H36.2334C18.9395 299.349 4.91998 313.368 4.91998 330.662C4.91998 347.956 18.9395 361.976 36.2334 361.976H561.808C579.102 361.976 593.121 347.956 593.121 330.662C593.121 313.368 579.102 299.349 561.808 299.349Z" fill="#FBFBFE"/>
<path d="M591.893 361.976H106.842C88.5309 361.976 73.6868 376.82 73.6868 395.131C73.6868 413.442 88.5309 428.286 106.842 428.286H591.893C610.205 428.286 625.049 413.442 625.049 395.131C625.049 376.82 610.205 361.976 591.893 361.976Z" fill="#FBFBFE"/>
<path d="M209.994 223.214H472.781C475.712 223.214 478.523 224.378 480.596 226.451C482.668 228.524 483.833 231.335 483.833 234.266V407.411C483.833 407.736 483.703 408.049 483.473 408.279C483.243 408.509 482.93 408.639 482.605 408.639H200.17C199.844 408.639 199.532 408.509 199.301 408.279C199.071 408.049 198.942 407.736 198.942 407.411V234.266C198.942 231.335 200.106 228.524 202.179 226.451C204.251 224.378 207.062 223.214 209.994 223.214Z" stroke="#AFAFC7" stroke-width="2.45596"/>
<path d="M232.097 242.862H449.449C452.38 242.862 455.191 244.026 457.264 246.099C459.337 248.171 460.501 250.982 460.501 253.913V407.411C460.501 407.736 460.372 408.049 460.141 408.279C459.911 408.509 459.599 408.639 459.273 408.639H222.273C221.948 408.639 221.635 408.509 221.405 408.279C221.175 408.049 221.045 407.736 221.045 407.411V253.913C221.045 250.982 222.21 248.171 224.282 246.099C226.355 244.026 229.166 242.862 232.097 242.862Z" stroke="#AFAFC7" stroke-width="2.45596"/>
<path d="M166.515 408.639H517.488C517.583 408.639 517.678 408.657 517.766 408.694C517.855 408.731 517.935 408.784 518.003 408.852C518.07 408.92 518.124 409 518.161 409.088C518.197 409.177 518.216 409.271 518.216 409.367V411.549C518.216 415.988 516.453 420.245 513.314 423.384C510.175 426.523 505.918 428.286 501.479 428.286H184.706C179.688 428.286 174.876 426.293 171.328 422.745C167.78 419.197 165.786 414.385 165.786 409.367C165.786 409.174 165.863 408.988 166 408.852C166.136 408.715 166.321 408.639 166.515 408.639Z" stroke="#AFAFC7" stroke-width="2.45596"/>
<path d="M486.288 384.698C486.75 383.923 551.912 370.224 571.018 309.044C590.125 247.865 542.333 216.406 542.333 216.406" stroke="#AFAFC7" stroke-width="1.22798" stroke-dasharray="3.68 3.68"/>
<path d="M197.694 384.71C197.232 383.935 132.091 330.095 112.997 268.925C93.9024 207.756 145.55 163.962 145.55 163.962" stroke="#AFAFC7" stroke-width="1.22772" stroke-dasharray="3.68 3.68"/>
<path d="M537.862 244.09C558.886 244.09 575.93 227.046 575.93 206.022C575.93 184.998 558.886 167.955 537.862 167.955C516.838 167.955 499.795 184.998 499.795 206.022C499.795 227.046 516.838 244.09 537.862 244.09Z" fill="#F4F4FA"/>
<path d="M537.862 243.476C558.547 243.476 575.316 226.707 575.316 206.022C575.316 185.337 558.547 168.569 537.862 168.569C517.178 168.569 500.409 185.337 500.409 206.022C500.409 226.707 517.178 243.476 537.862 243.476Z" stroke="#AFAFC7" stroke-width="1.22798"/>
<path d="M146.13 194.97C167.154 194.97 184.197 177.927 184.197 156.903C184.197 135.879 167.154 118.836 146.13 118.836C125.106 118.836 108.063 135.879 108.063 156.903C108.063 177.927 125.106 194.97 146.13 194.97Z" fill="#F4F4FA"/>
<path d="M146.13 194.357C166.815 194.357 183.583 177.588 183.583 156.903C183.583 136.218 166.815 119.45 146.13 119.45C125.445 119.45 108.677 136.218 108.677 156.903C108.677 177.588 125.445 194.357 146.13 194.357Z" stroke="#AFAFC7" stroke-width="1.22798"/>
<path d="M161.244 151.026H151.21V143.5C151.209 142.17 150.68 140.895 149.739 139.955C148.799 139.014 147.524 138.485 146.194 138.483H142.431C142.099 138.484 141.78 138.616 141.545 138.851C141.31 139.086 141.178 139.405 141.178 139.737V145.675L136.326 154.166C136.217 154.355 136.159 154.57 136.16 154.789V172.349C136.16 172.681 136.293 173 136.528 173.235C136.763 173.47 137.082 173.602 137.414 173.602H157.544C158.514 173.602 159.464 173.32 160.277 172.791C161.091 172.262 161.733 171.509 162.127 170.622L166.151 161.569C166.224 161.409 166.262 161.236 166.262 161.06V156.044C166.26 154.713 165.731 153.438 164.791 152.497C163.85 151.556 162.574 151.027 161.244 151.026Z" fill="#AFAFC7"/>
<path d="M127.38 153.534C127.048 153.534 126.729 153.666 126.494 153.901C126.259 154.136 126.127 154.455 126.126 154.787V172.347C126.127 172.68 126.259 172.999 126.494 173.234C126.729 173.469 127.048 173.601 127.38 173.601H133.651V153.534H127.38Z" fill="#AFAFC7"/>
<path d="M523.231 213.863H533.265V221.388C533.267 222.718 533.796 223.993 534.736 224.933C535.676 225.874 536.951 226.403 538.281 226.404H542.044C542.376 226.404 542.695 226.272 542.93 226.037C543.165 225.802 543.297 225.483 543.297 225.151V219.213L548.149 210.722C548.259 210.533 548.316 210.318 548.315 210.099V192.539C548.314 192.207 548.182 191.888 547.947 191.654C547.712 191.419 547.393 191.287 547.061 191.287H526.933C525.963 191.287 525.014 191.569 524.2 192.098C523.387 192.627 522.744 193.38 522.351 194.267L518.325 203.321C518.252 203.481 518.215 203.655 518.215 203.83V208.847C518.216 210.177 518.745 211.452 519.686 212.392C520.626 213.332 521.901 213.861 523.231 213.863Z" fill="#AFAFC7"/>
<path d="M557.095 211.354C557.427 211.354 557.746 211.222 557.981 210.987C558.216 210.752 558.348 210.433 558.349 210.1V192.54C558.348 192.208 558.216 191.889 557.981 191.654C557.746 191.419 557.427 191.287 557.095 191.287H550.824V211.354H557.095Z" fill="#AFAFC7"/>
<path d="M286.127 154.447H244.376C240.307 154.447 237.008 157.746 237.008 161.815V382.851C237.008 386.92 240.307 390.219 244.376 390.219H286.127C290.196 390.219 293.495 386.92 293.495 382.851V161.815C293.495 157.746 290.196 154.447 286.127 154.447Z" fill="#F4F4FA"/>
<path d="M286.127 155.675H244.376C240.985 155.675 238.236 158.424 238.236 161.815V382.851C238.236 386.242 240.985 388.991 244.376 388.991H286.127C289.518 388.991 292.267 386.242 292.267 382.851V161.815C292.267 158.424 289.518 155.675 286.127 155.675Z" stroke="#AFAFC7" stroke-width="2.45596"/>
<path d="M363.49 154.447H321.738C317.669 154.447 314.37 157.746 314.37 161.815V382.851C314.37 386.92 317.669 390.219 321.738 390.219H363.49C367.559 390.219 370.857 386.92 370.857 382.851V161.815C370.857 157.746 367.559 154.447 363.49 154.447Z" fill="#F4F4FA"/>
<path d="M363.49 155.675H321.738C318.347 155.675 315.598 158.424 315.598 161.815V382.851C315.598 386.242 318.347 388.991 321.738 388.991H363.49C366.881 388.991 369.629 386.242 369.629 382.851V161.815C369.629 158.424 366.881 155.675 363.49 155.675Z" stroke="#AFAFC7" stroke-width="2.45596"/>
<path d="M435.94 154.447H394.189C390.12 154.447 386.821 157.746 386.821 161.815V382.851C386.821 386.92 390.12 390.219 394.189 390.219H435.94C440.009 390.219 443.308 386.92 443.308 382.851V161.815C443.308 157.746 440.009 154.447 435.94 154.447Z" fill="#F4F4FA"/>
<path d="M435.94 155.675H394.189C390.798 155.675 388.049 158.424 388.049 161.815V382.851C388.049 386.242 390.798 388.991 394.189 388.991H435.94C439.331 388.991 442.08 386.242 442.08 382.851V161.815C442.08 158.424 439.331 155.675 435.94 155.675Z" stroke="#AFAFC7" stroke-width="2.45596"/>
<path d="M270.163 201.11H259.111V377.939H270.163V201.11Z" fill="#26CB6F"/>
<path d="M254.2 327.592H243.148V377.939H254.2V327.592Z" fill="#FC676A"/>
<path d="M287.355 266.193H276.303V377.939H287.355V266.193Z" fill="#AFAFC7"/>
<path d="M347.526 169.183H336.474V377.939H347.526V169.183Z" fill="#26CB6F"/>
<path d="M331.562 353.38H320.51V377.939H331.562V353.38Z" fill="#FC676A"/>
<path d="M364.718 287.069H353.666V377.939H364.718V287.069Z" fill="#AFAFC7"/>
<path d="M419.977 193.743H408.925V377.939H419.977V193.743Z" fill="#26CB6F"/>
<path d="M404.013 352.152H392.961V377.939H404.013V352.152Z" fill="#FC676A"/>
<path d="M437.168 336.188H426.116V377.939H437.168V336.188Z" fill="#AFAFC7"/>
</g>
</g>
<defs>
<clipPath id="clip0_3_540">
<rect width="683.984" height="558.73" fill="white" transform="translate(0.00811768 0.949951)"/>
</clipPath>
</defs>
</svg>
