<svg width="684" height="560" viewBox="0 0 684 560" fill="none" xmlns="http://www.w3.org/2000/svg">
<g clip-path="url(#clip0_3_260)">
<mask id="mask0_3_260" style="mask-type:luminance" maskUnits="userSpaceOnUse" x="0" y="0" width="684" height="560">
<path d="M683.992 0.75H0.00811768V559.48H683.992V0.75Z" fill="white"/>
</mask>
<g mask="url(#mask0_3_260)">
<g opacity="0.6">
<path d="M602.947 126.004H116.667C99.0342 126.004 84.7398 140.298 84.7398 157.931C84.7398 175.564 99.0342 189.859 116.667 189.859H602.947C620.58 189.859 634.874 175.564 634.874 157.931C634.874 140.298 620.58 126.004 602.947 126.004Z" fill="#F4F4FA"/>
<path d="M645.926 189.859H125.263C106.952 189.859 92.1077 204.703 92.1077 223.014C92.1077 241.325 106.952 256.169 125.263 256.169H645.926C664.237 256.169 679.081 241.325 679.081 223.014C679.081 204.703 664.237 189.859 645.926 189.859Z" fill="#F4F4FA"/>
<path d="M561.809 256.169H36.2347C18.9407 256.169 4.92123 270.189 4.92123 287.483C4.92123 304.777 18.9407 318.796 36.2347 318.796H561.809C579.103 318.796 593.123 304.777 593.123 287.483C593.123 270.189 579.103 256.169 561.809 256.169Z" fill="#F4F4FA"/>
<path d="M591.895 318.796H106.843C88.5322 318.796 73.688 333.641 73.688 351.952C73.688 370.263 88.5322 385.107 106.843 385.107H591.895C610.206 385.107 625.05 370.263 625.05 351.952C625.05 333.641 610.206 318.796 591.895 318.796Z" fill="#F4F4FA"/>
</g>
<path d="M205.082 180.035H467.869C470.8 180.035 473.611 181.199 475.684 183.272C477.756 185.345 478.921 188.156 478.921 191.087V364.232C478.921 364.557 478.791 364.87 478.561 365.1C478.331 365.33 478.018 365.46 477.693 365.46H195.258C194.932 365.46 194.62 365.33 194.39 365.1C194.159 364.87 194.03 364.557 194.03 364.232V191.087C194.03 188.156 195.194 185.345 197.267 183.272C199.339 181.199 202.151 180.035 205.082 180.035Z" stroke="#AFAFC7" stroke-width="2.45596"/>
<path d="M227.185 199.683H444.537C447.469 199.683 450.28 200.847 452.352 202.92C454.425 204.992 455.589 207.803 455.589 210.734V364.232C455.589 364.557 455.46 364.87 455.23 365.1C454.999 365.33 454.687 365.46 454.361 365.46H217.361C217.036 365.46 216.723 365.33 216.493 365.1C216.263 364.87 216.133 364.557 216.133 364.232V210.734C216.133 207.803 217.298 204.992 219.37 202.92C221.443 200.847 224.254 199.683 227.185 199.683Z" stroke="#AFAFC7" stroke-width="2.45596"/>
<path d="M161.603 365.46H512.576C512.672 365.46 512.766 365.478 512.855 365.515C512.943 365.552 513.023 365.605 513.091 365.673C513.158 365.74 513.212 365.821 513.249 365.909C513.285 365.997 513.304 366.092 513.304 366.188V368.37C513.304 372.809 511.541 377.066 508.402 380.205C505.263 383.344 501.006 385.107 496.567 385.107H179.794C174.776 385.107 169.964 383.114 166.416 379.566C162.868 376.018 160.874 371.206 160.874 366.188C160.874 365.995 160.951 365.809 161.088 365.673C161.224 365.536 161.41 365.46 161.603 365.46Z" stroke="#AFAFC7" stroke-width="2.45596"/>
<path d="M607.502 264.223C607.273 264.227 607.047 264.185 606.834 264.101C606.622 264.017 606.429 263.892 606.265 263.733L603.759 261.321C603.594 261.162 603.462 260.973 603.37 260.763C603.278 260.553 603.229 260.328 603.224 260.099C603.215 259.637 603.39 259.19 603.71 258.857C604.03 258.524 604.469 258.332 604.931 258.323C605.393 258.313 605.84 258.488 606.173 258.808L607.423 260.015L609.606 257.762C609.929 257.438 610.366 257.254 610.823 257.25C611.281 257.246 611.721 257.422 612.05 257.739C612.379 258.057 612.57 258.491 612.581 258.948C612.593 259.405 612.425 259.848 612.112 260.182L608.724 263.69C608.704 263.712 608.682 263.733 608.66 263.755C608.345 264.049 607.933 264.216 607.502 264.223Z" fill="white"/>
<path d="M68.7027 323.718C68.7027 323.718 52.1517 315.04 73.4637 332.465C94.7756 349.89 102.898 410.474 155.058 374.49C207.218 338.506 253.087 343.895 253.087 343.895" stroke="#AFAFC7" stroke-width="1.22812" stroke-dasharray="3.68 3.68"/>
<path d="M377.234 345.369C377.234 345.369 419.473 367.255 412.286 407.727C405.099 448.2 509.737 437.395 509.737 437.395" stroke="#AFAFC7" stroke-width="1.22812" stroke-dasharray="3.68 3.68"/>
<path d="M329.13 351.076C329.13 351.076 316.044 376.266 343.029 391.551C370.015 406.836 343.038 442.814 343.038 442.814" stroke="#AFAFC7" stroke-width="1.22812" stroke-dasharray="3.68 3.68"/>
<path d="M298.051 347.488C298.051 347.488 227.901 368.185 243.196 406.857C258.49 445.529 172.149 444.643 172.149 444.643" stroke="#AFAFC7" stroke-width="1.22812" stroke-dasharray="3.68 3.68"/>
<path d="M424.737 346.48C424.737 346.48 458.844 415.771 504.951 359.188C551.057 302.605 566.023 345.827 566.023 345.827" stroke="#AFAFC7" stroke-width="1.22812" stroke-dasharray="3.68 3.68"/>
<path d="M337.615 285.641C325.136 285.665 312.78 283.17 301.288 278.306C295.738 275.957 290.428 273.075 285.433 269.702C280.477 266.351 275.852 262.535 271.621 258.306C267.392 254.075 263.576 249.451 260.225 244.495C256.852 239.5 253.971 234.191 251.621 228.641C246.757 217.15 244.263 204.795 244.286 192.316C244.263 179.837 246.757 167.481 251.621 155.989C253.971 150.439 256.852 145.13 260.225 140.134C263.576 135.178 267.392 130.553 271.621 126.322C275.853 122.093 280.478 118.277 285.433 114.926C290.428 111.554 295.738 108.672 301.288 106.322C312.78 101.458 325.136 98.9639 337.615 98.9876C350.094 98.9637 362.449 101.458 373.94 106.322C379.49 108.672 384.799 111.553 389.793 114.926C394.749 118.277 399.374 122.093 403.606 126.322C407.835 130.553 411.65 135.178 415.001 140.134C418.374 145.129 421.256 150.439 423.605 155.989C428.469 167.481 430.964 179.837 430.94 192.316C430.964 204.795 428.469 217.15 423.605 228.641C421.255 234.191 418.374 239.5 415.001 244.495C411.65 249.451 407.835 254.075 403.606 258.306C399.375 262.535 394.749 266.351 389.793 269.702C384.799 273.075 379.49 275.956 373.94 278.306C362.449 283.17 350.094 285.665 337.615 285.641ZM337.615 156.704C328.174 156.715 319.122 160.47 312.446 167.146C305.77 173.822 302.015 182.874 302.004 192.315C302.015 201.756 305.77 210.808 312.446 217.484C319.122 224.16 328.174 227.915 337.615 227.926C347.057 227.916 356.108 224.16 362.784 217.484C369.46 210.808 373.216 201.757 373.227 192.315C373.216 182.874 369.46 173.821 362.784 167.145C356.108 160.469 347.057 156.715 337.615 156.704Z" fill="#26CB6F"/>
<mask id="mask1_3_260" style="mask-type:luminance" maskUnits="userSpaceOnUse" x="335" y="98" width="116" height="184">
<path d="M335.246 191.185L450.196 281.613V98.9883L335.246 191.185Z" fill="white"/>
</mask>
<g mask="url(#mask1_3_260)">
<path d="M338.229 285.738C325.75 285.762 313.394 283.267 301.902 278.403C296.352 276.054 291.042 273.172 286.047 269.799C281.091 266.448 276.466 262.632 272.235 258.403C268.006 254.172 264.19 249.548 260.839 244.592C257.466 239.597 254.585 234.288 252.235 228.738C247.371 217.247 244.877 204.892 244.9 192.413C244.877 179.934 247.371 167.578 252.235 156.086C254.585 150.536 257.466 145.227 260.839 140.231C264.19 135.275 268.006 130.65 272.235 126.419C276.467 122.19 281.092 118.374 286.047 115.023C291.042 111.651 296.352 108.769 301.902 106.419C313.394 101.555 325.75 99.0609 338.229 99.0846C350.708 99.0608 363.063 101.555 374.554 106.419C380.104 108.769 385.413 111.65 390.407 115.023C395.363 118.374 399.988 122.19 404.22 126.419C408.449 130.65 412.264 135.275 415.615 140.231C418.988 145.226 421.87 150.536 424.219 156.086C429.083 167.578 431.578 179.934 431.554 192.413C431.578 204.892 429.083 217.247 424.219 228.738C421.869 234.288 418.988 239.597 415.615 244.592C412.264 249.548 408.449 254.172 404.22 258.403C399.989 262.632 395.363 266.448 390.407 269.799C385.413 273.172 380.104 276.053 374.554 278.403C363.063 283.267 350.708 285.762 338.229 285.738ZM338.229 156.801C328.788 156.812 319.736 160.567 313.06 167.243C306.384 173.919 302.629 182.971 302.618 192.412C302.629 201.853 306.384 210.905 313.06 217.581C319.736 224.257 328.788 228.012 338.229 228.024C347.671 228.013 356.722 224.257 363.398 217.581C370.074 210.905 373.83 201.854 373.841 192.412C373.83 182.971 370.074 173.919 363.398 167.242C356.722 160.566 347.671 156.812 338.229 156.801Z" fill="#FC676A"/>
</g>
<path d="M473.369 83.7859C474.254 83.7255 475.137 83.9202 475.914 84.3468C476.691 84.7735 477.329 85.4141 477.753 86.1927L476.567 87.1555C476.315 86.5159 475.89 85.9593 475.339 85.5481C474.748 85.2029 474.069 85.0385 473.386 85.0753C472.661 85.0344 471.942 85.224 471.332 85.6168C471.101 85.7666 470.912 85.9718 470.782 86.2136C470.651 86.4553 470.583 86.726 470.584 87.0008C470.571 87.3294 470.675 87.6519 470.876 87.9119C471.142 88.1998 471.476 88.4157 471.848 88.5394C472.458 88.7578 473.089 88.9161 473.73 89.0122C474.87 89.1271 475.966 89.5164 476.923 90.1468C477.232 90.3986 477.478 90.7196 477.641 91.0839C477.804 91.4482 477.879 91.8457 477.86 92.2442C477.87 92.8529 477.68 93.4481 477.318 93.9376C476.92 94.4524 476.386 94.8454 475.776 95.0723C475.041 95.3542 474.259 95.4914 473.472 95.4763C472.454 95.5063 471.445 95.2755 470.541 94.8058C469.77 94.3947 469.129 93.7751 468.693 93.0178L469.879 92.0551C470.166 92.7052 470.642 93.2535 471.246 93.6282C471.932 94.0225 472.716 94.2161 473.507 94.1869C474.249 94.2233 474.987 94.0533 475.638 93.6957C475.884 93.5589 476.087 93.3577 476.226 93.1138C476.366 92.8699 476.436 92.5926 476.429 92.3118C476.432 92.0682 476.369 91.8284 476.248 91.6169C476.128 91.4054 475.953 91.2299 475.742 91.1083C474.98 90.7106 474.153 90.4543 473.3 90.3519C472.156 90.2258 471.056 89.8375 470.085 89.2173C469.774 88.974 469.526 88.6597 469.362 88.3007C469.197 87.9418 469.121 87.5487 469.14 87.1543C469.138 86.5535 469.318 85.9661 469.656 85.4695C470.025 84.9326 470.535 84.5077 471.129 84.2415C471.833 83.9245 472.598 83.7688 473.369 83.7859ZM485.145 86.5366C485.681 86.5118 486.216 86.6061 486.711 86.8127C487.206 87.0193 487.649 87.3331 488.008 87.7314C488.756 88.6534 489.133 89.8212 489.065 91.0064C489.132 92.1918 488.755 93.3596 488.007 94.2814C487.648 94.6796 487.205 94.9932 486.71 95.1998C486.215 95.4064 485.681 95.5008 485.145 95.4763C484.554 95.4846 483.971 95.3408 483.452 95.0587C482.973 94.8014 482.572 94.4196 482.292 93.9536V98.9146H480.916V86.7085H482.12L482.206 88.2042C482.463 87.6939 482.867 87.2719 483.366 86.9922C483.907 86.6832 484.522 86.5259 485.145 86.5366ZM484.991 94.2728C485.366 94.2895 485.741 94.2181 486.084 94.0643C486.427 93.9106 486.73 93.6788 486.968 93.3875C487.479 92.7026 487.735 91.8601 487.69 91.0064C487.735 90.1527 487.479 89.3102 486.968 88.6254C486.73 88.334 486.427 88.1022 486.084 87.9485C485.741 87.7948 485.366 87.7234 484.991 87.74C484.619 87.7254 484.25 87.7951 483.909 87.944C483.569 88.0929 483.267 88.317 483.026 88.5996C482.509 89.2529 482.248 90.0715 482.289 90.9033V91.1096C482.248 91.9414 482.509 92.7599 483.026 93.4133C483.267 93.6958 483.569 93.9199 483.909 94.0688C484.25 94.2177 484.619 94.2875 484.991 94.2728ZM499.311 94.3072C499.543 94.3069 499.774 94.278 499.999 94.2213L499.918 95.3043C499.587 95.4207 499.238 95.4789 498.886 95.4763C498.512 95.4959 498.141 95.3924 497.83 95.1815C497.688 95.0581 497.571 94.9078 497.487 94.7392C497.403 94.5707 497.353 94.3871 497.339 94.1992C497.053 94.619 496.649 94.9449 496.179 95.1361C495.671 95.3612 495.122 95.4771 494.566 95.4763C493.822 95.5065 493.087 95.2988 492.469 94.8831C492.199 94.6902 491.982 94.4324 491.838 94.1334C491.693 93.8345 491.627 93.504 491.644 93.1726C491.647 92.8432 491.726 92.519 491.876 92.2253C492.025 91.9316 492.24 91.6763 492.503 91.4792C493.235 90.9405 494.094 90.6019 494.996 90.4968L497.283 90.1186V89.6311C497.294 89.3774 497.253 89.124 497.161 88.8872C497.07 88.6504 496.929 88.4353 496.75 88.2557C496.55 88.0771 496.317 87.9396 496.064 87.8511C495.811 87.7626 495.544 87.7249 495.276 87.74C494.751 87.7267 494.233 87.8703 493.789 88.1526C493.35 88.4529 493.012 88.8782 492.818 89.3732L491.803 88.6364C492.036 87.9908 492.49 87.4486 493.084 87.1064C493.748 86.7177 494.507 86.5213 495.276 86.539C496.155 86.4953 497.022 86.7554 497.732 87.2758C498.048 87.5412 498.296 87.8772 498.457 88.2565C498.619 88.6359 498.688 89.0479 498.661 89.4592V93.6883C498.654 93.7721 498.664 93.8563 498.691 93.936C498.718 94.0158 498.76 94.0894 498.815 94.1525C498.954 94.2673 499.132 94.3229 499.311 94.3072ZM494.638 94.2728C495.297 94.2902 495.946 94.1107 496.503 93.7571C496.74 93.622 496.937 93.4269 497.074 93.1915C497.211 92.9561 497.284 92.6887 497.285 92.4161V91.2299L495.36 91.5909C494.753 91.6708 494.168 91.8725 493.641 92.184C493.469 92.2859 493.326 92.4305 493.227 92.6037C493.127 92.7769 493.074 92.9729 493.073 93.1726C493.066 93.3327 493.1 93.492 493.172 93.6351C493.245 93.7781 493.353 93.9001 493.486 93.9892C493.833 94.1972 494.234 94.2961 494.638 94.2728ZM512.5 86.5366C513.055 86.5327 513.604 86.6531 514.107 86.889C514.609 87.1269 515.03 87.5063 515.319 87.9807C515.644 88.5316 515.805 89.1638 515.783 89.803V95.3043H514.408V89.9405C514.433 89.6405 514.396 89.3386 514.3 89.0534C514.204 88.7681 514.051 88.5054 513.849 88.2815C513.652 88.0976 513.42 87.955 513.167 87.862C512.914 87.769 512.645 87.7275 512.376 87.74C511.932 87.7361 511.496 87.8519 511.112 88.0752C510.718 88.3102 510.396 88.6503 510.184 89.0576C509.938 89.5325 509.817 90.0618 509.831 90.5963V95.3043H508.456V89.9405C508.481 89.6407 508.445 89.3389 508.349 89.0536C508.253 88.7684 508.101 88.5056 507.9 88.2815C507.703 88.0976 507.471 87.955 507.218 87.862C506.965 87.769 506.696 87.7275 506.426 87.74C506.005 87.7423 505.591 87.8518 505.223 88.058C504.814 88.2891 504.48 88.6321 504.26 89.0466C503.992 89.5604 503.862 90.135 503.882 90.7142V95.3043H502.509V86.7085H503.712L503.798 88.0494C504.074 87.5664 504.483 87.1726 504.976 86.9148C505.462 86.6629 506.002 86.5331 506.549 86.5366C507.158 86.5312 507.758 86.679 508.294 86.9664C508.82 87.2463 509.245 87.6856 509.506 88.2214C509.758 87.6706 510.197 87.2263 510.744 86.9664C511.286 86.6873 511.887 86.54 512.497 86.5366H512.5Z" fill="#333348"/>
<path d="M471.687 120.797V132.144H468.833V123.703C468.093 124.428 467.162 124.929 466.149 125.144L465.876 122.705C466.565 122.6 467.227 122.364 467.827 122.009C468.413 121.722 468.926 121.308 469.331 120.797H471.687ZM479.288 124.82C479.948 124.803 480.602 124.954 481.188 125.258C481.707 125.538 482.133 125.962 482.416 126.479C482.708 127.026 482.856 127.638 482.845 128.258C482.872 129.05 482.669 129.832 482.26 130.51C481.879 131.11 481.328 131.583 480.678 131.869C479.968 132.176 479.201 132.328 478.428 132.316C477.521 132.342 476.621 132.16 475.796 131.783C475.037 131.393 474.409 130.789 473.99 130.046L476.586 128.568C476.661 128.997 476.865 129.393 477.171 129.702C477.533 129.983 477.987 130.118 478.443 130.081C478.904 130.107 479.358 129.96 479.715 129.668C479.877 129.513 480.002 129.324 480.082 129.116C480.162 128.907 480.195 128.683 480.179 128.46C480.188 128.242 480.154 128.025 480.077 127.821C480 127.617 479.883 127.431 479.732 127.273C479.373 126.973 478.91 126.825 478.443 126.861C478.111 126.831 477.777 126.876 477.465 126.992C477.152 127.108 476.87 127.292 476.638 127.531L474.403 127.205L475.125 120.797H482.208V123.084H477.274L477.016 125.215C476.982 125.41 476.953 125.548 476.93 125.628H476.947C477.213 125.353 477.545 125.149 477.91 125.035C478.354 124.887 478.82 124.814 479.288 124.82ZM486.508 129.187C486.967 129.159 487.418 129.307 487.772 129.599C487.927 129.747 488.048 129.926 488.127 130.125C488.205 130.324 488.24 130.538 488.228 130.751C488.239 130.962 488.204 131.173 488.125 131.369C488.046 131.565 487.926 131.741 487.772 131.886C487.418 132.178 486.967 132.326 486.508 132.298C486.049 132.326 485.597 132.179 485.242 131.886C485.089 131.741 484.968 131.565 484.89 131.369C484.811 131.173 484.776 130.962 484.787 130.751C484.775 130.538 484.809 130.324 484.888 130.125C484.966 129.926 485.087 129.747 485.242 129.599C485.596 129.307 486.048 129.159 486.506 129.187H486.508ZM495.325 124.82C495.985 124.803 496.639 124.954 497.225 125.258C497.744 125.538 498.171 125.962 498.453 126.479C498.746 127.026 498.894 127.638 498.883 128.258C498.91 129.05 498.707 129.832 498.298 130.51C497.918 131.11 497.368 131.583 496.718 131.869C496.007 132.176 495.24 132.328 494.466 132.316C493.56 132.342 492.66 132.16 491.835 131.783C491.077 131.393 490.449 130.789 490.03 130.046L492.626 128.573C492.701 129.002 492.905 129.398 493.211 129.707C493.573 129.988 494.027 130.123 494.483 130.086C494.944 130.112 495.398 129.965 495.755 129.673C495.917 129.517 496.043 129.328 496.123 129.118C496.203 128.909 496.236 128.684 496.219 128.46C496.228 128.242 496.193 128.025 496.117 127.821C496.04 127.617 495.923 127.431 495.772 127.273C495.413 126.973 494.95 126.825 494.483 126.861C494.151 126.831 493.817 126.876 493.505 126.992C493.192 127.108 492.91 127.292 492.678 127.531L490.443 127.205L491.165 120.792H498.248V123.079H493.314L493.056 125.21C493.022 125.405 492.993 125.543 492.97 125.623H492.987C493.253 125.348 493.584 125.144 493.95 125.03C494.393 124.884 494.858 124.813 495.325 124.82ZM503.766 120.625C504.193 120.606 504.62 120.675 505.019 120.827C505.418 120.979 505.782 121.212 506.087 121.511C506.384 121.822 506.615 122.191 506.765 122.594C506.916 122.998 506.984 123.427 506.964 123.857C506.984 124.287 506.916 124.717 506.765 125.12C506.615 125.523 506.384 125.892 506.087 126.204C505.782 126.503 505.418 126.735 505.019 126.888C504.62 127.04 504.193 127.108 503.766 127.089C503.34 127.108 502.913 127.04 502.514 126.888C502.115 126.735 501.751 126.503 501.446 126.204C501.149 125.892 500.918 125.523 500.767 125.12C500.617 124.717 500.549 124.287 500.569 123.857C500.549 123.427 500.617 122.998 500.767 122.594C500.918 122.191 501.149 121.822 501.446 121.511C501.751 121.212 502.115 120.979 502.514 120.827C502.913 120.675 503.34 120.606 503.766 120.625ZM510.953 120.78H513.187L505.297 132.144H503.062L510.953 120.78ZM503.766 122.585C503.624 122.578 503.482 122.605 503.352 122.663C503.222 122.721 503.108 122.809 503.019 122.92C502.826 123.193 502.732 123.524 502.752 123.857C502.732 124.191 502.826 124.521 503.019 124.794C503.108 124.905 503.222 124.993 503.352 125.052C503.482 125.11 503.624 125.137 503.766 125.129C503.911 125.138 504.056 125.112 504.189 125.054C504.322 124.995 504.439 124.906 504.531 124.794C504.724 124.521 504.818 124.191 504.798 123.857C504.818 123.524 504.724 123.193 504.531 122.92C504.439 122.808 504.322 122.719 504.189 122.661C504.056 122.603 503.911 122.577 503.766 122.585ZM512.448 125.851C512.875 125.832 513.301 125.901 513.701 126.053C514.1 126.206 514.464 126.438 514.769 126.737C515.066 127.049 515.297 127.417 515.447 127.821C515.598 128.224 515.666 128.653 515.646 129.084C515.666 129.514 515.598 129.943 515.447 130.346C515.297 130.75 515.066 131.118 514.769 131.43C514.463 131.729 514.098 131.962 513.698 132.115C513.298 132.267 512.871 132.335 512.443 132.316C512.016 132.335 511.59 132.266 511.191 132.114C510.792 131.961 510.428 131.729 510.122 131.43C509.827 131.118 509.597 130.749 509.447 130.346C509.297 129.943 509.23 129.513 509.251 129.084C509.231 128.654 509.299 128.225 509.45 127.823C509.601 127.42 509.831 127.052 510.127 126.741C510.432 126.442 510.795 126.209 511.193 126.056C511.592 125.903 512.017 125.833 512.443 125.851H512.448ZM512.448 127.816C512.303 127.808 512.158 127.834 512.025 127.892C511.893 127.95 511.775 128.039 511.683 128.151C511.491 128.425 511.397 128.755 511.417 129.088C511.397 129.422 511.491 129.752 511.683 130.025C511.775 130.138 511.893 130.227 512.025 130.285C512.158 130.343 512.303 130.369 512.448 130.361C512.593 130.369 512.738 130.343 512.871 130.285C513.004 130.227 513.121 130.138 513.213 130.025C513.406 129.752 513.5 129.422 513.48 129.088C513.5 128.755 513.406 128.425 513.213 128.151C513.121 128.038 513.003 127.947 512.869 127.888C512.736 127.829 512.589 127.803 512.443 127.811L512.448 127.816Z" fill="#FC676A"/>
<path d="M143.23 95.3043H141.854V83.9578H143.23V95.3043ZM151.295 86.5366C152.175 86.503 153.035 86.804 153.702 87.379C154.027 87.6894 154.28 88.0673 154.444 88.4861C154.607 88.9049 154.676 89.3544 154.647 89.803V95.3043H153.272V90.2844C153.335 89.587 153.129 88.892 152.696 88.3417C152.496 88.1392 152.256 87.981 151.991 87.8773C151.726 87.7737 151.442 87.7269 151.157 87.74C150.71 87.7374 150.268 87.8405 149.868 88.0408C149.447 88.2611 149.102 88.6035 148.88 89.0232C148.604 89.5501 148.471 90.1397 148.493 90.7338V95.3043H147.12V86.7085H148.323L148.409 88.0494C148.675 87.5535 149.09 87.1537 149.595 86.9062C150.126 86.6542 150.708 86.5277 151.295 86.5366ZM162.504 86.5366C163.04 86.5118 163.574 86.6061 164.069 86.8127C164.564 87.0193 165.007 87.3331 165.366 87.7314C166.113 88.6537 166.489 89.8215 166.421 91.0064C166.489 92.1916 166.112 93.3594 165.364 94.2814C165.005 94.6797 164.562 94.9935 164.067 95.2001C163.572 95.4067 163.037 95.501 162.502 95.4762C161.878 95.487 161.264 95.3296 160.722 95.0207C160.224 94.7409 159.82 94.3189 159.562 93.8087L159.476 95.3043H158.272V82.7544H159.645V88.0494C159.926 87.5834 160.327 87.2016 160.806 86.9443C161.327 86.6652 161.911 86.5248 162.502 86.5366H162.504ZM162.347 94.2728C162.723 94.2894 163.097 94.2181 163.44 94.0643C163.783 93.9106 164.086 93.6788 164.324 93.3875C164.836 92.7029 165.093 91.8604 165.048 91.0064C165.093 90.1527 164.838 89.3102 164.326 88.6254C164.088 88.3336 163.785 88.1016 163.442 87.9479C163.098 87.7942 162.723 87.723 162.347 87.74C161.976 87.7253 161.606 87.7951 161.266 87.944C160.925 88.0929 160.623 88.317 160.382 88.5996C159.866 89.2529 159.604 90.0715 159.645 90.9033V91.1096C159.604 91.9413 159.866 92.7599 160.382 93.4132C160.623 93.6958 160.925 93.9199 161.266 94.0688C161.606 94.2177 161.976 94.2875 162.347 94.2728ZM173.246 86.5366C173.81 86.5062 174.374 86.5963 174.9 86.8008C175.426 87.0053 175.903 87.3197 176.298 87.7228C177.078 88.6326 177.474 89.81 177.403 91.0064C177.474 92.2029 177.078 93.3802 176.298 94.29C175.903 94.6932 175.426 95.0075 174.9 95.212C174.374 95.4165 173.81 95.5066 173.246 95.4762C172.683 95.5066 172.119 95.4165 171.593 95.212C171.067 95.0075 170.59 94.6932 170.195 94.29C169.414 93.3802 169.018 92.2029 169.09 91.0064C169.018 89.81 169.414 88.6326 170.195 87.7228C170.59 87.3197 171.067 87.0053 171.593 86.8008C172.119 86.5963 172.683 86.5062 173.246 86.5366ZM173.246 87.7228C172.861 87.7035 172.476 87.7724 172.122 87.9243C171.767 88.0763 171.452 88.3072 171.201 88.5996C170.675 89.2878 170.413 90.1418 170.464 91.0064C170.413 91.871 170.675 92.725 171.201 93.4132C171.452 93.7056 171.767 93.9365 172.122 94.0885C172.476 94.2404 172.861 94.3094 173.246 94.29C173.632 94.3094 174.016 94.2404 174.371 94.0885C174.725 93.9365 175.04 93.7056 175.292 93.4132C175.818 92.725 176.079 91.871 176.029 91.0064C176.079 90.1418 175.818 89.2878 175.292 88.5996C175.04 88.3072 174.725 88.0763 174.371 87.9243C174.016 87.7724 173.632 87.7035 173.246 87.7228ZM185.538 95.3043L183.166 91.9888L180.725 95.3043H179.128L182.429 90.972L179.332 86.7085H181.051L183.321 89.8889L185.556 86.7085H187.172L184.06 90.9204L187.223 95.3043H185.538Z" fill="#333348"/>
<path d="M146.371 120.797V122.895C145.11 124.066 144.128 125.507 143.5 127.109C142.919 128.723 142.634 130.428 142.657 132.144H139.735C139.72 130.493 140.026 128.855 140.637 127.321C141.3 125.747 142.267 124.318 143.483 123.118H137.036V120.797H146.371ZM152.99 124.82C153.65 124.803 154.303 124.954 154.889 125.258C155.408 125.538 155.835 125.962 156.117 126.479C156.41 127.026 156.558 127.638 156.547 128.258C156.574 129.05 156.371 129.832 155.961 130.51C155.581 131.11 155.032 131.583 154.382 131.869C153.672 132.176 152.904 132.328 152.13 132.316C151.224 132.342 150.324 132.16 149.5 131.783C148.741 131.393 148.114 130.789 147.695 130.046L150.291 128.573C150.365 129.002 150.569 129.398 150.875 129.707C151.237 129.988 151.691 130.123 152.147 130.086C152.608 130.112 153.062 129.965 153.419 129.673C153.581 129.517 153.707 129.328 153.787 129.118C153.867 128.909 153.9 128.684 153.884 128.46C153.893 128.242 153.858 128.025 153.781 127.821C153.704 127.617 153.587 127.431 153.437 127.273C153.077 126.973 152.614 126.825 152.147 126.861C151.815 126.831 151.481 126.876 151.169 126.992C150.857 127.108 150.574 127.292 150.342 127.531L148.102 127.21L148.824 120.797H155.912V123.084H150.978L150.72 125.215C150.686 125.41 150.657 125.548 150.634 125.628H150.652C150.918 125.353 151.249 125.149 151.614 125.035C152.057 124.887 152.522 124.814 152.99 124.82ZM160.21 129.187C160.668 129.159 161.12 129.307 161.474 129.599C161.629 129.747 161.75 129.926 161.828 130.125C161.907 130.324 161.941 130.538 161.929 130.751C161.94 130.962 161.905 131.173 161.827 131.369C161.748 131.565 161.627 131.741 161.474 131.886C161.12 132.178 160.668 132.326 160.21 132.298C159.752 132.326 159.3 132.178 158.947 131.886C158.793 131.741 158.672 131.565 158.594 131.369C158.515 131.173 158.48 130.962 158.491 130.751C158.479 130.538 158.513 130.324 158.592 130.125C158.671 129.926 158.792 129.747 158.947 129.599C159.3 129.307 159.752 129.159 160.21 129.187ZM169.029 124.82C169.69 124.803 170.343 124.954 170.929 125.258C171.448 125.538 171.875 125.962 172.157 126.479C172.45 127.026 172.598 127.638 172.587 128.258C172.614 129.05 172.411 129.832 172.002 130.51C171.622 131.11 171.072 131.583 170.422 131.869C169.712 132.176 168.944 132.328 168.17 132.316C167.264 132.342 166.364 132.16 165.54 131.783C164.781 131.393 164.153 130.789 163.734 130.046L166.33 128.573C166.405 129.002 166.609 129.398 166.915 129.707C167.277 129.988 167.731 130.123 168.187 130.086C168.648 130.112 169.102 129.965 169.459 129.673C169.621 129.517 169.747 129.328 169.827 129.118C169.907 128.909 169.94 128.684 169.923 128.46C169.932 128.242 169.897 128.025 169.821 127.821C169.744 127.617 169.627 127.431 169.476 127.273C169.117 126.973 168.654 126.825 168.187 126.861C167.855 126.831 167.521 126.876 167.209 126.992C166.896 127.108 166.614 127.292 166.382 127.531L164.147 127.205L164.869 120.792H171.952V123.079H167.013L166.755 125.21C166.721 125.405 166.692 125.543 166.669 125.623H166.686C166.953 125.348 167.284 125.144 167.649 125.03C168.094 124.883 168.561 124.812 169.029 124.82ZM177.471 120.625C177.897 120.606 178.324 120.675 178.723 120.827C179.122 120.979 179.486 121.212 179.791 121.511C180.088 121.822 180.319 122.191 180.47 122.594C180.62 122.998 180.688 123.427 180.668 123.857C180.688 124.287 180.62 124.717 180.47 125.12C180.319 125.523 180.088 125.892 179.791 126.204C179.486 126.503 179.122 126.735 178.723 126.888C178.324 127.04 177.897 127.108 177.471 127.089C177.044 127.108 176.617 127.04 176.218 126.888C175.819 126.735 175.455 126.503 175.15 126.204C174.853 125.892 174.622 125.523 174.472 125.12C174.321 124.717 174.253 124.287 174.273 123.857C174.253 123.427 174.321 122.998 174.472 122.594C174.622 122.191 174.853 121.822 175.15 121.511C175.455 121.212 175.819 120.979 176.218 120.827C176.617 120.675 177.044 120.606 177.471 120.625ZM184.657 120.78H186.892L179.001 132.144H176.766L184.657 120.78ZM177.471 122.585C177.328 122.578 177.186 122.605 177.056 122.663C176.926 122.721 176.812 122.809 176.723 122.92C176.53 123.193 176.436 123.524 176.456 123.857C176.436 124.191 176.53 124.521 176.723 124.794C176.812 124.905 176.926 124.993 177.056 125.052C177.186 125.11 177.328 125.137 177.471 125.129C177.616 125.138 177.76 125.112 177.893 125.054C178.026 124.995 178.144 124.906 178.236 124.794C178.428 124.521 178.522 124.191 178.502 123.857C178.522 123.524 178.428 123.193 178.236 122.92C178.144 122.808 178.026 122.719 177.893 122.661C177.76 122.603 177.616 122.577 177.471 122.585ZM186.152 125.851C186.579 125.832 187.005 125.901 187.405 126.053C187.804 126.206 188.168 126.438 188.473 126.737C188.77 127.049 189.001 127.417 189.151 127.821C189.302 128.224 189.37 128.653 189.35 129.084C189.37 129.514 189.302 129.943 189.151 130.346C189.001 130.75 188.77 131.118 188.473 131.43C188.168 131.729 187.804 131.961 187.405 132.114C187.005 132.266 186.579 132.335 186.152 132.316C185.726 132.334 185.301 132.265 184.903 132.113C184.504 131.961 184.141 131.728 183.836 131.43C183.54 131.118 183.309 130.75 183.158 130.346C183.008 129.943 182.94 129.514 182.96 129.084C182.941 128.654 183.008 128.225 183.159 127.823C183.31 127.42 183.54 127.052 183.836 126.741C184.141 126.442 184.504 126.209 184.902 126.056C185.301 125.903 185.726 125.833 186.152 125.851ZM186.152 127.816C186.007 127.808 185.863 127.834 185.73 127.892C185.597 127.95 185.479 128.039 185.387 128.151C185.195 128.425 185.101 128.755 185.121 129.088C185.101 129.422 185.195 129.752 185.387 130.025C185.479 130.138 185.597 130.227 185.73 130.285C185.863 130.343 186.007 130.369 186.152 130.361C186.297 130.369 186.442 130.343 186.575 130.285C186.708 130.227 186.825 130.138 186.917 130.025C187.11 129.752 187.204 129.422 187.184 129.088C187.204 128.755 187.11 128.425 186.917 128.151C186.826 128.038 186.709 127.948 186.576 127.889C186.443 127.83 186.298 127.803 186.152 127.811V127.816Z" fill="#26CB6F"/>
<path d="M197.099 114.338H129.56V138.898H197.099V114.338Z" stroke="#26CB6F" stroke-width="1.22798"/>
<path d="M526.197 114.338H458.658V138.898H526.197V114.338Z" stroke="#FC676A" stroke-width="1.22798"/>
<path d="M168.241 482.117C189.265 482.117 206.308 465.074 206.308 444.05C206.308 423.026 189.265 405.983 168.241 405.983C147.217 405.983 130.174 423.026 130.174 444.05C130.174 465.074 147.217 482.117 168.241 482.117Z" fill="#F4F4FA"/>
<path d="M168.241 481.503C188.926 481.503 205.694 464.735 205.694 444.05C205.694 423.365 188.926 406.597 168.241 406.597C147.556 406.597 130.788 423.365 130.788 444.05C130.788 464.735 147.556 481.503 168.241 481.503Z" stroke="#AFAFC7" stroke-width="1.22798"/>
<path d="M340.158 499.309C361.182 499.309 378.225 482.266 378.225 461.242C378.225 440.218 361.182 423.174 340.158 423.174C319.134 423.174 302.091 440.218 302.091 461.242C302.091 482.266 319.134 499.309 340.158 499.309Z" fill="#F4F4FA"/>
<path d="M340.158 498.695C360.843 498.695 377.611 481.927 377.611 461.242C377.611 440.557 360.843 423.788 340.158 423.788C319.473 423.788 302.705 440.557 302.705 461.242C302.705 481.927 319.473 498.695 340.158 498.695Z" stroke="#AFAFC7" stroke-width="1.22798"/>
<path d="M512.075 482.117C533.099 482.117 550.142 465.074 550.142 444.05C550.142 423.026 533.099 405.983 512.075 405.983C491.051 405.983 474.008 423.026 474.008 444.05C474.008 465.074 491.051 482.117 512.075 482.117Z" fill="#F4F4FA"/>
<path d="M512.075 481.503C532.76 481.503 549.528 464.735 549.528 444.05C549.528 423.365 532.76 406.597 512.075 406.597C491.39 406.597 474.622 423.365 474.622 444.05C474.622 464.735 491.39 481.503 512.075 481.503Z" stroke="#AFAFC7" stroke-width="1.22798"/>
<path d="M610.313 378.967C631.337 378.967 648.381 361.924 648.381 340.9C648.381 319.876 631.337 302.833 610.313 302.833C589.289 302.833 572.246 319.876 572.246 340.9C572.246 361.924 589.289 378.967 610.313 378.967Z" fill="#F4F4FA"/>
<path d="M610.313 378.353C630.998 378.353 647.767 361.585 647.767 340.9C647.767 320.215 630.998 303.447 610.313 303.447C589.628 303.447 572.86 320.215 572.86 340.9C572.86 361.585 589.628 378.353 610.313 378.353Z" stroke="#AFAFC7" stroke-width="1.22798"/>
<path d="M70.0029 378.967C91.0269 378.967 108.07 361.924 108.07 340.9C108.07 319.876 91.0269 302.833 70.0029 302.833C48.9789 302.833 31.9355 319.876 31.9355 340.9C31.9355 361.924 48.9789 378.967 70.0029 378.967Z" fill="#F4F4FA"/>
<path d="M70.0029 378.353C90.6878 378.353 107.456 361.585 107.456 340.9C107.456 320.215 90.6878 303.447 70.0029 303.447C49.318 303.447 32.5495 320.215 32.5495 340.9C32.5495 361.585 49.318 378.353 70.0029 378.353Z" stroke="#AFAFC7" stroke-width="1.22798"/>
<path d="M265.251 304.061H245.604V339.672H265.251V304.061Z" stroke="#26CB6F" stroke-width="2.45596"/>
<path d="M386.821 312.656H367.174V339.672H386.821V312.656Z" stroke="#26CB6F" stroke-width="2.45596"/>
<path d="M427.344 296.693H407.697V339.672H427.344V296.693Z" stroke="#26CB6F" stroke-width="2.45596"/>
<path d="M307.003 312.656H287.355V339.672H307.003V312.656Z" stroke="#F88227" stroke-width="2.45596"/>
<path d="M346.298 327.392H326.65V339.672H346.298V327.392Z" stroke="#FC676A" stroke-width="2.45596"/>
<path d="M79.8549 331.098H58.9793V351.974H79.8549V331.098Z" fill="#ECEFF1"/>
<path d="M69.4171 343.921L80.0305 352.302V335.756L69.4171 343.921Z" fill="#CFD8DC"/>
<path d="M80.9147 331.076H80.0305L69.4171 339.457L58.8049 331.076H57.9208C57.217 331.076 56.542 331.356 56.0444 331.853C55.5467 332.351 55.2671 333.026 55.2671 333.73V349.648C55.2671 350.352 55.5467 351.027 56.0444 351.524C56.542 352.022 57.217 352.302 57.9208 352.302H58.8049V335.756L69.4183 343.919L80.0318 335.755V352.302H80.9159C81.6197 352.302 82.2947 352.022 82.7923 351.524C83.29 351.027 83.5696 350.352 83.5696 349.648V333.73C83.5696 333.381 83.5009 333.036 83.3675 332.714C83.234 332.392 83.0384 332.099 82.7919 331.853C82.5453 331.606 82.2527 331.411 81.9306 331.278C81.6085 331.144 81.2633 331.076 80.9147 331.076Z" fill="#F44336"/>
<path d="M180.603 435.487H170.779C170.73 435.487 170.681 435.498 170.636 435.517C170.591 435.537 170.551 435.566 170.518 435.603C170.485 435.639 170.46 435.682 170.444 435.729C170.429 435.776 170.423 435.825 170.428 435.874L170.62 437.861C170.628 437.945 170.666 438.023 170.727 438.082C170.787 438.14 170.867 438.175 170.951 438.179L173.004 438.292L169.064 443.76L164.762 435.193L167.865 435.07C167.956 435.066 168.041 435.028 168.104 434.964C168.167 434.899 168.203 434.813 168.204 434.722L168.226 432.945C168.227 432.899 168.218 432.852 168.201 432.809C168.184 432.766 168.158 432.726 168.125 432.693C168.092 432.66 168.053 432.633 168.01 432.615C167.967 432.597 167.921 432.588 167.874 432.588H156.314C156.267 432.588 156.22 432.598 156.177 432.616C156.134 432.634 156.094 432.661 156.061 432.694C156.029 432.728 156.003 432.768 155.986 432.812C155.968 432.855 155.96 432.902 155.961 432.949V434.929C155.961 435.021 155.998 435.11 156.063 435.176C156.128 435.242 156.216 435.28 156.309 435.281L159.575 435.328L165.785 446.287L165.757 453.132L161.438 453.309C161.349 453.313 161.264 453.351 161.201 453.415C161.138 453.479 161.102 453.564 161.1 453.654L161.066 455.485C161.065 455.532 161.074 455.578 161.091 455.622C161.108 455.665 161.134 455.705 161.167 455.738C161.2 455.772 161.239 455.798 161.282 455.816C161.325 455.834 161.372 455.844 161.418 455.844H174.926C174.974 455.844 175.021 455.834 175.065 455.815C175.109 455.797 175.148 455.769 175.181 455.735C175.214 455.7 175.24 455.66 175.257 455.615C175.273 455.57 175.281 455.523 175.279 455.475L175.184 453.663C175.18 453.576 175.143 453.493 175.081 453.431C175.02 453.37 174.937 453.333 174.85 453.329L171.134 453.133L170.593 446.467L177.263 438.428L179.979 438.306C180.052 438.303 180.121 438.278 180.179 438.234C180.237 438.19 180.279 438.129 180.301 438.06L180.931 435.96C180.949 435.907 180.954 435.85 180.946 435.795C180.938 435.739 180.917 435.686 180.884 435.641C180.852 435.595 180.808 435.558 180.758 435.532C180.709 435.507 180.653 435.493 180.597 435.494L180.603 435.487Z" fill="#7F40BD"/>
<path d="M358.276 452.216H341.886C341.575 452.216 341.277 452.339 341.058 452.559C340.838 452.779 340.715 453.076 340.715 453.387C340.715 453.697 340.838 453.995 341.058 454.215C341.277 454.434 341.575 454.558 341.886 454.558H354.864L347.671 460.151L342.513 456.871L341.258 458.847L347.112 462.57C347.316 462.701 347.556 462.765 347.797 462.754C348.039 462.742 348.272 462.657 348.463 462.508L357.11 455.781V470.949H341.886C341.575 470.949 341.277 471.072 341.058 471.292C340.838 471.511 340.715 471.809 340.715 472.12C340.715 472.43 340.838 472.728 341.058 472.948C341.277 473.167 341.575 473.291 341.886 473.291H358.276C358.586 473.29 358.883 473.167 359.103 472.948C359.322 472.728 359.446 472.431 359.446 472.12V453.386C359.446 453.076 359.322 452.779 359.103 452.559C358.883 452.34 358.586 452.216 358.276 452.216Z" fill="#1976D2"/>
<path d="M342.634 445.461C342.502 445.351 342.347 445.271 342.18 445.229C342.014 445.186 341.84 445.182 341.671 445.215L322.939 448.725C322.672 448.774 322.43 448.916 322.255 449.125C322.081 449.334 321.985 449.597 321.984 449.869V475.631C321.984 475.904 322.079 476.168 322.254 476.378C322.428 476.588 322.671 476.731 322.939 476.78L341.671 480.292C341.742 480.306 341.814 480.313 341.886 480.313C342.196 480.313 342.494 480.19 342.713 479.971C342.933 479.751 343.056 479.453 343.056 479.143V446.356C343.056 446.185 343.017 446.016 342.944 445.862C342.871 445.707 342.765 445.57 342.634 445.461Z" fill="#2196F3"/>
<path d="M332.521 470.949C329.294 470.949 326.667 467.797 326.667 463.925C326.667 460.053 329.294 456.901 332.521 456.901C335.748 456.901 338.375 460.053 338.375 463.925C338.375 467.797 335.748 470.949 332.521 470.949ZM332.521 459.241C330.585 459.241 329.009 461.341 329.009 463.925C329.009 466.508 330.585 468.608 332.521 468.608C334.458 468.608 336.033 466.508 336.033 463.925C336.033 461.341 334.458 459.241 332.521 459.241Z" fill="#FAFAFA"/>
<path fill-rule="evenodd" clip-rule="evenodd" d="M494.629 434.08L512.075 424.111L529.521 434.08V454.019L512.075 463.987L494.629 454.019V434.08Z" fill="url(#paint0_linear_3_260)"/>
<path fill-rule="evenodd" clip-rule="evenodd" d="M522.165 437.34V441.589L511.745 446.22L501.325 441.589V437.34H499.483V452.936H523.957V437.34H522.165ZM522.165 451.137H501.372V443.677L511.792 448.307L522.213 443.677V451.142L522.165 451.137Z" fill="white"/>
<path fill-rule="evenodd" clip-rule="evenodd" d="M511.745 430.679L499.532 436.159V438.568H501.374V437.387L511.742 432.71L522.163 437.387V438.568H524.005V436.159L511.745 430.679ZM505.048 443.294V440.311H518.433V443.287L520.32 442.438V438.427H503.21V442.443L505.052 443.292L505.048 443.294Z" fill="white"/>
<path d="M605.713 355.704C600.838 355.676 596.805 345.855 596.805 340.853C596.805 332.683 603.017 330.894 605.41 330.894C606.529 330.973 607.626 331.24 608.657 331.683C609.249 331.938 609.872 332.115 610.511 332.207C610.97 332.119 611.416 331.977 611.841 331.782C613.103 331.208 614.464 330.884 615.849 330.826H615.859C617.197 330.797 618.522 331.093 619.72 331.69C620.918 332.287 621.953 333.166 622.735 334.252L623.236 334.996L622.514 335.534C621.654 336.048 620.937 336.769 620.428 337.633C619.919 338.496 619.636 339.473 619.603 340.475C619.577 341.547 619.861 342.603 620.42 343.518C620.979 344.433 621.79 345.167 622.756 345.632C623.208 345.9 623.676 346.178 623.676 346.782C623.676 347.177 620.483 355.656 615.844 355.656C614.927 355.638 614.025 355.422 613.199 355.023C612.467 354.661 611.662 354.47 610.845 354.463C610.201 354.529 609.572 354.697 608.981 354.96C607.957 355.402 606.861 355.654 605.748 355.704H605.713Z" fill="black"/>
<path d="M616.573 322.48C616.707 327.296 613.258 330.638 609.82 330.429C609.251 326.585 613.258 322.48 616.573 322.48Z" fill="black"/>
</g>
</g>
<defs>
<linearGradient id="paint0_linear_3_260" x1="512.075" y1="424.111" x2="512.075" y2="463.987" gradientUnits="userSpaceOnUse">
<stop stop-color="#F58536"/>
<stop offset="1" stop-color="#D16929"/>
</linearGradient>
<clipPath id="clip0_3_260">
<rect width="683.984" height="558.73" fill="white" transform="translate(0.00811768 0.75)"/>
</clipPath>
</defs>
</svg>
