<svg width="675" height="261" viewBox="0 0 675 261" fill="none" xmlns="http://www.w3.org/2000/svg">
<g opacity="0.6">
<path d="M598.63 0.245728H112.351C94.7181 0.245728 80.4237 14.5401 80.4237 32.1732C80.4237 49.8062 94.7181 64.1006 112.351 64.1006H598.63C616.263 64.1006 630.558 49.8062 630.558 32.1732C630.558 14.5401 616.263 0.245728 598.63 0.245728Z" fill="#F4F4FA"/>
<path d="M641.61 64.1006H120.947C102.636 64.1006 87.7916 78.9448 87.7916 97.256C87.7916 115.567 102.636 130.411 120.947 130.411H641.61C659.921 130.411 674.765 115.567 674.765 97.256C674.765 78.9448 659.921 64.1006 641.61 64.1006Z" fill="#F4F4FA"/>
<path d="M557.493 130.411H31.9186C14.6247 130.411 0.605164 144.431 0.605164 161.725C0.605164 179.019 14.6247 193.038 31.9186 193.038H557.493C574.787 193.038 588.807 179.019 588.807 161.725C588.807 144.431 574.787 130.411 557.493 130.411Z" fill="#F4F4FA"/>
<path d="M587.579 193.038H102.527C84.2161 193.038 69.3719 207.882 69.3719 226.194C69.3719 244.505 84.2161 259.349 102.527 259.349H587.579C605.89 259.349 620.734 244.505 620.734 226.194C620.734 207.882 605.89 193.038 587.579 193.038Z" fill="#F4F4FA"/>
</g>
<path d="M200.766 54.2767H463.553C466.484 54.2767 469.295 55.4411 471.368 57.5137C473.44 59.5863 474.605 62.3974 474.605 65.3285V238.473C474.605 238.799 474.475 239.111 474.245 239.342C474.015 239.572 473.702 239.701 473.377 239.701H190.942C190.616 239.701 190.304 239.572 190.073 239.342C189.843 239.111 189.714 238.799 189.714 238.473V65.3285C189.714 62.3974 190.878 59.5863 192.951 57.5137C195.023 55.4411 197.834 54.2767 200.766 54.2767Z" stroke="#AFAFC7" stroke-width="2.45596"/>
<path d="M222.869 73.9244H440.221C443.152 73.9244 445.964 75.0888 448.036 77.1614C450.109 79.234 451.273 82.0451 451.273 84.9762V238.473C451.273 238.799 451.144 239.111 450.913 239.342C450.683 239.572 450.371 239.701 450.045 239.701H213.045C212.72 239.701 212.407 239.572 212.177 239.342C211.947 239.111 211.817 238.799 211.817 238.473V84.9762C211.817 82.0451 212.982 79.234 215.054 77.1614C217.127 75.0888 219.938 73.9244 222.869 73.9244Z" stroke="#AFAFC7" stroke-width="2.45596"/>
<path d="M157.287 239.701H508.26C508.356 239.701 508.45 239.72 508.539 239.757C508.627 239.793 508.707 239.847 508.775 239.915C508.842 239.982 508.896 240.063 508.933 240.151C508.969 240.239 508.988 240.334 508.988 240.43V242.612C508.988 247.051 507.225 251.308 504.086 254.447C500.947 257.586 496.69 259.349 492.251 259.349H175.478C170.46 259.349 165.648 257.356 162.1 253.808C158.552 250.26 156.558 245.447 156.558 240.43C156.558 240.236 156.635 240.051 156.772 239.915C156.908 239.778 157.093 239.701 157.287 239.701Z" stroke="#AFAFC7" stroke-width="2.45596"/>
<path d="M278.813 170.468C279.698 170.408 280.581 170.602 281.358 171.029C282.135 171.456 282.774 172.096 283.197 172.875L282.011 173.838C281.759 173.198 281.334 172.641 280.783 172.23C280.193 171.885 279.514 171.721 278.832 171.757C278.107 171.717 277.388 171.906 276.777 172.299C276.547 172.449 276.358 172.654 276.227 172.896C276.097 173.137 276.029 173.408 276.03 173.683C276.017 174.011 276.121 174.334 276.322 174.594C276.587 174.882 276.922 175.098 277.293 175.222C277.904 175.44 278.534 175.598 279.176 175.694C280.316 175.809 281.411 176.199 282.368 176.829C282.678 177.081 282.924 177.402 283.087 177.766C283.25 178.13 283.324 178.528 283.305 178.926C283.316 179.535 283.126 180.13 282.764 180.62C282.367 181.134 281.834 181.527 281.225 181.754C280.491 182.036 279.708 182.174 278.921 182.158C277.903 182.189 276.894 181.958 275.99 181.488C275.221 181.076 274.583 180.456 274.148 179.7L275.335 178.737C275.621 179.387 276.098 179.936 276.701 180.31C277.388 180.705 278.171 180.898 278.962 180.869C279.704 180.905 280.442 180.735 281.094 180.378C281.339 180.241 281.542 180.04 281.682 179.796C281.821 179.552 281.891 179.275 281.885 178.994C281.887 178.75 281.825 178.511 281.704 178.299C281.583 178.088 281.408 177.912 281.197 177.79C280.431 177.391 279.599 177.136 278.741 177.035C277.596 176.909 276.496 176.521 275.526 175.901C275.215 175.657 274.967 175.343 274.802 174.984C274.638 174.625 274.562 174.232 274.581 173.838C274.579 173.237 274.758 172.65 275.096 172.153C275.465 171.616 275.975 171.191 276.57 170.925C277.274 170.607 278.041 170.451 278.813 170.468ZM290.71 170.64C291.718 170.592 292.707 170.927 293.478 171.577C293.827 171.894 294.102 172.284 294.283 172.719C294.465 173.154 294.548 173.624 294.527 174.095C294.547 174.567 294.464 175.037 294.283 175.472C294.101 175.907 293.826 176.297 293.477 176.614C292.705 177.264 291.717 177.599 290.709 177.551H288.074V181.986H286.698V170.64H290.71ZM290.504 176.262C291.197 176.319 291.889 176.128 292.455 175.724C292.674 175.517 292.843 175.263 292.952 174.982C293.06 174.701 293.105 174.4 293.083 174.099C293.105 173.799 293.06 173.497 292.952 173.216C292.843 172.935 292.674 172.682 292.455 172.475C291.889 172.069 291.198 171.877 290.504 171.933H288.074V176.262H290.504ZM303.26 178.84H298.12L296.915 181.986H295.472L299.893 170.64H301.526L305.925 181.986H304.463L303.26 178.84ZM302.761 177.551L301.231 173.528L300.698 171.947H300.664L300.166 173.477L298.618 177.551H302.761ZM319.712 181.986H318.405V174.852L318.559 171.861H318.542L314.813 181.986H313.644L309.913 171.861H309.896L310.054 174.852V181.986H308.744V170.64H310.859L313.352 177.534L314.211 180.37H314.246L315.122 177.546L317.598 170.64H319.712V181.986ZM333.689 173.219C334.457 173.193 335.215 173.4 335.864 173.812C336.476 174.234 336.956 174.821 337.248 175.505L335.941 176.119C335.82 175.613 335.525 175.165 335.107 174.855C334.688 174.545 334.175 174.392 333.655 174.422C333.274 174.403 332.894 174.472 332.544 174.622C332.194 174.772 331.883 175.001 331.635 175.29C331.111 175.976 330.849 176.827 330.898 177.689C330.849 178.55 331.111 179.401 331.635 180.087C331.883 180.376 332.194 180.605 332.544 180.755C332.894 180.906 333.274 180.974 333.655 180.955C334.226 180.982 334.791 180.822 335.262 180.499C335.682 180.175 335.967 179.706 336.062 179.184L337.334 179.631C337.078 180.378 336.6 181.028 335.965 181.495C335.298 181.951 334.503 182.183 333.695 182.157C333.132 182.188 332.568 182.097 332.042 181.893C331.516 181.688 331.039 181.374 330.644 180.971C329.864 180.061 329.467 178.884 329.539 177.687C329.467 176.491 329.864 175.313 330.644 174.404C331.039 174.002 331.514 173.688 332.039 173.484C332.564 173.279 333.127 173.189 333.689 173.219ZM343.901 173.219C344.465 173.188 345.029 173.278 345.555 173.483C346.081 173.687 346.558 174.002 346.953 174.405C347.733 175.315 348.129 176.492 348.058 177.689C348.129 178.885 347.733 180.062 346.953 180.972C346.12 181.735 345.031 182.159 343.901 182.159C342.771 182.159 341.683 181.735 340.85 180.972C340.069 180.062 339.673 178.885 339.744 177.689C339.673 176.492 340.069 175.315 340.85 174.405C341.245 174.002 341.721 173.687 342.248 173.483C342.774 173.278 343.337 173.188 343.901 173.219ZM343.901 174.405C343.517 174.386 343.133 174.455 342.779 174.607C342.425 174.759 342.11 174.99 341.859 175.282C341.333 175.97 341.072 176.824 341.122 177.689C341.072 178.553 341.333 179.407 341.859 180.095C342.123 180.373 342.44 180.593 342.792 180.744C343.144 180.895 343.522 180.973 343.905 180.973C344.288 180.973 344.666 180.895 345.018 180.744C345.37 180.593 345.687 180.373 345.951 180.095C346.476 179.407 346.738 178.553 346.687 177.689C346.738 176.824 346.476 175.97 345.951 175.282C345.699 174.989 345.383 174.758 345.028 174.606C344.672 174.454 344.287 174.385 343.901 174.405ZM355.42 173.219C356.3 173.185 357.16 173.486 357.826 174.061C358.152 174.372 358.405 174.749 358.568 175.168C358.732 175.587 358.801 176.037 358.772 176.485V181.986H357.397V176.966C357.46 176.269 357.254 175.574 356.821 175.024C356.621 174.821 356.38 174.663 356.115 174.559C355.85 174.456 355.566 174.409 355.282 174.422C354.835 174.42 354.393 174.523 353.993 174.723C353.572 174.943 353.227 175.286 353.004 175.705C352.729 176.232 352.595 176.822 352.617 177.416V181.986H351.242V173.391H352.445L352.531 174.732C352.797 174.236 353.212 173.836 353.718 173.588C354.249 173.336 354.831 173.209 355.42 173.219ZM367.54 181.385C366.926 181.915 366.133 182.192 365.322 182.158C364.702 182.185 364.093 181.983 363.611 181.591C363.379 181.369 363.197 181.098 363.08 180.798C362.963 180.498 362.912 180.176 362.932 179.855V174.574H361.213V173.391H362.932V171.328L364.308 170.949V173.391H367.488V174.577H364.308V179.612C364.295 179.784 364.32 179.957 364.381 180.119C364.442 180.28 364.537 180.427 364.66 180.549C364.921 180.769 365.256 180.883 365.597 180.867C365.871 180.866 366.142 180.809 366.394 180.7C366.645 180.59 366.871 180.431 367.058 180.23L367.54 181.385ZM377.373 177.242C377.373 177.564 377.35 177.885 377.305 178.204H370.823C370.855 178.964 371.164 179.686 371.692 180.233C371.95 180.476 372.254 180.665 372.586 180.789C372.918 180.913 373.271 180.969 373.626 180.955C374.169 180.974 374.708 180.862 375.199 180.628C375.594 180.436 375.9 180.097 376.05 179.683L377.201 180.284C376.882 180.868 376.405 181.35 375.826 181.677C375.146 182.023 374.388 182.188 373.626 182.158C373.062 182.189 372.498 182.099 371.972 181.894C371.446 181.69 370.969 181.375 370.574 180.972C369.794 180.062 369.398 178.885 369.469 177.689C369.399 176.5 369.776 175.329 370.526 174.405C370.909 174 371.376 173.683 371.894 173.478C372.413 173.273 372.97 173.185 373.526 173.219C374.256 173.2 374.976 173.384 375.606 173.752C376.179 174.094 376.639 174.596 376.93 175.196C377.234 175.834 377.385 176.535 377.373 177.242ZM373.522 174.417C373.188 174.402 372.854 174.454 372.54 174.569C372.225 174.684 371.937 174.86 371.692 175.088C371.197 175.6 370.896 176.269 370.841 176.979H376.05C376.003 176.281 375.725 175.618 375.259 175.096C375.032 174.869 374.761 174.692 374.462 174.575C374.163 174.459 373.843 174.407 373.522 174.422V174.417ZM384.68 173.214C385.56 173.18 386.42 173.481 387.087 174.056C387.412 174.367 387.665 174.745 387.828 175.163C387.992 175.582 388.061 176.032 388.032 176.48V181.986H386.657V176.966C386.72 176.269 386.514 175.574 386.081 175.024C385.881 174.821 385.641 174.663 385.376 174.559C385.111 174.456 384.827 174.409 384.542 174.422C384.095 174.42 383.653 174.523 383.253 174.723C382.832 174.943 382.487 175.286 382.264 175.705C381.989 176.232 381.856 176.822 381.878 177.416V181.986H380.502V173.391H381.706L381.792 174.732C382.058 174.236 382.473 173.836 382.978 173.588C383.509 173.336 384.092 173.209 384.68 173.219V173.214ZM396.8 181.38C396.186 181.91 395.393 182.187 394.582 182.153C393.962 182.18 393.353 181.978 392.872 181.586C392.639 181.364 392.457 181.093 392.34 180.793C392.223 180.493 392.173 180.171 392.193 179.85V174.569H390.473V173.391H392.193V171.328L393.568 170.949V173.391H396.748V174.577H393.568V179.612C393.556 179.784 393.581 179.957 393.642 180.119C393.702 180.28 393.798 180.427 393.92 180.549C394.181 180.769 394.516 180.883 394.857 180.867C395.131 180.866 395.402 180.809 395.654 180.7C395.905 180.59 396.131 180.431 396.319 180.23L396.8 181.38ZM271.971 192.866C272.851 192.833 273.711 193.134 274.378 193.709C274.703 194.019 274.956 194.397 275.12 194.816C275.283 195.235 275.353 195.684 275.324 196.133V201.634H273.952V196.614C274.015 195.917 273.809 195.222 273.376 194.671C273.176 194.469 272.936 194.311 272.671 194.207C272.405 194.103 272.122 194.057 271.837 194.07C271.392 194.069 270.953 194.176 270.557 194.379C270.133 194.602 269.786 194.946 269.559 195.368C269.284 195.895 269.151 196.484 269.173 197.078V201.634H267.797V189.084H269.173V194.328C269.439 193.851 269.844 193.466 270.333 193.222C270.844 192.978 271.405 192.857 271.971 192.866ZM286 200.637C286.231 200.637 286.462 200.608 286.687 200.551L286.6 201.634C286.269 201.75 285.92 201.809 285.569 201.806C285.194 201.826 284.823 201.722 284.512 201.511C284.37 201.388 284.253 201.238 284.169 201.069C284.085 200.9 284.035 200.717 284.021 200.529C283.735 200.949 283.332 201.275 282.861 201.466C282.354 201.689 281.807 201.803 281.253 201.801C280.509 201.831 279.774 201.624 279.156 201.208C278.886 201.015 278.669 200.757 278.525 200.458C278.38 200.159 278.314 199.829 278.331 199.497C278.334 199.168 278.413 198.844 278.563 198.55C278.712 198.256 278.927 198.001 279.19 197.804C279.921 197.263 280.78 196.922 281.683 196.816L283.97 196.437V195.961C283.981 195.707 283.94 195.454 283.848 195.217C283.757 194.98 283.616 194.765 283.437 194.586C283.237 194.407 283.004 194.269 282.751 194.181C282.498 194.092 282.231 194.055 281.963 194.07C281.434 194.048 280.911 194.194 280.47 194.488C280.029 194.781 279.692 195.207 279.507 195.703L278.493 194.966C278.725 194.321 279.179 193.778 279.774 193.436C280.438 193.047 281.197 192.851 281.966 192.869C282.845 192.825 283.712 193.085 284.422 193.606C284.737 193.871 284.985 194.207 285.147 194.586C285.308 194.966 285.378 195.378 285.35 195.789V200.018C285.343 200.102 285.354 200.186 285.38 200.266C285.407 200.346 285.449 200.419 285.505 200.482C285.643 200.597 285.821 200.652 286 200.637ZM281.32 200.603C281.979 200.62 282.628 200.44 283.185 200.087C283.422 199.952 283.619 199.757 283.756 199.521C283.893 199.286 283.966 199.018 283.967 198.746V197.56L282.042 197.921C281.435 198.001 280.85 198.202 280.323 198.514C280.151 198.616 280.008 198.76 279.909 198.933C279.81 199.107 279.757 199.303 279.755 199.502C279.748 199.662 279.782 199.822 279.854 199.965C279.927 200.108 280.035 200.23 280.168 200.319C280.515 200.527 280.916 200.626 281.32 200.603ZM292.116 201.806C291.343 201.817 290.578 201.649 289.881 201.315C289.241 201.013 288.725 200.5 288.42 199.862L289.537 199.089C289.721 199.581 290.083 199.985 290.552 200.223C291.08 200.486 291.664 200.616 292.254 200.601C292.794 200.635 293.332 200.51 293.801 200.24C293.961 200.148 294.094 200.015 294.188 199.855C294.281 199.695 294.331 199.514 294.334 199.329C294.332 199.163 294.285 199.001 294.197 198.86C294.109 198.718 293.984 198.604 293.835 198.53C293.284 198.26 292.691 198.083 292.082 198.005C291.408 197.9 290.749 197.719 290.117 197.464C289.697 197.3 289.333 197.02 289.068 196.656C288.841 196.294 288.727 195.871 288.742 195.444C288.739 194.981 288.884 194.53 289.154 194.155C289.458 193.741 289.868 193.418 290.34 193.218C290.904 192.973 291.514 192.853 292.128 192.865C292.898 192.829 293.662 193.005 294.339 193.372C294.911 193.731 295.335 194.283 295.534 194.928L294.365 195.616C294.232 195.136 293.937 194.717 293.531 194.43C293.109 194.176 292.622 194.05 292.13 194.069C291.627 194.052 291.131 194.184 290.703 194.447C290.538 194.53 290.397 194.654 290.294 194.808C290.192 194.961 290.131 195.139 290.118 195.324C290.114 195.502 290.159 195.678 290.249 195.833C290.338 195.988 290.469 196.115 290.625 196.2C291.196 196.479 291.809 196.659 292.439 196.733C293.339 196.821 294.205 197.121 294.966 197.61C295.211 197.807 295.405 198.059 295.534 198.346C295.662 198.633 295.72 198.947 295.703 199.26C295.709 199.736 295.555 200.199 295.265 200.576C294.937 200.986 294.503 201.298 294.01 201.478C293.408 201.705 292.769 201.817 292.126 201.806H292.116ZM309.377 192.866C309.912 192.842 310.447 192.936 310.942 193.143C311.437 193.349 311.88 193.663 312.239 194.061C312.987 194.983 313.364 196.151 313.296 197.336C313.364 198.521 312.987 199.689 312.239 200.611C311.88 201.01 311.437 201.323 310.942 201.53C310.447 201.736 309.912 201.831 309.377 201.806C308.754 201.817 308.14 201.659 307.598 201.35C307.1 201.071 306.696 200.649 306.438 200.138L306.355 201.634H305.151V189.084H306.526V194.379C306.807 193.913 307.208 193.531 307.687 193.274C308.207 192.995 308.79 192.855 309.38 192.866H309.377ZM309.222 200.603C309.598 200.619 309.972 200.548 310.315 200.394C310.659 200.24 310.961 200.009 311.199 199.717C311.711 199.032 311.966 198.19 311.921 197.336C311.966 196.483 311.711 195.64 311.199 194.955C310.961 194.664 310.659 194.432 310.315 194.278C309.972 194.125 309.598 194.053 309.222 194.07C308.851 194.055 308.481 194.125 308.141 194.274C307.8 194.423 307.498 194.647 307.257 194.929C306.743 195.584 306.483 196.402 306.526 197.233V197.439C306.483 198.27 306.743 199.089 307.257 199.743C307.499 200.026 307.801 200.251 308.142 200.399C308.483 200.548 308.854 200.618 309.226 200.603H309.222ZM323.869 196.889C323.869 197.211 323.846 197.533 323.8 197.852H317.323C317.354 198.612 317.663 199.333 318.191 199.881C318.449 200.123 318.753 200.312 319.085 200.436C319.417 200.56 319.771 200.617 320.125 200.603C320.668 200.622 321.208 200.509 321.698 200.276C322.094 200.083 322.399 199.744 322.549 199.33L323.701 199.932C323.381 200.515 322.905 200.998 322.326 201.325C321.645 201.67 320.888 201.836 320.125 201.806C319.561 201.836 318.998 201.746 318.471 201.542C317.945 201.337 317.469 201.023 317.074 200.62C316.293 199.71 315.897 198.533 315.968 197.336C315.898 196.148 316.275 194.977 317.026 194.053C317.408 193.647 317.875 193.331 318.394 193.126C318.912 192.921 319.469 192.832 320.026 192.866C320.755 192.847 321.475 193.032 322.106 193.399C322.678 193.741 323.138 194.243 323.43 194.843C323.733 195.482 323.885 196.182 323.873 196.889H323.869ZM320.018 194.065C319.684 194.05 319.35 194.101 319.036 194.217C318.721 194.332 318.433 194.508 318.187 194.735C317.693 195.248 317.392 195.916 317.336 196.626H322.545C322.499 195.928 322.22 195.266 321.755 194.744C321.529 194.517 321.258 194.34 320.959 194.224C320.661 194.108 320.342 194.055 320.022 194.07L320.018 194.065ZM334.373 196.889C334.373 197.211 334.35 197.533 334.305 197.852H327.827C327.858 198.612 328.167 199.333 328.695 199.881C328.953 200.123 329.257 200.312 329.59 200.436C329.922 200.56 330.275 200.617 330.629 200.603C331.172 200.622 331.712 200.509 332.202 200.276C332.598 200.083 332.903 199.744 333.053 199.33L334.205 199.932C333.885 200.515 333.409 200.998 332.83 201.325C332.149 201.67 331.392 201.836 330.629 201.806C330.065 201.836 329.502 201.746 328.976 201.542C328.449 201.337 327.973 201.023 327.578 200.62C326.797 199.71 326.401 198.533 326.472 197.336C326.402 196.148 326.779 194.977 327.53 194.053C327.912 193.647 328.38 193.331 328.898 193.126C329.416 192.921 329.973 192.832 330.53 192.866C331.259 192.847 331.979 193.032 332.61 193.399C333.182 193.741 333.643 194.243 333.934 194.843C334.237 195.482 334.389 196.182 334.377 196.889H334.373ZM330.522 194.065C330.188 194.05 329.854 194.101 329.54 194.217C329.225 194.332 328.937 194.508 328.691 194.735C328.197 195.248 327.896 195.916 327.84 196.626H333.05C333.003 195.928 332.725 195.266 332.259 194.744C332.033 194.517 331.762 194.34 331.464 194.224C331.165 194.108 330.846 194.055 330.526 194.07L330.522 194.065ZM341.68 192.861C342.56 192.828 343.42 193.129 344.087 193.704C344.412 194.014 344.665 194.392 344.828 194.811C344.992 195.23 345.061 195.679 345.032 196.128V201.634H343.657V196.614C343.722 195.918 343.518 195.223 343.087 194.671C342.887 194.469 342.647 194.311 342.382 194.207C342.117 194.103 341.833 194.057 341.548 194.07C341.101 194.067 340.659 194.17 340.259 194.371C339.838 194.591 339.493 194.933 339.27 195.353C338.995 195.88 338.862 196.469 338.884 197.064V201.634H337.508V193.038H338.712L338.798 194.379C339.064 193.883 339.479 193.483 339.984 193.236C340.515 192.984 341.096 192.857 341.683 192.866L341.68 192.861ZM356.761 193.038H359.632V194.224H356.761V201.634H355.385V194.224H353.666V193.038H355.385V191.594C355.368 191.246 355.424 190.898 355.548 190.573C355.673 190.248 355.863 189.951 356.107 189.703C356.393 189.453 356.726 189.262 357.086 189.141C357.446 189.02 357.826 188.972 358.205 188.998C358.492 188.995 358.778 189.03 359.056 189.101C359.279 189.152 359.489 189.252 359.67 189.394L359.309 190.511C359.012 190.333 358.672 190.244 358.326 190.253C357.283 190.253 356.762 190.744 356.762 191.727L356.761 193.038ZM365.374 192.866C365.937 192.836 366.501 192.926 367.027 193.131C367.553 193.335 368.03 193.649 368.425 194.053C369.205 194.962 369.602 196.14 369.53 197.336C369.602 198.533 369.205 199.71 368.425 200.62C367.592 201.383 366.503 201.806 365.374 201.806C364.244 201.806 363.155 201.383 362.322 200.62C361.542 199.71 361.146 198.533 361.217 197.336C361.146 196.14 361.542 194.962 362.322 194.053C362.717 193.649 363.194 193.335 363.72 193.131C364.246 192.926 364.81 192.836 365.374 192.866ZM365.374 194.053C364.988 194.033 364.604 194.102 364.249 194.254C363.895 194.406 363.579 194.637 363.328 194.929C362.802 195.618 362.541 196.472 362.591 197.336C362.541 198.201 362.802 199.055 363.328 199.743C363.592 200.02 363.909 200.241 364.261 200.392C364.612 200.542 364.991 200.62 365.374 200.62C365.756 200.62 366.135 200.542 366.487 200.392C366.838 200.241 367.156 200.02 367.419 199.743C367.945 199.055 368.207 198.201 368.156 197.336C368.207 196.472 367.945 195.618 367.419 194.929C367.168 194.637 366.853 194.406 366.498 194.254C366.143 194.102 365.759 194.033 365.374 194.053ZM380.158 193.038V201.634H378.955L378.869 200.328C378.543 200.834 378.082 201.24 377.539 201.5C376.996 201.76 376.391 201.864 375.792 201.801C374.963 201.835 374.151 201.56 373.514 201.027C373.201 200.721 372.96 200.35 372.807 199.94C372.654 199.53 372.593 199.091 372.629 198.655V193.038H374.004V198.299C373.941 198.936 374.125 199.573 374.52 200.078C374.723 200.264 374.962 200.406 375.222 200.496C375.482 200.586 375.758 200.622 376.032 200.603C376.412 200.627 376.792 200.567 377.146 200.428C377.5 200.29 377.819 200.075 378.081 199.8C378.343 199.525 378.542 199.195 378.663 198.835C378.785 198.475 378.825 198.092 378.783 197.714V193.038H380.158ZM388.049 192.866C388.929 192.833 389.789 193.134 390.456 193.709C390.781 194.019 391.035 194.397 391.198 194.816C391.361 195.235 391.431 195.684 391.402 196.133V201.634H390.027V196.614C390.089 195.917 389.883 195.222 389.451 194.671C389.251 194.469 389.01 194.311 388.745 194.207C388.48 194.103 388.196 194.057 387.912 194.07C387.464 194.067 387.023 194.17 386.623 194.371C386.201 194.591 385.857 194.933 385.634 195.353C385.359 195.88 385.225 196.469 385.247 197.064V201.634H383.872V193.038H385.075L385.161 194.379C385.427 193.883 385.842 193.483 386.347 193.236C386.879 192.984 387.461 192.857 388.049 192.866ZM402.662 189.084V201.634H401.459L401.373 200.138C401.115 200.649 400.711 201.071 400.213 201.35C399.671 201.659 399.057 201.817 398.433 201.806C397.897 201.831 397.363 201.736 396.868 201.53C396.373 201.323 395.93 201.01 395.571 200.611C394.823 199.689 394.446 198.521 394.514 197.336C394.446 196.151 394.823 194.983 395.571 194.061C395.93 193.663 396.373 193.349 396.868 193.143C397.363 192.936 397.897 192.842 398.433 192.866C399.024 192.857 399.607 192.999 400.127 193.279C400.606 193.536 401.007 193.918 401.287 194.384V189.084H402.662ZM398.592 200.603C398.963 200.617 399.332 200.548 399.673 200.399C400.013 200.25 400.315 200.026 400.556 199.743C401.073 199.09 401.335 198.271 401.293 197.439V197.233C401.335 196.401 401.073 195.583 400.556 194.929C400.315 194.647 400.013 194.423 399.673 194.274C399.332 194.125 398.963 194.055 398.592 194.07C398.216 194.053 397.842 194.125 397.498 194.278C397.155 194.432 396.852 194.664 396.615 194.955C396.102 195.64 395.846 196.482 395.89 197.336C395.845 198.19 396.1 199.032 396.612 199.717C396.85 200.009 397.153 200.241 397.497 200.395C397.841 200.548 398.216 200.62 398.592 200.603Z" fill="#333348"/>
<path d="M438.992 150.059H230.236V162.339H438.992V150.059Z" fill="#FC676A"/>
<path d="M438.378 161.725H230.85V212.072H438.378V161.725Z" stroke="#FC676A" stroke-width="1.22798"/>
<path d="M438.992 130.411H230.236V142.691H438.992V130.411Z" fill="#26CB6F"/>
<path d="M438.992 110.764H230.236V123.044H438.992V110.764Z" fill="#AFAFC7"/>
<path opacity="0.3" d="M438.992 91.1161H230.236V103.396H438.992V91.1161Z" fill="#AFAFC7"/>
</svg>
