<svg width="38" height="38" viewBox="0 0 38 38" fill="none" xmlns="http://www.w3.org/2000/svg">
<path d="M28.9019 0.95048C27.744 0.946938 26.597 1.17303 25.5271 1.61566C24.4571 2.0583 23.4856 2.7087 22.6687 3.52923L15.8043 10.3936C17.7763 10.0497 19.8056 10.2812 21.6495 11.0604L25.9253 6.78829C26.3141 6.38879 26.7784 6.0705 27.2913 5.85191C27.8041 5.63331 28.3553 5.51876 28.9127 5.5149C29.4702 5.51104 30.0229 5.61795 30.5387 5.82943C31.0545 6.04091 31.5232 6.35273 31.9175 6.74681C32.3119 7.14089 32.624 7.60937 32.8358 8.12506C33.0476 8.64074 33.1548 9.19336 33.1513 9.75084C33.1478 10.3083 33.0336 10.8595 32.8153 11.3725C32.597 11.8855 32.279 12.35 31.8798 12.7391L24.1828 20.436C23.3806 21.2015 22.3144 21.6286 21.2056 21.6286C20.0968 21.6286 19.0305 21.2015 18.2283 20.436L14.9742 23.6939C16.6271 25.3464 18.8688 26.2748 21.2062 26.2748C23.5435 26.2748 25.7852 25.3464 27.4382 23.6939L35.1351 15.9969C36.3676 14.7641 37.2069 13.1935 37.5468 11.4838C37.8868 9.77405 37.7121 8.0019 37.045 6.39141C36.3778 4.78092 35.2481 3.40441 33.7986 2.43595C32.3492 1.46748 30.6451 0.950535 28.9019 0.95048Z" fill="#8989A8"/>
<path d="M16.9058 27.7167L12.6668 31.9508C12.2758 32.3418 11.8117 32.6519 11.3008 32.8635C10.79 33.0751 10.2425 33.184 9.68957 33.184C9.13665 33.184 8.58914 33.0751 8.0783 32.8635C7.56747 32.6519 7.10331 32.3418 6.71234 31.9508C6.32136 31.5598 6.01122 31.0957 5.79963 30.5848C5.58803 30.074 5.47913 29.5265 5.47913 28.9736C5.47913 28.4207 5.58803 27.8731 5.79963 27.3623C6.01122 26.8515 6.32136 26.3873 6.71234 25.9964L14.4093 18.2994C15.2115 17.5339 16.2777 17.1068 17.3865 17.1068C18.4954 17.1068 19.5616 17.5339 20.3638 18.2994L23.6179 15.0416C21.9386 13.4394 19.7069 12.5456 17.3859 12.5456C15.065 12.5456 12.8332 13.4394 11.1539 15.0416L3.45697 22.741C2.62952 23.5575 1.97176 24.5296 1.52155 25.6013C1.07134 26.6731 0.837567 27.8233 0.833698 28.9857C0.829828 30.1482 1.05594 31.2999 1.499 32.3746C1.94207 33.4494 2.59335 34.4258 3.41533 35.2478C4.23732 36.0698 5.21378 36.7211 6.2885 37.1641C7.36321 37.6072 8.51496 37.8333 9.67742 37.8295C10.8399 37.8256 11.9901 37.5918 13.0618 37.1416C14.1336 36.6914 15.1057 36.0336 15.9222 35.2062L22.6957 28.4327C22.2014 28.5149 21.7021 28.5637 21.2012 28.5788C19.7264 28.5798 18.2661 28.2868 16.9058 27.7167Z" fill="#8989A8"/>
</svg>
