<svg width="613" height="474" viewBox="0 0 613 474" fill="none" xmlns="http://www.w3.org/2000/svg">
<path d="M567.186 190.692C566.957 190.696 566.731 190.654 566.518 190.57C566.306 190.486 566.113 190.361 565.949 190.202L563.443 187.789C563.278 187.631 563.146 187.441 563.054 187.232C562.962 187.022 562.913 186.797 562.908 186.568C562.899 186.106 563.074 185.659 563.394 185.326C563.714 184.993 564.153 184.801 564.615 184.791C565.077 184.782 565.524 184.957 565.857 185.277L567.107 186.483L569.29 184.23C569.613 183.907 570.05 183.723 570.507 183.719C570.964 183.715 571.405 183.89 571.734 184.208C572.063 184.526 572.254 184.96 572.265 185.417C572.277 185.874 572.108 186.317 571.796 186.651L568.408 190.158C568.388 190.181 568.366 190.202 568.344 190.223C568.029 190.518 567.617 190.685 567.186 190.692Z" fill="white"/>
<path d="M72.7056 164.306C99.9454 168.272 97.8409 283.041 194.287 170.453" stroke="#AFAFC7" stroke-width="1.22812" stroke-dasharray="3.68 3.68"/>
<path d="M336.918 271.837C336.918 271.837 376.122 344.075 400.643 328.17C425.165 312.266 454.704 375.3 454.704 375.3" stroke="#AFAFC7" stroke-width="1.22812" stroke-dasharray="3.68 3.68"/>
<path d="M299.086 270.828C299.086 270.828 269.561 296.389 293.986 325.344C318.411 354.3 265.029 371.35 265.029 371.35" stroke="#AFAFC7" stroke-width="1.22812" stroke-dasharray="3.68 3.68"/>
<path d="M257.735 273.956C257.735 273.956 228.679 342.961 157.472 321.958C86.2655 300.955 72.7402 377.625 72.7402 377.625" stroke="#AFAFC7" stroke-width="1.22812" stroke-dasharray="3.68 3.68"/>
<path d="M300.592 70.204C300.592 70.204 302.037 100.16 334.518 80.2226C366.998 60.2854 359.194 105.658 359.194 105.658" stroke="#AFAFC7" stroke-width="1.22812" stroke-dasharray="3.68 3.68"/>
<path d="M400.622 194.426C400.622 194.426 421.075 224.691 453.551 204.752C486.028 184.814 494.89 179.646 494.89 179.646" stroke="#AFAFC7" stroke-width="1.22812" stroke-dasharray="3.68 3.68"/>
</svg>
