<svg width="41" height="43" viewBox="0 0 41 43" fill="none" xmlns="http://www.w3.org/2000/svg">
<path d="M23.3563 4.20668L24.0231 7.10348C24.1453 7.63723 24.3922 8.13446 24.7435 8.5545C25.0949 8.97453 25.5406 9.30543 26.0443 9.52014C26.9825 9.91949 27.8663 10.4361 28.6747 11.0576C29.1195 11.4001 29.6408 11.6299 30.1938 11.7272C30.7468 11.8245 31.3151 11.7864 31.8502 11.6163L34.6549 10.7223L37.1526 15.0669L34.9877 17.0648C34.5883 17.431 34.2802 17.8856 34.0883 18.3923C33.8964 18.899 33.8259 19.4436 33.8825 19.9825C33.9958 21.0437 33.9958 22.114 33.8825 23.1753C33.825 23.7155 33.895 24.2616 34.087 24.7699C34.2789 25.2781 34.5874 25.7342 34.9877 26.1015L37.1502 28.0798L34.639 32.4268L31.8392 31.5341C31.3041 31.364 30.7357 31.3259 30.1827 31.4232C29.6297 31.5205 29.1085 31.7503 28.6636 32.0928C27.8553 32.7143 26.9715 33.2309 26.0333 33.6303C25.5294 33.8454 25.0834 34.1766 24.7318 34.5968C24.3801 35.0169 24.1327 35.5142 24.0096 36.0481L23.344 38.9449H18.3621L17.6953 36.0481C17.5726 35.5141 17.3253 35.0166 16.9736 34.5964C16.6219 34.1762 16.1757 33.8451 15.6716 33.6303C14.7331 33.2316 13.8492 32.7149 13.0413 32.0928C12.5971 31.7517 12.0771 31.5229 11.5254 31.4261C10.9738 31.3292 10.4069 31.3671 9.87309 31.5366L7.06839 32.4305L4.567 28.0884L6.7307 26.0929C7.13011 25.7268 7.43815 25.2722 7.63008 24.7655C7.82201 24.2588 7.8925 23.7141 7.83588 23.1753C7.72263 22.114 7.72263 21.0437 7.83588 19.9825C7.89339 19.4423 7.82336 18.8961 7.63141 18.3879C7.43947 17.8797 7.13096 17.4236 6.7307 17.0562L4.5584 15.0718L7.06962 10.7248L9.86941 11.6175C10.4045 11.7877 10.9728 11.8257 11.5258 11.7284C12.0789 11.6311 12.6001 11.4014 13.045 11.0588C13.8533 10.4373 14.7371 9.92072 15.6753 9.52137C16.1789 9.30641 16.6245 8.97543 16.9757 8.55544C17.327 8.13544 17.574 7.63834 17.6965 7.1047L18.3633 4.2079L23.3563 4.20668ZM23.7492 0.732727H17.9777C17.298 0.736544 16.6395 0.970469 16.1097 1.39638C15.5799 1.82229 15.2099 2.41509 15.0601 3.07817L14.3135 6.32617C13.1046 6.8402 11.9658 7.50533 10.9242 8.30567L7.76343 7.29873C7.47187 7.20877 7.16843 7.16324 6.86332 7.16365C6.33563 7.1597 5.8163 7.29542 5.358 7.55702C4.89971 7.81862 4.51878 8.1968 4.25386 8.65318L1.35338 13.6732C1.02225 14.2654 0.898814 14.9514 1.00274 15.6219C1.10667 16.2924 1.43197 16.9089 1.92685 17.3731L4.37543 19.6141C4.2362 20.9203 4.2362 22.2375 4.37543 23.5436L1.92685 25.797C1.42944 26.2599 1.10363 26.8778 1.0026 27.5498C0.901574 28.2218 1.03129 28.9081 1.37057 29.4969L4.23667 34.4825C4.58368 35.0753 5.12099 35.5334 5.76128 35.7822C6.40156 36.031 7.10718 36.0559 7.76343 35.8529L10.9242 34.846C11.965 35.6465 13.103 36.3121 14.311 36.8267L15.0576 40.0747C15.2074 40.7378 15.5774 41.3306 16.1072 41.7565C16.6371 42.1824 17.2955 42.4163 17.9753 42.4201H23.7468C24.4266 42.4163 25.085 42.1824 25.6148 41.7565C26.1447 41.3306 26.5146 40.7378 26.6645 40.0747L27.4111 36.8267C28.6191 36.3121 29.7571 35.6465 30.7978 34.846L33.9587 35.8529C34.2502 35.9429 34.5536 35.9884 34.8588 35.988C35.3857 35.9919 35.9043 35.8565 36.362 35.5956C36.8198 35.3347 37.2006 34.9575 37.4658 34.5021L40.3662 29.4821C40.6983 28.8929 40.8223 28.2091 40.7183 27.5407C40.6142 26.8724 40.2882 26.2586 39.7928 25.7982V25.7835L37.3442 23.5424C37.4834 22.2363 37.4834 20.919 37.3442 19.6129L39.7928 17.3546C40.2902 16.8917 40.616 16.2738 40.717 15.6018C40.8181 14.9299 40.6883 14.2435 40.349 13.6547L37.4829 8.66915C37.1362 8.07635 36.5992 7.61823 35.9591 7.36921C35.3191 7.1202 34.6136 7.09492 33.9574 7.2975L30.7966 8.30444C29.7553 7.50462 28.6169 6.83991 27.4086 6.32617L26.6608 3.07817C26.5112 2.41611 26.1421 1.82408 25.6136 1.39828C25.085 0.97248 24.428 0.737926 23.7492 0.732727Z" fill="#8989A8"/>
<path d="M16.0781 24.5113C16.3343 24.7429 16.4889 25.0661 16.5084 25.4109C16.5279 25.7556 16.4108 26.0942 16.1824 26.3533C15.9517 26.6109 15.6283 26.7666 15.283 26.7861C14.9378 26.8057 14.5988 26.6876 14.3405 26.4577L10.0045 22.549C9.8679 22.4265 9.75865 22.2765 9.68386 22.109C9.60907 21.9414 9.57042 21.7599 9.57042 21.5764C9.57042 21.3929 9.60907 21.2115 9.68386 21.0439C9.75865 20.8764 9.8679 20.7264 10.0045 20.6039L14.3466 16.6952C14.6075 16.488 14.9379 16.3885 15.2698 16.4172C15.6018 16.4459 15.9102 16.6005 16.1317 16.8494C16.3533 17.0983 16.4712 17.4225 16.4612 17.7555C16.4512 18.0886 16.3141 18.4052 16.0781 18.6403L12.8129 21.5752L16.0781 24.5113Z" fill="#8989A8"/>
<path d="M23.43 16.2261L20.8242 27.5162C20.7868 27.6834 20.7164 27.8415 20.6172 27.9813C20.5181 28.121 20.392 28.2397 20.2465 28.3302C20.101 28.4207 19.9389 28.4814 19.7697 28.5086C19.6005 28.5358 19.4276 28.529 19.261 28.4887C18.9259 28.4084 18.6359 28.1993 18.4539 27.9067C18.2719 27.6141 18.2124 27.2616 18.2884 26.9255L20.8942 15.6367C20.9725 15.3004 21.1812 15.0091 21.4744 14.8267C21.7675 14.6443 22.1212 14.5858 22.4574 14.6641C22.7937 14.7425 23.0851 14.9512 23.2674 15.2443C23.4498 15.5375 23.5083 15.8899 23.43 16.2261Z" fill="#8989A8"/>
<path d="M31.7115 22.549L27.3693 26.4576C27.111 26.6875 26.7721 26.8056 26.4268 26.7861C26.0815 26.7665 25.7581 26.6109 25.5274 26.3532C25.299 26.0942 25.1819 25.7556 25.2014 25.4108C25.2209 25.066 25.3756 24.7428 25.6317 24.5113L28.8969 21.5764L25.6317 18.6415C25.3839 18.4086 25.2368 18.0881 25.2218 17.7483C25.2069 17.4085 25.3253 17.0763 25.5518 16.8226C25.7783 16.5689 26.095 16.4137 26.4343 16.3901C26.7736 16.3665 27.1087 16.4764 27.3681 16.6964L31.7115 20.6038C31.8481 20.7264 31.9573 20.8763 32.0321 21.0439C32.1069 21.2114 32.1455 21.3929 32.1455 21.5764C32.1455 21.7599 32.1069 21.9413 32.0321 22.1089C31.9573 22.2765 31.8481 22.4264 31.7115 22.549Z" fill="#8989A8"/>
</svg>
