<svg width="44" height="33" viewBox="0 0 44 33" fill="none" xmlns="http://www.w3.org/2000/svg">
<path d="M40.6248 0.572083H3.43053C2.72618 0.572408 2.05078 0.852356 1.55273 1.3504C1.05468 1.84845 0.774739 2.52386 0.774414 3.2282L0.774414 29.7955C0.774739 30.4999 1.05468 31.1753 1.55273 31.6733C2.05078 32.1713 2.72618 32.4513 3.43053 32.4516H40.6248C41.3291 32.4513 42.0045 32.1713 42.5026 31.6733C43.0006 31.1753 43.2805 30.4999 43.2809 29.7955V3.2282C43.2809 2.52376 43.001 1.84816 42.5029 1.35004C42.0048 0.851925 41.3292 0.572083 40.6248 0.572083ZM3.63192 3.42959H40.4234V24.482L27.3417 13.8551L14.0575 28.3674H3.63192V3.42959Z" fill="#8989A8"/>
<path d="M18.2043 9.7119C18.7616 10.2692 19.1412 10.9792 19.2949 11.7522C19.4487 12.5251 19.3698 13.3264 19.0682 14.0545C18.7666 14.7826 18.2559 15.405 17.6006 15.8429C16.9453 16.2807 16.1749 16.5144 15.3867 16.5144C14.5986 16.5144 13.8282 16.2807 13.1729 15.8429C12.5176 15.405 12.0068 14.7826 11.7053 14.0545C11.4037 13.3264 11.3248 12.5251 11.4785 11.7522C11.6323 10.9792 12.0118 10.2692 12.5691 9.7119C13.3164 8.96466 14.3299 8.54486 15.3867 8.54486C16.4435 8.54486 17.457 8.96466 18.2043 9.7119Z" fill="#8989A8"/>
</svg>
