<svg width="684" height="560" viewBox="0 0 684 560" fill="none" xmlns="http://www.w3.org/2000/svg">
<g clip-path="url(#clip0_3_354)">
<mask id="mask0_3_354" style="mask-type:luminance" maskUnits="userSpaceOnUse" x="0" y="0" width="684" height="560">
<path d="M683.992 0.47998H0.00811768V559.21H683.992V0.47998Z" fill="white"/>
</mask>
<g mask="url(#mask0_3_354)">
<path d="M602.945 217.832H116.666C99.033 217.832 84.7386 232.127 84.7386 249.76C84.7386 267.393 99.033 281.687 116.666 281.687H602.945C620.578 281.687 634.873 267.393 634.873 249.76C634.873 232.127 620.578 217.832 602.945 217.832Z" fill="#FBFBFE"/>
<path d="M645.925 281.687H125.262C106.951 281.687 92.1064 296.531 92.1064 314.842C92.1064 333.154 106.951 347.998 125.262 347.998H645.925C664.236 347.998 679.08 333.154 679.08 314.842C679.08 296.531 664.236 281.687 645.925 281.687Z" fill="#FBFBFE"/>
<path d="M561.808 347.998H36.2334C18.9395 347.998 4.91998 362.017 4.91998 379.311C4.91998 396.605 18.9395 410.625 36.2334 410.625H561.808C579.102 410.625 593.121 396.605 593.121 379.311C593.121 362.017 579.102 347.998 561.808 347.998Z" fill="#FBFBFE"/>
<path d="M591.893 410.625H106.842C88.5309 410.625 73.6868 425.469 73.6868 443.78C73.6868 462.091 88.5309 476.936 106.842 476.936H591.893C610.205 476.936 625.049 462.091 625.049 443.78C625.049 425.469 610.205 410.625 591.893 410.625Z" fill="#FBFBFE"/>
<path d="M407.608 233.796H406.38V354.138H407.608V233.796Z" fill="#26CB6F"/>
<path d="M407.608 378.697H406.38V405.713H407.608V378.697Z" fill="#26CB6F"/>
<path d="M340.07 165.029H338.842V302.563H340.07V165.029Z" fill="#26CB6F"/>
<path d="M340.07 324.666H338.842V405.713H340.07V324.666Z" fill="#26CB6F"/>
<path d="M209.994 271.863H472.781C475.712 271.863 478.523 273.028 480.596 275.1C482.668 277.173 483.833 279.984 483.833 282.915V456.06C483.833 456.386 483.703 456.698 483.473 456.928C483.243 457.158 482.93 457.288 482.605 457.288H200.17C199.844 457.288 199.532 457.158 199.301 456.928C199.071 456.698 198.942 456.386 198.942 456.06V282.915C198.942 279.984 200.106 277.173 202.179 275.1C204.251 273.028 207.062 271.863 209.994 271.863Z" stroke="#AFAFC7" stroke-width="2.45596"/>
<path d="M232.097 291.511H449.449C452.38 291.511 455.191 292.675 457.264 294.748C459.337 296.82 460.501 299.632 460.501 302.563V456.06C460.501 456.386 460.372 456.698 460.141 456.928C459.911 457.159 459.599 457.288 459.273 457.288H222.273C221.948 457.288 221.635 457.159 221.405 456.928C221.175 456.698 221.045 456.386 221.045 456.06V302.563C221.045 299.632 222.21 296.82 224.282 294.748C226.355 292.675 229.166 291.511 232.097 291.511Z" stroke="#AFAFC7" stroke-width="2.45596"/>
<path d="M166.515 457.288H517.488C517.583 457.288 517.678 457.307 517.767 457.343C517.855 457.38 517.935 457.433 518.003 457.501C518.07 457.569 518.124 457.649 518.161 457.737C518.197 457.826 518.216 457.92 518.216 458.016V460.198C518.216 464.637 516.453 468.894 513.314 472.033C510.175 475.172 505.918 476.935 501.479 476.935H184.706C179.688 476.935 174.876 474.942 171.328 471.394C167.78 467.846 165.786 463.034 165.786 458.016C165.786 457.823 165.863 457.638 166 457.501C166.136 457.365 166.321 457.288 166.515 457.288Z" stroke="#AFAFC7" stroke-width="2.45596"/>
<path d="M437.17 208.574H376.865V170.043H408.623H437.17V208.574Z" fill="white"/>
<path d="M378.093 171.271V207.346H435.942V171.271H408.623H378.093ZM375.637 168.815H408.623H438.398V209.802H375.637V168.815Z" fill="#AFAFC7"/>
<path d="M379.486 170.534L407.326 189.91L379.486 170.534Z" fill="white"/>
<path d="M379.486 170.534L407.326 189.91" stroke="#AFAFC7" stroke-width="2.45596" stroke-linecap="round"/>
<path d="M434.633 170.534L407.421 189.864L434.633 170.534Z" fill="white"/>
<path d="M434.633 170.534L407.421 189.864" stroke="#AFAFC7" stroke-width="2.45596" stroke-linecap="round"/>
<path d="M409.137 224.45C415.875 223.502 420.569 217.272 419.621 210.533C418.673 203.795 412.442 199.102 405.704 200.05C398.966 200.998 394.272 207.229 395.22 213.967C396.168 220.705 402.399 225.398 409.137 224.45Z" fill="#26CB6F"/>
<path d="M407.455 216.282C407.215 216.287 406.975 216.245 406.751 216.158C406.527 216.07 406.322 215.94 406.149 215.773L403.515 213.225C403.179 212.885 402.99 212.427 402.987 211.949C402.984 211.471 403.168 211.011 403.501 210.667C403.833 210.323 404.286 210.123 404.764 210.109C405.242 210.094 405.706 210.268 406.058 210.592L407.377 211.862L409.669 209.491C409.834 209.31 410.034 209.163 410.256 209.06C410.479 208.957 410.72 208.9 410.965 208.892C411.211 208.884 411.455 208.925 411.684 209.014C411.913 209.102 412.122 209.235 412.298 209.406C412.474 209.577 412.615 209.781 412.711 210.007C412.806 210.233 412.856 210.476 412.856 210.721C412.856 210.966 412.807 211.209 412.711 211.435C412.615 211.661 412.475 211.866 412.299 212.037L408.738 215.727C408.717 215.75 408.695 215.773 408.672 215.795C408.341 216.105 407.906 216.28 407.453 216.288L407.455 216.282Z" fill="white"/>
<path d="M369.029 141.653H308.724V103.122H340.483H369.029V141.653Z" fill="white"/>
<path d="M309.952 104.35V140.425H367.801V104.35H340.483H309.952ZM307.496 101.894H340.483H370.257V142.881H307.496V101.894Z" fill="#AFAFC7"/>
<path d="M311.346 103.613L339.185 122.989L311.346 103.613Z" fill="white"/>
<path d="M311.346 103.613L339.185 122.989" stroke="#AFAFC7" stroke-width="2.45596" stroke-linecap="round"/>
<path d="M366.492 103.613L339.28 122.943L366.492 103.613Z" fill="white"/>
<path d="M366.492 103.613L339.28 122.943" stroke="#AFAFC7" stroke-width="2.45596" stroke-linecap="round"/>
<path d="M340.997 157.529C347.735 156.581 352.429 150.35 351.48 143.612C350.532 136.874 344.302 132.18 337.564 133.129C330.825 134.077 326.132 140.307 327.08 147.045C328.028 153.784 334.259 158.477 340.997 157.529Z" fill="#26CB6F"/>
<path d="M339.314 149.361C339.074 149.366 338.835 149.324 338.611 149.237C338.387 149.149 338.182 149.018 338.009 148.852L335.375 146.304C335.039 145.964 334.849 145.506 334.846 145.028C334.844 144.55 335.028 144.09 335.36 143.746C335.692 143.402 336.145 143.201 336.623 143.187C337.101 143.173 337.566 143.347 337.917 143.67L339.237 144.941L341.528 142.57C341.693 142.389 341.893 142.242 342.116 142.139C342.338 142.036 342.58 141.979 342.825 141.971C343.07 141.963 343.315 142.004 343.543 142.092C343.772 142.181 343.981 142.314 344.158 142.485C344.334 142.655 344.474 142.86 344.57 143.086C344.666 143.312 344.715 143.555 344.715 143.8C344.715 144.045 344.666 144.288 344.57 144.514C344.475 144.74 344.335 144.945 344.158 145.115L340.598 148.806C340.576 148.829 340.555 148.852 340.532 148.874C340.2 149.183 339.766 149.359 339.312 149.367L339.314 149.361Z" fill="white"/>
<path d="M301.387 238.887H241.082V200.356H272.841H301.387V238.887Z" fill="white"/>
<path d="M242.31 201.584V237.659H300.159V201.584H272.841H242.31ZM239.854 199.128H272.841H302.615V240.115H239.854V199.128Z" fill="#AFAFC7"/>
<path d="M243.704 200.847L271.543 220.223L243.704 200.847Z" fill="white"/>
<path d="M243.704 200.847L271.543 220.223" stroke="#AFAFC7" stroke-width="2.45596" stroke-linecap="round"/>
<path d="M298.85 200.847L271.638 220.176L298.85 200.847Z" fill="white"/>
<path d="M298.85 200.847L271.638 220.176" stroke="#AFAFC7" stroke-width="2.45596" stroke-linecap="round"/>
<path d="M274.878 254.657C281.601 252.855 285.59 245.943 283.788 239.22C281.985 232.497 275.074 228.508 268.351 230.311C261.628 232.114 257.639 239.025 259.442 245.748C261.244 252.471 268.155 256.46 274.878 254.657Z" fill="#AFAFC7"/>
<path d="M267.565 242.926L275.879 242.925" stroke="#F4F4FA" stroke-width="3.68437" stroke-linecap="round"/>
<path d="M272.531 259.583H271.303V324.666H272.531V259.583Z" fill="#FC676A"/>
<path d="M272.531 259.583H271.303V324.666H272.531V259.583Z" fill="#FC676A"/>
<path d="M272.531 347.998H271.303V410.625H272.531V347.998Z" fill="#FC676A"/>
<path d="M365.857 395.889H313.054V410.625H365.857V395.889Z" fill="#26CB6F"/>
<path d="M433.396 388.521H380.593V410.625H433.396V388.521Z" fill="#26CB6F"/>
<path d="M298.318 354.138H245.515V410.625H298.318V354.138Z" fill="#FC676A"/>
<path d="M365.243 423.518H313.668V441.938H365.243V423.518Z" stroke="#26CB6F" stroke-width="1.22798"/>
<path d="M296.476 423.518H244.901V441.938H296.476V423.518Z" stroke="#FC676A" stroke-width="1.22798"/>
<path d="M258.802 336.541V340.63H258.065L258.028 339.537C257.791 339.93 257.443 340.244 257.028 340.44C256.54 340.66 256.009 340.767 255.474 340.753C254.777 340.769 254.088 340.593 253.485 340.243C252.915 339.897 252.46 339.391 252.177 338.788C251.857 338.096 251.699 337.34 251.717 336.578C251.699 335.814 251.861 335.057 252.189 334.367C252.48 333.763 252.941 333.257 253.516 332.912C254.117 332.564 254.803 332.387 255.499 332.402C256.188 332.376 256.873 332.532 257.482 332.857C258.03 333.19 258.467 333.677 258.741 334.257L257.844 334.748C257.679 334.307 257.37 333.935 256.966 333.692C256.52 333.436 256.013 333.308 255.499 333.323C254.99 333.312 254.489 333.449 254.056 333.716C253.633 333.99 253.298 334.38 253.092 334.84C252.851 335.387 252.733 335.98 252.748 336.578C252.694 337.437 252.947 338.287 253.46 338.978C253.714 339.269 254.03 339.497 254.386 339.646C254.741 339.796 255.126 339.861 255.511 339.838C256.129 339.863 256.737 339.672 257.23 339.298C257.455 339.11 257.632 338.872 257.749 338.603C257.865 338.335 257.916 338.043 257.899 337.75V337.468H255.321V336.547L258.802 336.541ZM263.874 334.367C264.276 334.345 264.679 334.41 265.055 334.556C265.431 334.702 265.771 334.927 266.053 335.215C266.612 335.864 266.896 336.705 266.845 337.56C266.896 338.415 266.612 339.256 266.053 339.905C265.771 340.193 265.431 340.418 265.055 340.564C264.679 340.71 264.276 340.774 263.874 340.753C263.471 340.774 263.068 340.71 262.692 340.564C262.317 340.418 261.976 340.193 261.694 339.905C261.136 339.256 260.852 338.415 260.902 337.56C260.852 336.705 261.136 335.864 261.694 335.215C261.976 334.927 262.317 334.702 262.692 334.556C263.068 334.41 263.471 334.345 263.874 334.367ZM263.874 335.215C263.598 335.201 263.324 335.25 263.07 335.358C262.817 335.467 262.592 335.632 262.412 335.841C262.036 336.332 261.848 336.942 261.884 337.56C261.848 338.178 262.036 338.788 262.412 339.279C262.592 339.488 262.817 339.653 263.07 339.761C263.324 339.87 263.598 339.919 263.874 339.905C264.149 339.919 264.423 339.87 264.677 339.761C264.93 339.653 265.155 339.488 265.335 339.279C265.711 338.788 265.899 338.178 265.863 337.56C265.899 336.942 265.711 336.332 265.335 335.841C265.155 335.632 264.93 335.467 264.677 335.358C264.423 335.25 264.149 335.201 263.874 335.215ZM271.708 334.367C272.11 334.346 272.511 334.411 272.886 334.557C273.261 334.703 273.6 334.927 273.882 335.215C274.442 335.863 274.728 336.704 274.68 337.56C274.728 338.416 274.442 339.257 273.882 339.905C273.6 340.193 273.261 340.417 272.886 340.563C272.511 340.709 272.11 340.774 271.708 340.753C271.305 340.774 270.903 340.71 270.527 340.564C270.151 340.418 269.811 340.193 269.528 339.905C268.97 339.256 268.686 338.415 268.736 337.56C268.686 336.705 268.97 335.864 269.528 335.215C269.811 334.927 270.151 334.702 270.527 334.556C270.903 334.41 271.305 334.345 271.708 334.367ZM271.708 335.215C271.433 335.201 271.158 335.25 270.905 335.358C270.652 335.467 270.427 335.632 270.247 335.841C269.87 336.332 269.683 336.942 269.719 337.56C269.683 338.178 269.87 338.788 270.247 339.279C270.427 339.488 270.652 339.653 270.905 339.761C271.158 339.87 271.433 339.919 271.708 339.905C271.983 339.919 272.258 339.87 272.511 339.761C272.764 339.653 272.99 339.488 273.169 339.279C273.546 338.788 273.733 338.178 273.697 337.56C273.733 336.942 273.546 336.332 273.169 335.841C272.99 335.632 272.764 335.467 272.511 335.358C272.258 335.25 271.983 335.201 271.708 335.215ZM280.378 339.844C280.864 339.815 281.345 339.954 281.741 340.237C281.901 340.364 282.029 340.526 282.114 340.712C282.2 340.898 282.24 341.101 282.232 341.305C282.235 341.69 282.09 342.062 281.827 342.343C281.525 342.662 281.146 342.899 280.728 343.031C280.235 343.195 279.718 343.276 279.199 343.27C278.467 343.316 277.736 343.161 277.087 342.822C276.873 342.708 276.695 342.54 276.569 342.333C276.444 342.127 276.377 341.891 276.374 341.649C276.372 341.376 276.476 341.112 276.663 340.912C276.877 340.687 277.152 340.529 277.455 340.458C277.218 340.351 277.008 340.191 276.841 339.991C276.69 339.804 276.609 339.569 276.614 339.328C276.604 339.055 276.691 338.788 276.859 338.573C277.038 338.363 277.272 338.207 277.535 338.125C277.251 337.956 277.019 337.711 276.866 337.419C276.71 337.115 276.632 336.777 276.638 336.436C276.633 336.054 276.744 335.679 276.958 335.362C277.182 335.037 277.492 334.782 277.854 334.625C278.266 334.445 278.712 334.357 279.162 334.367C279.592 334.362 280.018 334.445 280.414 334.613C280.499 334.228 280.722 333.888 281.042 333.657C281.361 333.426 281.754 333.32 282.146 333.36L282.367 334.22C281.565 334.22 281.078 334.445 280.906 334.895C281.144 335.075 281.339 335.306 281.477 335.571C281.614 335.841 281.683 336.14 281.679 336.442C281.685 336.825 281.573 337.2 281.36 337.517C281.136 337.841 280.825 338.097 280.464 338.254C280.054 338.435 279.61 338.525 279.162 338.518C278.843 338.523 278.525 338.486 278.216 338.407C278.017 338.44 277.832 338.535 277.688 338.677C277.575 338.82 277.518 338.999 277.529 339.181C277.524 339.274 277.541 339.368 277.579 339.453C277.618 339.539 277.676 339.614 277.75 339.672C277.921 339.794 278.129 339.855 278.339 339.844H280.378ZM279.162 335.165C278.775 335.152 278.396 335.279 278.094 335.522C277.956 335.631 277.845 335.772 277.77 335.931C277.696 336.091 277.659 336.266 277.664 336.442C277.659 336.619 277.696 336.794 277.77 336.953C277.845 337.113 277.956 337.254 278.094 337.363C278.396 337.606 278.775 337.733 279.162 337.72C279.549 337.733 279.928 337.606 280.23 337.363C280.368 337.254 280.479 337.113 280.553 336.953C280.628 336.794 280.664 336.619 280.66 336.442C280.664 336.266 280.628 336.091 280.553 335.931C280.479 335.772 280.368 335.631 280.23 335.522C279.928 335.279 279.549 335.152 279.162 335.165ZM279.309 342.447C279.818 342.472 280.325 342.368 280.783 342.146C280.932 342.087 281.062 341.987 281.157 341.858C281.253 341.729 281.31 341.576 281.323 341.416C281.328 341.31 281.305 341.204 281.256 341.109C281.208 341.014 281.136 340.934 281.047 340.875C280.757 340.729 280.432 340.665 280.107 340.691H278.462C278.158 340.673 277.855 340.744 277.59 340.894C277.494 340.952 277.415 341.034 277.361 341.132C277.307 341.23 277.28 341.341 277.283 341.453C277.286 341.613 277.337 341.768 277.429 341.9C277.521 342.031 277.649 342.132 277.799 342.189C278.276 342.389 278.793 342.477 279.309 342.447ZM284.995 338.984C284.973 339.209 285.023 339.434 285.136 339.629C285.204 339.696 285.286 339.747 285.377 339.778C285.467 339.808 285.563 339.819 285.658 339.807C285.808 339.809 285.958 339.797 286.106 339.77C286.259 339.738 286.409 339.693 286.554 339.635L286.395 340.581C286.106 340.699 285.797 340.757 285.486 340.753C285.283 340.768 285.08 340.74 284.889 340.67C284.699 340.6 284.525 340.49 284.381 340.347C284.11 339.993 283.979 339.552 284.012 339.107V331.666H284.995V338.984ZM293.456 337.241C293.455 337.471 293.439 337.701 293.406 337.928H288.777C288.799 338.471 289.02 338.987 289.397 339.377C289.582 339.551 289.799 339.686 290.036 339.774C290.273 339.863 290.526 339.903 290.779 339.893C291.166 339.907 291.552 339.827 291.902 339.66C292.187 339.523 292.408 339.281 292.516 338.984L293.339 339.414C293.11 339.831 292.77 340.175 292.356 340.409C291.869 340.657 291.325 340.775 290.779 340.753C290.376 340.774 289.973 340.71 289.597 340.564C289.222 340.418 288.881 340.193 288.599 339.905C288.041 339.256 287.757 338.415 287.807 337.56C287.757 336.711 288.026 335.874 288.562 335.215C288.835 334.925 289.169 334.699 289.539 334.553C289.91 334.406 290.307 334.343 290.705 334.367C291.226 334.354 291.74 334.485 292.191 334.748C292.6 334.992 292.928 335.351 293.136 335.779C293.354 336.235 293.463 336.735 293.456 337.241ZM290.705 335.227C290.466 335.216 290.227 335.253 290.003 335.335C289.778 335.417 289.573 335.543 289.397 335.706C289.044 336.072 288.829 336.549 288.789 337.056H292.51C292.478 336.556 292.279 336.08 291.945 335.706C291.783 335.544 291.589 335.418 291.376 335.335C291.162 335.253 290.934 335.216 290.705 335.227Z" fill="#333348"/>
<path d="M376.97 360.769H379.856C380.597 360.711 381.334 360.918 381.937 361.352C382.168 361.558 382.349 361.814 382.467 362.1C382.585 362.386 382.637 362.695 382.619 363.004C382.624 363.41 382.494 363.807 382.251 364.133C382.01 364.461 381.651 364.681 381.25 364.747V364.76C381.696 364.833 382.101 365.064 382.392 365.411C382.674 365.743 382.827 366.166 382.822 366.602C382.834 366.92 382.769 367.237 382.634 367.525C382.498 367.814 382.295 368.066 382.042 368.259C381.399 368.704 380.625 368.921 379.844 368.873H376.97V360.769ZM379.868 364.33C380.324 364.364 380.778 364.25 381.164 364.004C381.309 363.884 381.424 363.73 381.497 363.556C381.571 363.381 381.602 363.192 381.588 363.004C381.588 362.128 381.014 361.69 379.868 361.69H377.953V364.33H379.868ZM380.077 367.952C380.534 367.986 380.989 367.863 381.366 367.602C381.511 367.48 381.625 367.327 381.7 367.153C381.774 366.979 381.807 366.79 381.796 366.602C381.807 366.413 381.774 366.224 381.7 366.05C381.625 365.877 381.511 365.723 381.366 365.601C380.989 365.341 380.534 365.217 380.077 365.251H377.953V367.952H380.077ZM390.208 368.161C390.374 368.161 390.539 368.14 390.699 368.1L390.638 368.873C390.401 368.957 390.152 368.998 389.901 368.996C389.633 369.011 389.368 368.938 389.146 368.787C388.941 368.61 388.815 368.358 388.796 368.088C388.591 368.387 388.303 368.62 387.967 368.757C387.606 368.918 387.214 369.002 386.819 369.002C386.287 369.024 385.762 368.876 385.321 368.579C385.127 368.44 384.971 368.255 384.868 368.04C384.765 367.826 384.718 367.589 384.731 367.351C384.734 367.115 384.79 366.884 384.897 366.674C385.003 366.464 385.157 366.282 385.345 366.141C385.867 365.755 386.481 365.511 387.126 365.435L388.759 365.165V364.821C388.767 364.64 388.738 364.459 388.672 364.29C388.607 364.121 388.507 363.967 388.378 363.839C388.235 363.711 388.068 363.612 387.887 363.549C387.706 363.486 387.514 363.459 387.322 363.47C386.947 363.461 386.577 363.563 386.26 363.765C385.947 363.98 385.705 364.283 385.566 364.637L384.842 364.109C385.008 363.648 385.332 363.26 385.757 363.016C386.231 362.738 386.773 362.598 387.322 362.611C387.951 362.58 388.571 362.766 389.078 363.139C389.303 363.328 389.481 363.568 389.596 363.839C389.711 364.11 389.761 364.405 389.741 364.698V367.719C389.737 367.779 389.744 367.839 389.763 367.896C389.782 367.953 389.812 368.006 389.852 368.051C389.951 368.133 390.079 368.173 390.208 368.161ZM386.868 368.137C387.341 368.15 387.807 368.022 388.206 367.768C388.376 367.672 388.516 367.533 388.615 367.364C388.713 367.196 388.765 367.005 388.765 366.81V365.963L387.39 366.221C386.956 366.278 386.538 366.422 386.162 366.645C386.039 366.717 385.937 366.821 385.866 366.944C385.795 367.068 385.757 367.208 385.757 367.351C385.751 367.465 385.776 367.579 385.827 367.681C385.879 367.783 385.956 367.87 386.051 367.934C386.297 368.081 386.582 368.152 386.868 368.137ZM395.39 362.611C395.622 362.598 395.853 362.64 396.065 362.734L395.869 363.691C395.628 363.575 395.362 363.52 395.095 363.532C394.823 363.535 394.558 363.613 394.328 363.759C394.063 363.927 393.851 364.165 393.714 364.447C393.546 364.79 393.464 365.169 393.474 365.552V368.873H392.492V362.734H393.29L393.425 363.74C393.595 363.371 393.875 363.064 394.227 362.862C394.579 362.659 394.986 362.571 395.39 362.611ZM400.769 362.611C401 362.598 401.231 362.64 401.444 362.734L401.247 363.691C401.007 363.575 400.741 363.52 400.474 363.532C400.202 363.535 399.936 363.613 399.706 363.759C399.442 363.927 399.229 364.165 399.092 364.447C398.923 364.79 398.839 365.169 398.847 365.552V368.873H397.864V362.734H398.663L398.798 363.74C398.967 363.37 399.249 363.062 399.602 362.86C399.955 362.657 400.363 362.57 400.769 362.611ZM408.112 368.161C408.277 368.161 408.442 368.14 408.603 368.1L408.542 368.873C408.305 368.957 408.056 368.998 407.805 368.996C407.537 369.011 407.272 368.938 407.05 368.787C406.845 368.61 406.719 368.358 406.7 368.088C406.494 368.385 406.206 368.616 405.871 368.751C405.509 368.912 405.118 368.996 404.723 368.996C404.191 369.018 403.666 368.869 403.224 368.573C403.031 368.434 402.875 368.249 402.772 368.034C402.669 367.82 402.622 367.582 402.635 367.345C402.637 367.109 402.694 366.878 402.801 366.668C402.907 366.458 403.061 366.276 403.249 366.135C403.772 365.751 404.385 365.51 405.03 365.435L406.663 365.165V364.821C406.671 364.64 406.642 364.459 406.576 364.29C406.511 364.121 406.41 363.967 406.282 363.839C406.139 363.711 405.972 363.612 405.791 363.549C405.61 363.486 405.418 363.459 405.226 363.47C404.851 363.461 404.481 363.563 404.164 363.765C403.85 363.98 403.609 364.283 403.47 364.637L402.746 364.109C402.911 363.648 403.236 363.26 403.66 363.016C404.135 362.738 404.677 362.598 405.226 362.611C405.855 362.58 406.475 362.766 406.982 363.139C407.207 363.328 407.385 363.568 407.5 363.839C407.615 364.11 407.665 364.405 407.645 364.698V367.719C407.641 367.779 407.648 367.839 407.667 367.896C407.686 367.953 407.716 368.006 407.756 368.051C407.855 368.133 407.983 368.173 408.112 368.161ZM404.772 368.137C405.243 368.149 405.707 368.021 406.104 367.768C406.273 367.672 406.414 367.533 406.512 367.364C406.61 367.196 406.662 367.005 406.663 366.81V365.963L405.287 366.221C404.854 366.278 404.436 366.422 404.06 366.645C403.937 366.717 403.835 366.821 403.764 366.944C403.693 367.068 403.655 367.208 403.654 367.351C403.649 367.465 403.673 367.579 403.725 367.681C403.777 367.783 403.854 367.87 403.949 367.934C404.197 368.083 404.483 368.153 404.772 368.137ZM412.987 362.611C413.536 362.592 414.077 362.74 414.54 363.034C414.978 363.336 415.32 363.755 415.529 364.244L414.596 364.686C414.51 364.324 414.299 364.003 414 363.781C413.701 363.559 413.334 363.449 412.962 363.47C412.691 363.456 412.42 363.504 412.17 363.61C411.92 363.717 411.697 363.879 411.519 364.084C411.145 364.576 410.96 365.186 410.998 365.803C410.961 366.418 411.146 367.026 411.519 367.517C411.697 367.723 411.919 367.886 412.169 367.994C412.419 368.101 412.69 368.15 412.962 368.137C413.372 368.158 413.778 368.043 414.117 367.811C414.414 367.578 414.615 367.244 414.682 366.872L415.59 367.191C415.406 367.725 415.064 368.19 414.608 368.523C414.131 368.849 413.564 369.015 412.987 368.996C412.584 369.018 412.182 368.954 411.806 368.808C411.43 368.661 411.09 368.437 410.807 368.149C410.249 367.499 409.965 366.658 410.015 365.803C409.965 364.949 410.249 364.107 410.807 363.458C411.09 363.17 411.43 362.946 411.806 362.799C412.182 362.653 412.584 362.589 412.987 362.611ZM423.007 362.734V368.873H422.148L422.086 367.94C421.854 368.302 421.525 368.593 421.137 368.779C420.749 368.966 420.316 369.041 419.888 368.996C419.296 369.021 418.716 368.824 418.261 368.444C418.038 368.225 417.866 367.96 417.756 367.667C417.647 367.374 417.603 367.061 417.629 366.749V362.734H418.611V366.491C418.566 366.946 418.698 367.402 418.979 367.762C419.125 367.895 419.296 367.996 419.481 368.06C419.667 368.125 419.864 368.151 420.06 368.137C420.578 368.154 421.082 367.969 421.466 367.621C421.663 367.417 421.815 367.174 421.912 366.907C422.008 366.641 422.046 366.356 422.025 366.074V362.734H423.007ZM431.112 359.909V368.873H430.252L430.191 367.805C430.007 368.17 429.718 368.471 429.362 368.671C428.975 368.891 428.536 369.004 428.091 368.996C427.708 369.013 427.326 368.945 426.972 368.796C426.619 368.647 426.302 368.422 426.046 368.137C425.514 367.48 425.245 366.648 425.291 365.803C425.243 364.957 425.512 364.123 426.046 363.464C426.302 363.179 426.619 362.953 426.972 362.805C427.326 362.656 427.708 362.588 428.091 362.605C428.513 362.597 428.929 362.699 429.301 362.899C429.642 363.082 429.929 363.354 430.129 363.685V359.909H431.112ZM428.202 368.137C428.467 368.148 428.732 368.098 428.975 367.992C429.219 367.886 429.435 367.725 429.608 367.523C429.975 367.055 430.16 366.471 430.129 365.877V365.73C430.16 365.136 429.975 364.552 429.608 364.084C429.435 363.882 429.219 363.721 428.975 363.615C428.732 363.509 428.467 363.459 428.202 363.47C427.933 363.458 427.666 363.509 427.42 363.619C427.175 363.728 426.959 363.894 426.789 364.103C426.424 364.592 426.241 365.194 426.274 365.803C426.241 366.413 426.424 367.015 426.789 367.504C426.959 367.713 427.175 367.878 427.42 367.988C427.666 368.098 427.933 368.149 428.202 368.137ZM438.799 368.161C438.965 368.161 439.13 368.14 439.29 368.1L439.229 368.873C438.992 368.957 438.743 368.998 438.492 368.996C438.224 369.011 437.959 368.938 437.737 368.787C437.532 368.61 437.406 368.358 437.387 368.088C437.182 368.387 436.894 368.62 436.558 368.757C436.197 368.918 435.805 369.002 435.41 369.002C434.878 369.024 434.353 368.876 433.912 368.579C433.718 368.44 433.562 368.255 433.459 368.04C433.356 367.826 433.309 367.589 433.322 367.351C433.325 367.115 433.381 366.884 433.488 366.674C433.594 366.464 433.748 366.282 433.936 366.141C434.458 365.755 435.072 365.511 435.717 365.435L437.35 365.165V364.821C437.358 364.64 437.329 364.459 437.263 364.29C437.198 364.121 437.098 363.967 436.969 363.839C436.826 363.711 436.659 363.612 436.478 363.549C436.297 363.486 436.105 363.459 435.913 363.47C435.538 363.461 435.168 363.563 434.851 363.765C434.538 363.98 434.296 364.283 434.157 364.637L433.433 364.109C433.599 363.648 433.923 363.26 434.348 363.016C434.822 362.738 435.364 362.598 435.913 362.611C436.542 362.58 437.162 362.766 437.669 363.139C437.895 363.328 438.072 363.568 438.187 363.839C438.302 364.11 438.352 364.405 438.332 364.698V367.719C438.328 367.779 438.335 367.839 438.354 367.896C438.373 367.953 438.403 368.006 438.443 368.051C438.542 368.133 438.67 368.173 438.799 368.161ZM435.459 368.137C435.93 368.149 436.394 368.021 436.791 367.768C436.961 367.672 437.101 367.533 437.199 367.364C437.298 367.196 437.35 367.005 437.35 366.81V365.963L435.975 366.221C435.541 366.278 435.123 366.422 434.747 366.645C434.624 366.717 434.522 366.821 434.451 366.944C434.38 367.068 434.342 367.208 434.341 367.351C434.336 367.465 434.36 367.579 434.412 367.681C434.464 367.783 434.541 367.87 434.636 367.934C434.884 368.083 435.171 368.153 435.459 368.137Z" fill="#333348"/>
<path d="M301.456 310.299C302.088 310.256 302.718 310.395 303.273 310.699C303.829 311.004 304.284 311.462 304.587 312.018L303.74 312.706C303.56 312.249 303.256 311.851 302.862 311.558C302.44 311.311 301.956 311.194 301.468 311.22C300.95 311.191 300.437 311.326 300.001 311.607C299.836 311.714 299.701 311.86 299.608 312.033C299.514 312.206 299.466 312.399 299.466 312.595C299.458 312.83 299.531 313.06 299.675 313.246C299.865 313.452 300.104 313.606 300.369 313.694C300.807 313.851 301.26 313.964 301.72 314.032C302.531 314.115 303.311 314.393 303.992 314.842C304.213 315.022 304.389 315.251 304.505 315.512C304.621 315.772 304.674 316.056 304.661 316.341C304.667 316.773 304.531 317.196 304.274 317.544C303.989 317.912 303.606 318.193 303.169 318.354C302.646 318.557 302.09 318.657 301.529 318.649C300.804 318.67 300.086 318.505 299.442 318.17C298.891 317.876 298.434 317.434 298.122 316.893L298.969 316.205C299.176 316.671 299.518 317.062 299.952 317.329C300.442 317.611 301.001 317.749 301.566 317.728C302.096 317.754 302.624 317.633 303.089 317.378C303.264 317.28 303.409 317.136 303.509 316.962C303.608 316.788 303.658 316.59 303.654 316.39C303.655 316.216 303.611 316.044 303.525 315.893C303.438 315.742 303.313 315.617 303.163 315.53C302.619 315.246 302.028 315.063 301.419 314.99C300.601 314.9 299.816 314.622 299.123 314.179C298.901 314.006 298.723 313.781 298.606 313.525C298.488 313.268 298.434 312.987 298.447 312.706C298.446 312.277 298.574 311.857 298.816 311.502C299.08 311.118 299.446 310.814 299.872 310.624C300.369 310.4 300.91 310.289 301.456 310.299ZM309.867 312.264C310.251 312.247 310.633 312.315 310.986 312.464C311.34 312.612 311.656 312.838 311.912 313.123C312.445 313.78 312.714 314.612 312.667 315.456C312.714 316.301 312.445 317.133 311.912 317.79C311.656 318.075 311.34 318.3 310.986 318.449C310.633 318.598 310.251 318.666 309.867 318.649C309.446 318.656 309.029 318.555 308.658 318.354C308.316 318.172 308.03 317.9 307.829 317.569V321.105H306.847V312.386H307.706L307.768 313.455C307.952 313.09 308.24 312.789 308.597 312.589C308.983 312.368 309.422 312.256 309.867 312.264ZM309.757 317.79C310.025 317.802 310.293 317.751 310.538 317.641C310.783 317.531 311 317.366 311.169 317.157C311.535 316.668 311.717 316.066 311.685 315.456C311.717 314.847 311.535 314.245 311.169 313.756C311 313.547 310.783 313.381 310.538 313.272C310.293 313.162 310.025 313.111 309.757 313.123C309.491 313.112 309.227 313.162 308.983 313.268C308.739 313.374 308.523 313.535 308.351 313.737C307.984 314.204 307.798 314.789 307.829 315.383V315.53C307.798 316.124 307.984 316.708 308.351 317.176C308.523 317.378 308.739 317.538 308.983 317.645C309.227 317.751 309.491 317.801 309.757 317.79ZM319.986 317.814C320.152 317.814 320.317 317.793 320.477 317.753L320.422 318.526C320.185 318.609 319.936 318.651 319.685 318.649C319.417 318.664 319.152 318.591 318.93 318.44C318.725 318.263 318.599 318.011 318.58 317.74C318.373 318.039 318.083 318.27 317.745 318.404C317.384 318.565 316.992 318.649 316.597 318.649C316.065 318.671 315.54 318.522 315.099 318.225C314.905 318.087 314.749 317.902 314.646 317.687C314.543 317.473 314.496 317.235 314.509 316.998C314.512 316.762 314.568 316.531 314.675 316.321C314.781 316.111 314.935 315.929 315.123 315.788C315.645 315.402 316.259 315.158 316.904 315.082L318.537 314.812V314.474C318.545 314.293 318.516 314.112 318.45 313.943C318.385 313.774 318.285 313.62 318.156 313.492C318.013 313.364 317.846 313.265 317.665 313.202C317.484 313.139 317.292 313.112 317.1 313.123C316.725 313.114 316.355 313.216 316.038 313.418C315.725 313.632 315.483 313.936 315.344 314.29L314.62 313.762C314.786 313.301 315.11 312.913 315.535 312.669C316.011 312.39 316.555 312.25 317.106 312.264C317.735 312.233 318.355 312.419 318.862 312.792C319.088 312.981 319.265 313.221 319.38 313.492C319.496 313.763 319.545 314.057 319.526 314.351V317.372C319.521 317.432 319.528 317.492 319.547 317.549C319.566 317.606 319.596 317.658 319.636 317.704C319.734 317.784 319.859 317.824 319.986 317.814ZM316.646 317.79C317.117 317.802 317.581 317.674 317.978 317.421C318.148 317.325 318.288 317.186 318.386 317.017C318.485 316.849 318.536 316.658 318.537 316.463V315.616L317.162 315.874C316.728 315.931 316.31 316.075 315.934 316.298C315.811 316.37 315.709 316.474 315.638 316.597C315.567 316.721 315.529 316.861 315.528 317.004C315.523 317.118 315.547 317.232 315.599 317.334C315.651 317.436 315.728 317.523 315.823 317.587C316.071 317.736 316.358 317.806 316.646 317.79ZM329.405 312.264C329.801 312.261 330.194 312.347 330.553 312.515C330.911 312.685 331.212 312.956 331.418 313.295C331.651 313.689 331.766 314.14 331.75 314.597V318.526H330.768V314.695C330.785 314.481 330.759 314.265 330.69 314.061C330.621 313.858 330.512 313.67 330.369 313.51C330.228 313.379 330.063 313.277 329.883 313.211C329.702 313.144 329.511 313.115 329.319 313.123C329.001 313.122 328.689 313.207 328.416 313.369C328.134 313.536 327.905 313.779 327.753 314.069C327.58 314.409 327.495 314.787 327.507 315.168V318.526H326.525V314.695C326.542 314.481 326.516 314.265 326.447 314.061C326.379 313.858 326.269 313.67 326.126 313.51C325.985 313.379 325.82 313.277 325.64 313.211C325.46 313.144 325.268 313.115 325.076 313.123C324.775 313.125 324.479 313.203 324.216 313.35C323.925 313.515 323.686 313.76 323.529 314.056C323.337 314.424 323.244 314.834 323.259 315.248V318.526H322.276V312.386H323.136L323.197 313.344C323.394 312.999 323.686 312.718 324.038 312.534C324.385 312.354 324.771 312.261 325.162 312.264C325.597 312.26 326.025 312.365 326.408 312.571C326.782 312.772 327.083 313.085 327.268 313.467C327.448 313.074 327.761 312.756 328.152 312.571C328.54 312.371 328.969 312.266 329.405 312.264ZM339.087 316.279H335.416L334.55 318.526H333.518L336.674 310.422H337.841L340.984 318.526H339.947L339.087 316.279ZM338.731 315.358L337.638 312.485L337.258 311.355H337.233L336.877 312.448L335.772 315.358H338.731ZM344.84 318.649C344.288 318.657 343.742 318.538 343.244 318.299C342.787 318.084 342.418 317.717 342.2 317.262L342.998 316.709C343.13 317.06 343.388 317.35 343.723 317.519C344.1 317.707 344.517 317.8 344.939 317.79C345.324 317.814 345.709 317.724 346.044 317.532C346.158 317.465 346.253 317.371 346.32 317.257C346.387 317.142 346.423 317.013 346.424 316.881C346.423 316.762 346.389 316.646 346.326 316.545C346.264 316.445 346.174 316.363 346.068 316.31C345.674 316.119 345.251 315.995 344.816 315.941C344.336 315.866 343.866 315.736 343.416 315.555C343.116 315.438 342.856 315.238 342.667 314.977C342.505 314.721 342.424 314.421 342.433 314.118C342.432 313.787 342.535 313.465 342.728 313.197C342.945 312.902 343.238 312.671 343.575 312.528C343.979 312.348 344.417 312.258 344.859 312.264C345.408 312.24 345.954 312.367 346.437 312.632C346.845 312.888 347.148 313.283 347.29 313.743L346.455 314.235C346.36 313.892 346.15 313.593 345.86 313.387C345.559 313.204 345.211 313.112 344.859 313.123C344.5 313.112 344.146 313.206 343.839 313.393C343.721 313.452 343.621 313.541 343.548 313.651C343.474 313.761 343.431 313.888 343.422 314.02C343.42 314.148 343.453 314.274 343.518 314.385C343.583 314.495 343.677 314.586 343.79 314.646C344.198 314.845 344.636 314.974 345.086 315.027C345.729 315.089 346.348 315.304 346.891 315.653C347.066 315.793 347.205 315.974 347.297 316.179C347.389 316.384 347.431 316.607 347.419 316.832C347.423 317.171 347.313 317.502 347.106 317.771C346.872 318.064 346.562 318.287 346.209 318.416C345.772 318.581 345.307 318.66 344.84 318.649ZM351.68 318.649C351.128 318.657 350.582 318.538 350.084 318.299C349.627 318.084 349.258 317.717 349.04 317.262L349.838 316.709C349.969 317.06 350.228 317.35 350.563 317.519C350.94 317.707 351.357 317.8 351.778 317.79C352.164 317.814 352.549 317.724 352.884 317.532C352.998 317.465 353.093 317.371 353.16 317.257C353.226 317.142 353.262 317.013 353.264 316.881C353.263 316.762 353.229 316.646 353.166 316.545C353.103 316.445 353.014 316.363 352.908 316.31C352.514 316.119 352.09 315.995 351.656 315.941C351.178 315.864 350.71 315.732 350.262 315.548C349.962 315.432 349.702 315.231 349.513 314.971C349.351 314.714 349.27 314.415 349.279 314.112C349.278 313.781 349.381 313.459 349.574 313.191C349.791 312.896 350.084 312.665 350.421 312.522C350.822 312.345 351.255 312.258 351.692 312.264C352.242 312.24 352.788 312.367 353.27 312.632C353.679 312.888 353.982 313.283 354.124 313.743L353.289 314.235C353.194 313.892 352.984 313.593 352.693 313.387C352.392 313.206 352.044 313.116 351.692 313.129C351.334 313.118 350.979 313.212 350.673 313.4C350.555 313.459 350.455 313.547 350.381 313.657C350.308 313.767 350.265 313.894 350.256 314.026C350.253 314.154 350.286 314.28 350.352 314.391C350.417 314.501 350.511 314.592 350.624 314.652C351.031 314.851 351.469 314.98 351.92 315.033C352.562 315.095 353.181 315.31 353.725 315.659C353.9 315.8 354.039 315.98 354.131 316.185C354.223 316.39 354.265 316.614 354.253 316.838C354.257 317.177 354.147 317.508 353.94 317.777C353.705 318.07 353.395 318.293 353.043 318.422C352.608 318.584 352.145 318.661 351.68 318.649ZM361.467 317.814C361.633 317.814 361.798 317.793 361.958 317.753L361.897 318.526C361.66 318.609 361.411 318.651 361.16 318.649C360.892 318.664 360.627 318.591 360.405 318.44C360.2 318.263 360.074 318.011 360.055 317.74C359.85 318.038 359.561 318.269 359.226 318.404C358.865 318.565 358.474 318.649 358.078 318.649C357.546 318.671 357.021 318.522 356.58 318.225C356.386 318.087 356.23 317.902 356.127 317.687C356.024 317.473 355.977 317.235 355.99 316.998C355.993 316.762 356.049 316.531 356.156 316.321C356.262 316.111 356.416 315.929 356.604 315.788C357.126 315.402 357.74 315.158 358.385 315.082L360.018 314.812V314.474C360.026 314.293 359.997 314.112 359.931 313.943C359.866 313.774 359.766 313.62 359.637 313.492C359.494 313.364 359.327 313.265 359.146 313.202C358.965 313.139 358.773 313.112 358.581 313.123C358.206 313.114 357.836 313.216 357.519 313.418C357.206 313.632 356.964 313.936 356.825 314.29L356.101 313.762C356.267 313.301 356.591 312.913 357.016 312.669C357.49 312.391 358.032 312.251 358.581 312.264C359.21 312.233 359.83 312.419 360.337 312.792C360.563 312.981 360.74 313.221 360.855 313.492C360.97 313.763 361.02 314.057 361 314.351V317.372C360.996 317.432 361.003 317.492 361.022 317.549C361.041 317.606 361.071 317.658 361.111 317.704C361.211 317.786 361.338 317.826 361.467 317.814ZM358.127 317.79C358.598 317.802 359.062 317.674 359.459 317.421C359.629 317.325 359.769 317.186 359.868 317.017C359.966 316.849 360.018 316.658 360.018 316.463V315.616L358.643 315.874C358.209 315.931 357.791 316.075 357.415 316.298C357.292 316.37 357.19 316.474 357.119 316.597C357.048 316.721 357.01 316.861 357.01 317.004C357.004 317.118 357.029 317.232 357.08 317.334C357.132 317.436 357.209 317.523 357.304 317.587C357.552 317.736 357.839 317.806 358.127 317.79ZM365.839 318.649C365.287 318.657 364.74 318.538 364.242 318.299C363.785 318.084 363.417 317.717 363.199 317.262L363.997 316.709C364.128 317.06 364.387 317.35 364.721 317.519C365.098 317.707 365.516 317.8 365.937 317.79C366.323 317.814 366.707 317.724 367.042 317.532C367.156 317.465 367.252 317.371 367.318 317.257C367.385 317.142 367.421 317.013 367.423 316.881C367.422 316.762 367.388 316.646 367.325 316.545C367.262 316.445 367.173 316.363 367.067 316.31C366.672 316.119 366.249 315.995 365.814 315.941C365.334 315.866 364.865 315.736 364.414 315.555C364.115 315.438 363.855 315.238 363.665 314.977C363.504 314.721 363.422 314.421 363.432 314.118C363.43 313.787 363.533 313.465 363.727 313.197C363.944 312.902 364.237 312.671 364.574 312.528C364.977 312.348 365.415 312.258 365.857 312.264C366.407 312.24 366.953 312.367 367.435 312.632C367.844 312.888 368.147 313.283 368.289 313.743L367.453 314.235C367.359 313.892 367.148 313.593 366.858 313.387C366.557 313.204 366.209 313.112 365.857 313.123C365.498 313.112 365.144 313.206 364.838 313.393C364.72 313.452 364.619 313.541 364.546 313.651C364.473 313.761 364.43 313.888 364.42 314.02C364.418 314.148 364.451 314.274 364.516 314.385C364.581 314.495 364.676 314.586 364.789 314.646C365.196 314.845 365.634 314.974 366.084 315.027C366.727 315.089 367.346 315.304 367.889 315.653C368.065 315.793 368.204 315.974 368.296 316.179C368.388 316.384 368.429 316.607 368.417 316.832C368.422 317.171 368.311 317.502 368.104 317.771C367.87 318.064 367.56 318.287 367.208 318.416C366.771 318.581 366.306 318.66 365.839 318.649ZM372.679 318.649C372.127 318.657 371.58 318.538 371.082 318.299C370.625 318.084 370.257 317.717 370.038 317.262L370.837 316.709C370.968 317.06 371.226 317.35 371.561 317.519C371.938 317.707 372.356 317.8 372.777 317.79C373.163 317.814 373.547 317.724 373.882 317.532C373.996 317.465 374.091 317.371 374.158 317.257C374.225 317.142 374.261 317.013 374.263 316.881C374.261 316.762 374.227 316.646 374.165 316.545C374.102 316.445 374.013 316.363 373.907 316.31C373.512 316.119 373.089 315.995 372.654 315.941C372.174 315.866 371.705 315.736 371.254 315.555C370.954 315.438 370.694 315.238 370.505 314.977C370.344 314.721 370.262 314.421 370.272 314.118C370.27 313.787 370.373 313.465 370.566 313.197C370.784 312.902 371.076 312.671 371.414 312.528C371.816 312.353 372.252 312.267 372.691 312.276C373.241 312.252 373.786 312.38 374.269 312.644C374.677 312.9 374.98 313.295 375.122 313.756L374.287 314.247C374.192 313.904 373.982 313.605 373.692 313.4C373.39 313.218 373.042 313.128 372.691 313.142C372.332 313.13 371.978 313.224 371.672 313.412C371.554 313.471 371.453 313.56 371.38 313.67C371.307 313.779 371.263 313.906 371.254 314.038C371.252 314.166 371.285 314.293 371.35 314.403C371.415 314.514 371.509 314.604 371.622 314.664C372.03 314.863 372.468 314.992 372.918 315.045C373.561 315.107 374.18 315.322 374.723 315.671C374.898 315.812 375.038 315.992 375.129 316.197C375.221 316.402 375.263 316.626 375.251 316.85C375.255 317.19 375.145 317.521 374.938 317.79C374.704 318.082 374.394 318.305 374.042 318.434C373.605 318.592 373.142 318.665 372.679 318.649ZM377.922 311.208C377.824 311.212 377.726 311.196 377.634 311.161C377.542 311.127 377.458 311.073 377.388 311.005C377.32 310.934 377.266 310.851 377.231 310.759C377.197 310.667 377.181 310.569 377.185 310.471C377.18 310.372 377.195 310.272 377.23 310.18C377.265 310.087 377.319 310.002 377.388 309.93C377.458 309.862 377.542 309.809 377.634 309.774C377.726 309.739 377.824 309.724 377.922 309.728C378.02 309.724 378.118 309.739 378.21 309.774C378.302 309.809 378.386 309.862 378.456 309.93C378.525 310.001 378.578 310.085 378.613 310.177C378.647 310.269 378.663 310.367 378.659 310.465C378.663 310.563 378.647 310.661 378.613 310.753C378.578 310.844 378.525 310.928 378.456 310.999C378.386 311.068 378.303 311.123 378.211 311.159C378.119 311.194 378.021 311.211 377.922 311.208ZM378.413 318.526H377.431V312.386H378.413V318.526ZM384.05 312.264C384.678 312.24 385.292 312.455 385.769 312.865C386.001 313.087 386.182 313.357 386.298 313.656C386.415 313.955 386.465 314.276 386.444 314.597V318.526H385.462V314.941C385.506 314.443 385.359 313.946 385.05 313.553C384.907 313.408 384.734 313.294 384.544 313.22C384.353 313.146 384.149 313.113 383.945 313.123C383.626 313.121 383.31 313.195 383.024 313.338C382.724 313.495 382.478 313.739 382.318 314.038C382.121 314.414 382.026 314.836 382.042 315.26V318.526H381.059V312.386H381.919L381.98 313.344C382.17 312.99 382.467 312.704 382.828 312.528C383.209 312.346 383.627 312.256 384.05 312.264Z" fill="#333348"/>
<path d="M326.872 437.775C324.405 437.775 323.171 436.244 323.171 433.183C323.171 430.121 324.405 428.59 326.872 428.59C329.34 428.59 330.574 430.121 330.574 433.183C330.574 436.244 329.34 437.775 326.872 437.775ZM326.872 435.965C327.096 435.977 327.317 435.921 327.508 435.805C327.7 435.69 327.852 435.52 327.946 435.317C328.211 434.638 328.326 433.91 328.281 433.183C328.327 432.456 328.214 431.727 327.951 431.048C327.857 430.846 327.705 430.676 327.513 430.56C327.322 430.444 327.101 430.389 326.877 430.4C326.654 430.388 326.432 430.444 326.241 430.56C326.049 430.675 325.897 430.845 325.803 431.048C325.539 431.727 325.426 432.456 325.471 433.183C325.426 433.91 325.539 434.638 325.803 435.317C325.896 435.519 326.048 435.689 326.239 435.804C326.429 435.92 326.65 435.976 326.872 435.965ZM333.504 435.317C333.863 435.296 334.218 435.411 334.496 435.641C334.618 435.757 334.713 435.898 334.775 436.054C334.837 436.21 334.864 436.378 334.854 436.546C334.863 436.712 334.835 436.877 334.773 437.031C334.711 437.185 334.617 437.324 334.496 437.438C334.218 437.667 333.864 437.784 333.505 437.763C333.145 437.785 332.79 437.669 332.511 437.439C332.39 437.325 332.296 437.187 332.234 437.033C332.172 436.879 332.144 436.713 332.153 436.547C332.143 436.38 332.171 436.212 332.232 436.055C332.294 435.899 332.39 435.758 332.511 435.642C332.789 435.412 333.143 435.296 333.504 435.317ZM344.161 435.685H342.798V437.64H340.745V435.675H336.263V434.581L340.083 428.725H342.798V434.088H344.162L344.161 435.685ZM338.42 434.089H340.745V431.71L340.799 430.251H340.772C340.555 430.76 340.293 431.248 339.989 431.71L338.42 434.089ZM347.864 428.59C348.199 428.576 348.534 428.631 348.848 428.751C349.162 428.871 349.447 429.055 349.687 429.29C349.92 429.535 350.101 429.824 350.22 430.141C350.338 430.457 350.391 430.794 350.376 431.132C350.391 431.47 350.338 431.807 350.22 432.123C350.101 432.44 349.92 432.729 349.687 432.974C349.447 433.208 349.161 433.391 348.847 433.511C348.534 433.631 348.199 433.685 347.864 433.67C347.528 433.685 347.193 433.631 346.88 433.511C346.566 433.391 346.28 433.208 346.04 432.974C345.807 432.729 345.625 432.44 345.507 432.123C345.388 431.807 345.335 431.47 345.35 431.132C345.335 430.794 345.388 430.457 345.506 430.141C345.625 429.824 345.806 429.535 346.039 429.29C346.279 429.055 346.565 428.871 346.879 428.751C347.192 428.63 347.528 428.576 347.864 428.59ZM353.512 428.713H355.268L349.066 437.64H347.315L353.512 428.713ZM347.864 430.131C347.752 430.125 347.64 430.146 347.538 430.192C347.435 430.238 347.345 430.308 347.275 430.395C347.124 430.61 347.05 430.87 347.067 431.132C347.05 431.394 347.124 431.654 347.275 431.869C347.346 431.956 347.436 432.025 347.538 432.071C347.64 432.117 347.752 432.137 347.864 432.132C347.977 432.138 348.091 432.118 348.196 432.072C348.301 432.027 348.393 431.957 348.465 431.869C348.617 431.654 348.69 431.394 348.674 431.132C348.69 430.87 348.617 430.61 348.465 430.395C348.393 430.307 348.301 430.236 348.196 430.19C348.092 430.144 347.978 430.123 347.864 430.13V430.131ZM354.683 432.696C355.018 432.682 355.353 432.736 355.666 432.856C355.98 432.975 356.266 433.158 356.506 433.393C356.739 433.637 356.92 433.927 357.039 434.243C357.157 434.56 357.21 434.897 357.195 435.235C357.21 435.572 357.157 435.909 357.039 436.226C356.92 436.543 356.739 436.832 356.506 437.077C356.266 437.312 355.98 437.495 355.667 437.615C355.353 437.735 355.018 437.79 354.683 437.775C354.347 437.79 354.012 437.736 353.699 437.616C353.385 437.496 353.099 437.314 352.859 437.079C352.626 436.834 352.445 436.545 352.326 436.228C352.208 435.912 352.155 435.575 352.17 435.237C352.155 434.899 352.208 434.562 352.326 434.246C352.445 433.929 352.626 433.64 352.859 433.395C353.099 433.16 353.385 432.977 353.698 432.857C354.012 432.737 354.347 432.682 354.683 432.696ZM354.683 434.236C354.569 434.23 354.455 434.25 354.35 434.295C354.246 434.341 354.153 434.411 354.081 434.499C353.929 434.714 353.855 434.974 353.871 435.236C353.855 435.498 353.929 435.758 354.081 435.973C354.153 436.061 354.246 436.131 354.35 436.176C354.455 436.222 354.569 436.242 354.683 436.235C354.796 436.242 354.91 436.222 355.014 436.176C355.119 436.13 355.211 436.061 355.283 435.973C355.435 435.758 355.509 435.498 355.493 435.236C355.509 434.974 355.435 434.714 355.283 434.499C355.211 434.411 355.119 434.341 355.014 434.296C354.91 434.25 354.796 434.23 354.683 434.236Z" fill="#26CB6F"/>
<path d="M394.028 437.775C391.561 437.775 390.327 436.244 390.327 433.183C390.327 430.121 391.561 428.59 394.028 428.59C396.496 428.59 397.729 430.121 397.729 433.183C397.729 436.244 396.496 437.775 394.028 437.775ZM394.028 435.965C394.251 435.977 394.473 435.921 394.664 435.805C394.855 435.69 395.008 435.52 395.101 435.317C395.365 434.638 395.478 433.91 395.432 433.183C395.478 432.456 395.365 431.727 395.101 431.048C395.008 430.846 394.855 430.676 394.664 430.56C394.473 430.444 394.251 430.389 394.028 430.4C393.805 430.388 393.583 430.444 393.392 430.56C393.2 430.675 393.048 430.845 392.954 431.048C392.691 431.728 392.58 432.456 392.627 433.183C392.581 433.91 392.694 434.638 392.959 435.317C393.052 435.519 393.204 435.689 393.394 435.804C393.585 435.92 393.806 435.976 394.028 435.965ZM400.659 435.317C401.019 435.296 401.374 435.411 401.651 435.641C401.773 435.757 401.868 435.898 401.93 436.054C401.992 436.21 402.019 436.378 402.01 436.546C402.019 436.712 401.991 436.877 401.929 437.031C401.867 437.185 401.772 437.324 401.651 437.438C401.374 437.668 401.019 437.784 400.659 437.763C400.299 437.785 399.944 437.669 399.666 437.439C399.545 437.325 399.45 437.187 399.388 437.033C399.326 436.879 399.299 436.713 399.307 436.547C399.298 436.38 399.325 436.212 399.387 436.055C399.449 435.899 399.544 435.758 399.666 435.642C399.944 435.412 400.299 435.296 400.659 435.317ZM409.615 428.725V430.373C408.626 431.293 407.856 432.424 407.363 433.682C406.905 434.951 406.68 436.292 406.697 437.64H404.401C404.389 436.343 404.629 435.056 405.109 433.851C405.63 432.614 406.39 431.491 407.346 430.549H402.28V428.725H409.615ZM413.331 428.59C413.666 428.576 414.001 428.631 414.314 428.751C414.628 428.872 414.913 429.055 415.153 429.29C415.386 429.535 415.567 429.824 415.686 430.141C415.804 430.457 415.857 430.794 415.842 431.132C415.857 431.47 415.804 431.807 415.686 432.123C415.567 432.44 415.386 432.729 415.153 432.974C414.913 433.208 414.627 433.391 414.313 433.511C414 433.631 413.665 433.685 413.33 433.67C412.994 433.685 412.659 433.631 412.346 433.511C412.032 433.391 411.746 433.208 411.506 432.974C411.273 432.729 411.092 432.44 410.973 432.123C410.855 431.807 410.802 431.47 410.817 431.132C410.802 430.794 410.855 430.457 410.973 430.141C411.092 429.824 411.273 429.535 411.506 429.29C411.746 429.055 412.032 428.871 412.346 428.751C412.66 428.63 412.995 428.576 413.331 428.59ZM418.979 428.713H420.735L414.532 437.64H412.776L418.979 428.713ZM413.331 430.13C413.219 430.124 413.107 430.145 413.005 430.191C412.903 430.237 412.813 430.306 412.743 430.394C412.591 430.609 412.518 430.869 412.534 431.131C412.518 431.393 412.591 431.653 412.743 431.868C412.813 431.955 412.903 432.024 413.005 432.07C413.107 432.115 413.219 432.136 413.331 432.13C413.445 432.137 413.559 432.117 413.663 432.071C413.768 432.025 413.86 431.956 413.932 431.868C414.084 431.653 414.157 431.393 414.141 431.131C414.157 430.869 414.084 430.609 413.932 430.394C413.86 430.306 413.768 430.236 413.663 430.19C413.559 430.144 413.445 430.123 413.331 430.13ZM420.152 432.696C420.488 432.681 420.822 432.735 421.136 432.855C421.45 432.975 421.735 433.157 421.976 433.391C422.209 433.636 422.39 433.925 422.508 434.242C422.627 434.559 422.68 434.896 422.665 435.233C422.68 435.571 422.627 435.908 422.508 436.225C422.39 436.541 422.209 436.831 421.976 437.075C421.736 437.311 421.45 437.494 421.137 437.614C420.823 437.735 420.488 437.79 420.152 437.775C419.817 437.79 419.481 437.736 419.168 437.616C418.854 437.497 418.568 437.314 418.327 437.079C418.094 436.834 417.913 436.545 417.795 436.228C417.676 435.912 417.623 435.575 417.639 435.237C417.623 434.899 417.676 434.562 417.795 434.246C417.913 433.929 418.094 433.64 418.327 433.395C418.568 433.16 418.853 432.977 419.167 432.856C419.481 432.736 419.816 432.682 420.152 432.696ZM420.152 434.236C420.038 434.23 419.924 434.25 419.82 434.295C419.715 434.341 419.623 434.411 419.55 434.499C419.399 434.714 419.325 434.974 419.34 435.236C419.325 435.498 419.399 435.758 419.55 435.973C419.623 436.061 419.715 436.131 419.82 436.176C419.924 436.222 420.038 436.242 420.152 436.235C420.266 436.242 420.38 436.222 420.484 436.176C420.588 436.13 420.68 436.061 420.753 435.973C420.904 435.758 420.978 435.498 420.963 435.236C420.978 434.974 420.904 434.714 420.753 434.499C420.68 434.411 420.588 434.341 420.484 434.296C420.38 434.25 420.266 434.23 420.152 434.236Z" fill="#26CB6F"/>
<path d="M256.228 436.547C255.625 436.609 255.015 436.535 254.445 436.329C253.874 436.123 253.357 435.792 252.932 435.359L254.121 434.062C254.335 434.388 254.635 434.65 254.987 434.819C255.339 434.988 255.731 435.058 256.12 435.021C256.374 435.034 256.627 434.992 256.863 434.898C256.938 434.874 257.003 434.829 257.051 434.767C257.099 434.706 257.128 434.631 257.133 434.553C257.133 434.427 257.041 434.316 256.856 434.221C256.551 434.09 256.231 433.997 255.903 433.944C255.132 433.84 254.395 433.563 253.748 433.133C253.54 432.973 253.374 432.766 253.263 432.528C253.151 432.291 253.097 432.031 253.105 431.769C253.109 431.375 253.238 430.991 253.474 430.675C253.758 430.301 254.141 430.013 254.579 429.844C255.148 429.617 255.757 429.509 256.369 429.526C257.017 429.503 257.662 429.612 258.267 429.844C258.745 430.045 259.159 430.375 259.463 430.797L258.274 431.958C258.082 431.665 257.817 431.427 257.504 431.269C257.169 431.117 256.804 431.043 256.437 431.053C256.176 431.04 255.917 431.091 255.68 431.202C255.605 431.231 255.54 431.282 255.492 431.347C255.444 431.412 255.416 431.49 255.41 431.57C255.41 431.705 255.502 431.82 255.687 431.914C255.996 432.046 256.321 432.139 256.653 432.192C257.416 432.277 258.149 432.539 258.793 432.955C259.006 433.116 259.177 433.326 259.291 433.567C259.405 433.808 259.459 434.073 259.449 434.339C259.453 434.653 259.38 434.962 259.237 435.241C259.093 435.519 258.883 435.758 258.625 435.936C257.912 436.391 257.072 436.605 256.228 436.547ZM265.373 429.523C265.763 429.503 266.153 429.576 266.51 429.735C266.867 429.895 267.181 430.137 267.426 430.442C267.954 431.19 268.211 432.095 268.156 433.008C268.214 433.936 267.954 434.855 267.419 435.615C267.176 435.922 266.864 436.166 266.508 436.328C266.153 436.49 265.763 436.565 265.373 436.547C264.937 436.558 264.507 436.441 264.138 436.21C263.787 435.981 263.508 435.658 263.333 435.277V439.249H261.037V429.658H263.05L263.117 431.09C263.291 430.633 263.594 430.236 263.989 429.948C264.392 429.661 264.878 429.512 265.373 429.523ZM264.576 434.859C264.757 434.867 264.937 434.831 265.101 434.753C265.264 434.675 265.406 434.558 265.514 434.413C265.766 434 265.882 433.518 265.846 433.035C265.882 432.553 265.766 432.071 265.514 431.657C265.406 431.512 265.264 431.395 265.101 431.317C264.937 431.24 264.757 431.203 264.576 431.212C264.399 431.205 264.223 431.242 264.064 431.32C263.905 431.398 263.767 431.514 263.664 431.657C263.417 432.048 263.302 432.507 263.333 432.968V433.103C263.306 433.558 263.419 434.011 263.657 434.399C263.759 434.548 263.897 434.668 264.057 434.748C264.218 434.828 264.396 434.866 264.576 434.859ZM276.382 435.104C276.523 435.108 276.665 435.09 276.8 435.05L276.625 436.331C276.342 436.48 276.026 436.555 275.706 436.547C274.735 436.547 274.155 436.201 273.964 435.507C273.695 435.882 273.329 436.176 272.905 436.36C272.482 436.543 272.017 436.608 271.559 436.547C271.008 436.584 270.46 436.431 270.006 436.115C269.823 435.963 269.678 435.77 269.583 435.552C269.489 435.334 269.447 435.096 269.461 434.859C269.452 434.595 269.503 434.333 269.61 434.092C269.716 433.851 269.875 433.637 270.075 433.465C270.671 433.028 271.367 432.745 272.1 432.643L273.626 432.346V432.101C273.639 431.835 273.546 431.576 273.37 431.377C273.278 431.286 273.168 431.214 273.047 431.167C272.926 431.121 272.797 431.1 272.667 431.107C272.369 431.095 272.074 431.181 271.83 431.353C271.592 431.554 271.442 431.84 271.411 432.15L269.547 431.61C269.594 431.299 269.704 431.003 269.871 430.737C270.039 430.472 270.26 430.245 270.519 430.07C271.164 429.675 271.912 429.484 272.667 429.523C273.518 429.465 274.365 429.693 275.071 430.172C275.352 430.407 275.574 430.706 275.717 431.044C275.86 431.382 275.921 431.748 275.895 432.114V434.57C275.895 434.925 276.058 435.102 276.382 435.102V435.104ZM272.397 435.061C272.701 435.065 272.999 434.972 273.248 434.797C273.365 434.723 273.461 434.621 273.528 434.499C273.594 434.377 273.628 434.241 273.626 434.102V433.521L272.531 433.778C272.31 433.82 272.1 433.91 271.917 434.041C271.855 434.096 271.807 434.163 271.776 434.239C271.744 434.315 271.73 434.397 271.735 434.479C271.73 434.56 271.743 434.641 271.773 434.716C271.804 434.79 271.851 434.857 271.911 434.912C272.05 435.018 272.222 435.071 272.397 435.061ZM286.898 429.523C287.204 429.51 287.509 429.559 287.795 429.666C288.082 429.772 288.344 429.935 288.567 430.145C288.79 430.379 288.963 430.658 289.073 430.962C289.184 431.267 289.23 431.591 289.209 431.914V436.412H286.913V432.441C286.913 431.666 286.607 431.279 285.994 431.279C285.831 431.274 285.668 431.307 285.519 431.375C285.37 431.443 285.238 431.544 285.135 431.671C284.898 432 284.783 432.401 284.811 432.806V436.412H282.514V432.441C282.514 431.666 282.208 431.279 281.596 431.279C281.434 431.276 281.273 431.31 281.125 431.378C280.978 431.445 280.848 431.546 280.745 431.671C280.495 432.01 280.376 432.427 280.407 432.846V436.412H278.111V429.658H280.164L280.231 430.955C280.421 430.518 280.736 430.146 281.136 429.888C281.547 429.637 282.02 429.509 282.501 429.519C282.968 429.507 283.43 429.629 283.831 429.871C284.206 430.107 284.49 430.464 284.635 430.884C284.834 430.461 285.157 430.108 285.56 429.871C285.967 429.637 286.429 429.517 286.898 429.523Z" fill="#FC676A"/>
<path d="M432.782 423.518H381.207V441.938H432.782V423.518Z" stroke="#26CB6F" stroke-width="1.22798"/>
</g>
</g>
<defs>
<clipPath id="clip0_3_354">
<rect width="683.984" height="558.73" fill="white" transform="translate(0.00811768 0.47998)"/>
</clipPath>
</defs>
</svg>
