<svg width="11" height="7" viewBox="0 0 11 7" fill="none" xmlns="http://www.w3.org/2000/svg">
<g clip-path="url(#clip0_3_944)">
<g opacity="0.8">
<path d="M4.64708 6.19804L0.800587 2.35154C0.74242 2.29338 0.696281 2.22433 0.664803 2.14833C0.633324 2.07233 0.617121 1.99088 0.617121 1.90862C0.617121 1.82636 0.633324 1.74491 0.664803 1.66891C0.696281 1.59291 0.74242 1.52386 0.800587 1.4657C0.858752 1.40753 0.927805 1.36139 1.0038 1.32991C1.0798 1.29843 1.16125 1.28223 1.24351 1.28223C1.40964 1.28223 1.56897 1.34823 1.68644 1.4657L5.09001 4.86926L8.49358 1.4657C8.61105 1.34823 8.77038 1.28223 8.93651 1.28223C9.10264 1.28223 9.26196 1.34823 9.37943 1.4657C9.4969 1.58317 9.5629 1.74249 9.5629 1.90862C9.5629 2.07475 9.4969 2.23407 9.37943 2.35154L5.53293 6.19804C5.47477 6.25622 5.40572 6.30237 5.32973 6.33386C5.25373 6.36535 5.17227 6.38155 5.09001 6.38155C5.00775 6.38155 4.92629 6.36535 4.85029 6.33386C4.77429 6.30237 4.70524 6.25622 4.64708 6.19804Z" fill="white" stroke="white" stroke-width="0.837287"/>
</g>
</g>
<defs>
<clipPath id="clip0_3_944">
<rect width="9.78286" height="6" fill="white" transform="translate(0.198578 0.800049)"/>
</clipPath>
</defs>
</svg>
