<svg width="15" height="15" viewBox="0 0 15 15" fill="none" xmlns="http://www.w3.org/2000/svg">
<g clip-path="url(#clip0_3_846)">
<path d="M13.0333 9.39022C12.1753 9.39259 11.3225 9.25771 10.5071 8.99067C10.3156 8.92886 10.1112 8.91819 9.91428 8.95971C9.71735 9.00124 9.53468 9.09352 9.3844 9.2274L7.78621 10.4261C6.073 9.57213 4.68473 8.18316 3.83167 6.46952L4.99436 4.91827C5.14351 4.76942 5.24872 4.58231 5.29841 4.37753C5.34811 4.17276 5.34037 3.95824 5.27604 3.75758C5.0087 2.94058 4.87381 2.08606 4.87649 1.22644C4.87597 0.925124 4.75604 0.636303 4.54297 0.423242C4.32991 0.21018 4.04109 0.0902498 3.73978 0.0897217L1.13672 0.0897217C0.835403 0.0902498 0.546581 0.21018 0.33352 0.423242C0.120459 0.636303 0.000528159 0.925124 0 1.22644C0.00370167 4.68194 1.37804 7.99486 3.82145 10.4383C6.26486 12.8817 9.57778 14.256 13.0333 14.2597C13.3346 14.2592 13.6234 14.1393 13.8365 13.9262C14.0495 13.7131 14.1695 13.4243 14.17 13.123V10.5259C14.1692 10.2248 14.0492 9.93623 13.8361 9.72339C13.6231 9.51054 13.3344 9.39075 13.0333 9.39022Z" fill="#3735C0"/>
</g>
<defs>
<clipPath id="clip0_3_846">
<rect width="14.17" height="14.17" fill="white" transform="translate(0 0.0897217)"/>
</clipPath>
</defs>
</svg>
