<svg width="15" height="16" viewBox="0 0 15 16" fill="none" xmlns="http://www.w3.org/2000/svg">
<g clip-path="url(#clip0_3_851)">
<path d="M13.0333 10.2403C12.1753 10.2427 11.3225 10.1078 10.5071 9.84077C10.3156 9.77896 10.1112 9.76829 9.91428 9.80981C9.71735 9.85134 9.53468 9.94362 9.3844 10.0775L7.78621 11.2761C6.073 10.4222 4.68473 9.03326 3.83167 7.31962L4.99436 5.76837C5.14351 5.61951 5.24872 5.43241 5.29841 5.22763C5.34811 5.02286 5.34037 4.80834 5.27604 4.60768C5.0087 3.79068 4.87381 2.93616 4.87649 2.07654C4.87597 1.77522 4.75604 1.4864 4.54297 1.27334C4.32991 1.06028 4.04109 0.940347 3.73978 0.939819L1.13672 0.939819C0.835403 0.940347 0.546581 1.06028 0.33352 1.27334C0.120459 1.4864 0.000528159 1.77522 0 2.07654C0.00370167 5.53204 1.37804 8.84496 3.82145 11.2884C6.26486 13.7318 9.57778 15.1061 13.0333 15.1098C13.3346 15.1093 13.6234 14.9894 13.8365 14.7763C14.0495 14.5632 14.1695 14.2744 14.17 13.9731V11.376C14.1692 11.0749 14.0492 10.7863 13.8361 10.5735C13.6231 10.3606 13.3344 10.2408 13.0333 10.2403Z" fill="#3735C0"/>
</g>
<defs>
<clipPath id="clip0_3_851">
<rect width="14.17" height="14.17" fill="white" transform="translate(0 0.939819)"/>
</clipPath>
</defs>
</svg>
