<svg width="15" height="11" viewBox="0 0 15 11" fill="none" xmlns="http://www.w3.org/2000/svg">
<g clip-path="url(#clip0_3_856)">
<path d="M0.298511 0.997076C2.24251 2.64453 5.65323 5.5428 6.65568 6.44595C6.71097 6.50392 6.77744 6.55007 6.85106 6.5816C6.92469 6.61313 7.00394 6.62938 7.08402 6.62938C7.1641 6.62938 7.24336 6.61313 7.31698 6.5816C7.3906 6.55007 7.45707 6.50392 7.51236 6.44595C8.51082 5.5418 11.9265 2.64253 13.8705 0.996077C13.9279 0.946155 13.9642 0.876256 13.972 0.800559C13.9798 0.724862 13.9585 0.649039 13.9125 0.588463C13.8029 0.447295 13.6626 0.333045 13.5022 0.254435C13.3418 0.175825 13.1655 0.134933 12.9869 0.134888H1.17915C1.00028 0.134898 0.823787 0.175872 0.663184 0.254663C0.502581 0.333455 0.362128 0.447977 0.252582 0.589462C0.20702 0.650517 0.186409 0.72664 0.194941 0.802358C0.203473 0.878077 0.240506 0.947704 0.298511 0.997076Z" fill="#3735C0"/>
<path d="M13.9963 1.89022C13.9453 1.86646 13.8885 1.85788 13.8327 1.86549C13.777 1.87311 13.7246 1.8966 13.6818 1.93318C11.5261 3.76146 8.77437 6.10625 7.90871 6.88652C7.68619 7.09731 7.39141 7.21479 7.08498 7.21479C6.77855 7.21479 6.48378 7.09731 6.26125 6.88652C5.33868 6.0543 2.24846 3.42677 0.489178 1.93418C0.44573 1.89948 0.393489 1.87756 0.3383 1.87087C0.283111 1.86419 0.227153 1.87301 0.176688 1.89634C0.126222 1.91967 0.0832409 1.95659 0.0525536 2.00297C0.0218664 2.04936 0.00468409 2.10337 0.00292969 2.15896L0.00292969 9.58398C0.00319409 9.89709 0.127619 10.1973 0.348887 10.4187C0.570156 10.6401 0.870184 10.7646 1.18311 10.7649H12.9829C13.2958 10.7646 13.5958 10.6401 13.8171 10.4187C14.0383 10.1973 14.1628 9.89709 14.163 9.58398V2.15896C14.1631 2.10307 14.1474 2.04828 14.118 2.00079C14.0885 1.9533 14.0464 1.915 13.9963 1.89022Z" fill="#3735C0"/>
</g>
<defs>
<clipPath id="clip0_3_856">
<rect width="14.17" height="10.63" fill="white" transform="translate(0 0.134888)"/>
</clipPath>
</defs>
</svg>
