<svg width="15" height="12" viewBox="0 0 15 12" fill="none" xmlns="http://www.w3.org/2000/svg">
<g clip-path="url(#clip0_3_864)">
<path d="M0.298511 1.84705C2.24251 3.4945 5.65323 6.39278 6.65568 7.29593C6.71097 7.3539 6.77744 7.40004 6.85106 7.43157C6.92469 7.4631 7.00394 7.47936 7.08402 7.47936C7.1641 7.47936 7.24335 7.4631 7.31698 7.43157C7.3906 7.40004 7.45707 7.3539 7.51236 7.29593C8.51081 6.39178 11.9265 3.4925 13.8705 1.84605C13.9279 1.79613 13.9642 1.72623 13.972 1.65053C13.9798 1.57484 13.9585 1.49901 13.9125 1.43844C13.8029 1.29727 13.6626 1.18302 13.5022 1.10441C13.3418 1.0258 13.1655 0.984908 12.9869 0.984863H1.17915C1.00028 0.984874 0.823787 1.02585 0.663184 1.10464C0.502581 1.18343 0.362128 1.29795 0.252582 1.43944C0.20702 1.50049 0.186409 1.57662 0.194941 1.65233C0.203473 1.72805 0.240506 1.79768 0.298511 1.84705Z" fill="#3735C0"/>
<path d="M13.9963 2.74032C13.9453 2.71656 13.8885 2.70797 13.8327 2.71559C13.777 2.72321 13.7246 2.7467 13.6818 2.78328C11.5261 4.61156 8.77437 6.95635 7.90871 7.73662C7.68619 7.94741 7.39141 8.06489 7.08498 8.06489C6.77855 8.06489 6.48378 7.94741 6.26125 7.73662C5.33868 6.9044 2.24846 4.27687 0.489178 2.78427C0.44573 2.74957 0.393489 2.72765 0.3383 2.72097C0.283111 2.71429 0.227153 2.72311 0.176688 2.74644C0.126222 2.76977 0.0832409 2.80669 0.0525536 2.85307C0.0218664 2.89945 0.00468409 2.95346 0.00292969 3.00906L0.00292969 10.4341C0.00319409 10.7472 0.127619 11.0474 0.348887 11.2688C0.570156 11.4902 0.870184 11.6147 1.18311 11.615H12.9829C13.2958 11.6147 13.5958 11.4902 13.8171 11.2688C14.0383 11.0474 14.1628 10.7472 14.163 10.4341V3.00906C14.1631 2.95316 14.1474 2.89837 14.118 2.85088C14.0885 2.80339 14.0464 2.7651 13.9963 2.74032Z" fill="#3735C0"/>
</g>
<defs>
<clipPath id="clip0_3_864">
<rect width="14.17" height="10.63" fill="white" transform="translate(0 0.984863)"/>
</clipPath>
</defs>
</svg>
