<svg width="1410" height="35" viewBox="0 0 1410 35" fill="none" xmlns="http://www.w3.org/2000/svg">
<g clip-path="url(#clip0_3_912)">
<path d="M591.36 0.174675L588.063 0.169678C584.36 0.169678 581.966 2.62542 581.966 6.42548V9.31H578.655C578.518 9.31 578.386 9.36466 578.288 9.46194C578.191 9.55922 578.137 9.69116 578.137 9.82874V14.0076C578.137 14.1452 578.191 14.2771 578.288 14.3744C578.386 14.4717 578.518 14.5263 578.655 14.5263H581.97V25.0709C581.97 25.1391 581.983 25.2066 582.009 25.2696C582.035 25.3326 582.073 25.3898 582.121 25.438C582.17 25.4862 582.227 25.5244 582.29 25.5505C582.353 25.5765 582.42 25.5898 582.489 25.5897H586.814C586.951 25.5897 587.083 25.535 587.181 25.4377C587.278 25.3405 587.332 25.2085 587.332 25.0709V14.5263H591.208C591.276 14.5265 591.343 14.5131 591.406 14.4871C591.469 14.4611 591.527 14.4229 591.575 14.3747C591.623 14.3265 591.661 14.2693 591.687 14.2063C591.713 14.1433 591.727 14.0758 591.727 14.0076V9.82874C591.727 9.69116 591.672 9.55922 591.575 9.46194C591.477 9.36466 591.345 9.31 591.208 9.31H587.327V6.86625C587.327 5.69085 587.607 5.09416 589.139 5.09416H591.36C591.497 5.09389 591.629 5.03913 591.726 4.94187C591.823 4.84462 591.878 4.71283 591.878 4.57542V0.69341C591.878 0.556006 591.823 0.424215 591.726 0.326962C591.629 0.229709 591.497 0.17494 591.36 0.174675Z" fill="url(#paint0_linear_3_912)"/>
</g>
<defs>
<linearGradient id="paint0_linear_3_912" x1="578.137" y1="25.5897" x2="601.094" y2="15.0102" gradientUnits="userSpaceOnUse">
<stop stop-color="#F800B6"/>
<stop offset="0.603" stop-color="#FA4980"/>
<stop offset="1" stop-color="#FC676A"/>
</linearGradient>
<clipPath id="clip0_3_912">
<rect width="13.75" height="25.42" fill="white" transform="translate(578.13 0.169678)"/>
</clipPath>
</defs>
</svg>
